M48
; DRILL file {KiCad (6.0.1)} date Mon Feb  6 14:24:27 2023
; FORMAT={-:-/ absolute / inch / decimal}
; #@! TF.CreationDate,2023-02-06T14:24:27-05:00
; #@! TF.GenerationSoftware,Kicad,Pcbnew,(6.0.1)
; #@! TF.FileFunction,MixedPlating,1,4
FMAT,2
INCH
; #@! TA.AperFunction,Plated,PTH,ComponentDrill
T1C0.0197
; #@! TA.AperFunction,Plated,PTH,ComponentDrill
T2C0.0300
; #@! TA.AperFunction,Plated,PTH,ComponentDrill
T3C0.0394
; #@! TA.AperFunction,Plated,PTH,ComponentDrill
T4C0.0433
; #@! TA.AperFunction,Plated,PTH,ComponentDrill
T5C0.1260
%
G90
G05
T1
X4.0689Y-1.565
X4.0689Y-4.3799
X4.0966Y-1.4981
X4.0966Y-1.6318
X4.0966Y-4.3131
X4.0966Y-4.4467
X4.1634Y-1.4705
X4.1634Y-1.6594
X4.1634Y-4.2854
X4.1634Y-4.4744
X4.2302Y-1.4981
X4.2302Y-1.6318
X4.2302Y-4.3131
X4.2302Y-4.4467
X4.2579Y-1.565
X4.2579Y-4.3799
X7.6713Y-1.565
X7.6713Y-4.3799
X7.6989Y-1.4981
X7.6989Y-1.6318
X7.6989Y-4.3131
X7.6989Y-4.4467
X7.7657Y-1.4705
X7.7657Y-1.6594
X7.7657Y-4.2854
X7.7657Y-4.4744
X7.8326Y-1.4981
X7.8326Y-1.6318
X7.8326Y-4.3131
X7.8326Y-4.4467
X7.8602Y-1.565
X7.8602Y-4.3799
T2
X4.1449Y-2.2709
X4.1449Y-2.3709
X4.1449Y-2.4709
X4.1449Y-2.5709
X4.1449Y-2.6709
X4.1449Y-2.7709
X4.1449Y-2.8709
X4.1449Y-2.9709
X4.1449Y-3.0709
X4.1449Y-3.1709
X4.1449Y-3.2709
X4.1449Y-3.3709
X4.1449Y-3.4709
X4.1449Y-3.5709
X4.1449Y-3.6709
X5.2449Y-2.2709
X5.2449Y-2.3709
X5.2449Y-2.4709
X5.2449Y-2.5709
X5.2449Y-2.6709
X5.2449Y-2.7709
X5.2449Y-2.8709
X5.2449Y-2.9709
X5.2449Y-3.0709
X5.2449Y-3.1709
X5.2449Y-3.2709
X5.2449Y-3.3709
X5.2449Y-3.4709
X5.2449Y-3.5709
X5.2449Y-3.6709
T3
X5.6398Y-2.1457
X5.6398Y-2.2457
X5.6398Y-2.4902
X5.6398Y-2.5902
X5.6398Y-2.8346
X5.6398Y-2.9346
X5.6398Y-3.1791
X5.6398Y-3.2791
X5.6398Y-3.5335
X5.6398Y-3.6335
X5.9055Y-2.1457
X5.9055Y-2.2457
X5.9055Y-2.4902
X5.9055Y-2.5902
X5.9055Y-2.8346
X5.9055Y-2.9346
X5.9055Y-3.1791
X5.9055Y-3.2791
X5.9055Y-3.5319
X5.9055Y-3.6319
X6.1713Y-2.1457
X6.1713Y-2.2457
X6.1713Y-2.4902
X6.1713Y-2.5902
X6.1713Y-2.8341
X6.1713Y-2.9341
X6.1713Y-3.1791
X6.1713Y-3.2791
X6.1713Y-3.5319
X6.1713Y-3.6319
X6.437Y-2.1457
X6.437Y-2.2457
X6.437Y-2.4902
X6.437Y-2.5902
X6.437Y-3.5319
X6.437Y-3.6319
X6.7028Y-3.1791
X6.7028Y-3.2791
X6.7028Y-3.5329
X6.7028Y-3.6329
X6.7126Y-2.1467
X6.7126Y-2.2467
X6.7126Y-2.3467
X6.7126Y-2.4467
T4
X7.1016Y-2.3626
X7.1016Y-2.4626
X7.1016Y-2.5626
X7.1016Y-2.6626
X7.1016Y-2.7626
X7.1016Y-2.8626
X7.1016Y-2.9626
X7.1016Y-3.0626
X7.1016Y-3.1626
X7.1016Y-3.2626
X7.1016Y-3.3626
X7.1016Y-3.4626
X7.7016Y-2.3626
X7.7016Y-2.4626
X7.7016Y-2.5626
X7.7016Y-2.6626
X7.7016Y-2.7626
X7.7016Y-2.8626
X7.7016Y-2.9626
X7.7016Y-3.0626
X7.7016Y-3.1626
X7.7016Y-3.2626
X7.7016Y-3.3626
X7.7016Y-3.4626
T5
X4.1634Y-1.565
X4.1634Y-4.3799
X7.7657Y-1.565
X7.7657Y-4.3799
T0
M30
