%TF.GenerationSoftware,KiCad,Pcbnew,(6.0.1)*%
%TF.CreationDate,2023-02-06T14:24:32-05:00*%
%TF.ProjectId,Manette_JM,4d616e65-7474-4655-9f4a-4d2e6b696361,rev?*%
%TF.SameCoordinates,Original*%
%TF.FileFunction,Copper,L2,Inr*%
%TF.FilePolarity,Positive*%
%FSLAX46Y46*%
G04 Gerber Fmt 4.6, Leading zero omitted, Abs format (unit mm)*
G04 Created by KiCad (PCBNEW (6.0.1)) date 2023-02-06 14:24:32*
%MOMM*%
%LPD*%
G01*
G04 APERTURE LIST*
%TA.AperFunction,ComponentPad*%
%ADD10C,0.800000*%
%TD*%
%TA.AperFunction,ComponentPad*%
%ADD11C,6.400000*%
%TD*%
%TA.AperFunction,ComponentPad*%
%ADD12R,1.700000X1.700000*%
%TD*%
%TA.AperFunction,ComponentPad*%
%ADD13O,1.700000X1.700000*%
%TD*%
%TA.AperFunction,ComponentPad*%
%ADD14R,1.600000X1.600000*%
%TD*%
%TA.AperFunction,ComponentPad*%
%ADD15C,1.600000*%
%TD*%
%TA.AperFunction,ComponentPad*%
%ADD16C,1.524000*%
%TD*%
%TA.AperFunction,Conductor*%
%ADD17C,0.250000*%
%TD*%
G04 APERTURE END LIST*
D10*
%TO.N,unconnected-(H4-Pad1)*%
%TO.C,H4*%
X197250000Y-37350000D03*
X198947056Y-41447056D03*
X198947056Y-38052944D03*
X199650000Y-39750000D03*
D11*
X197250000Y-39750000D03*
D10*
X197250000Y-42150000D03*
X195552944Y-38052944D03*
X195552944Y-41447056D03*
X194850000Y-39750000D03*
%TD*%
%TO.N,unconnected-(H3-Pad1)*%
%TO.C,H3*%
X197250000Y-108850000D03*
X198947056Y-112947056D03*
X198947056Y-109552944D03*
X199650000Y-111250000D03*
D11*
X197250000Y-111250000D03*
D10*
X197250000Y-113650000D03*
X195552944Y-109552944D03*
X195552944Y-112947056D03*
X194850000Y-111250000D03*
%TD*%
%TO.N,unconnected-(H2-Pad1)*%
%TO.C,H2*%
X105750000Y-108850000D03*
X107447056Y-112947056D03*
X107447056Y-109552944D03*
X108150000Y-111250000D03*
D11*
X105750000Y-111250000D03*
D10*
X105750000Y-113650000D03*
X104052944Y-109552944D03*
X104052944Y-112947056D03*
X103350000Y-111250000D03*
%TD*%
%TO.N,unconnected-(H1-Pad1)*%
%TO.C,H1*%
X105750000Y-37350000D03*
X107447056Y-41447056D03*
X107447056Y-38052944D03*
X108150000Y-39750000D03*
D11*
X105750000Y-39750000D03*
D10*
X105750000Y-42150000D03*
X104052944Y-38052944D03*
X104052944Y-41447056D03*
X103350000Y-39750000D03*
%TD*%
D12*
%TO.N,Net-(J20-Pad1)*%
%TO.C,J20*%
X170250000Y-80750000D03*
D13*
%TO.N,GND*%
X170250000Y-83290000D03*
%TD*%
D12*
%TO.N,D3*%
%TO.C,J2*%
X150000000Y-54500000D03*
D13*
%TO.N,VCC*%
X150000000Y-57040000D03*
%TD*%
D12*
%TO.N,D16*%
%TO.C,J10*%
X150000000Y-72000000D03*
D13*
%TO.N,VCC*%
X150000000Y-74540000D03*
%TD*%
D14*
%TO.N,Net-(U1-Pad19)*%
%TO.C,U2*%
X195620000Y-87949999D03*
D15*
%TO.N,Net-(U1-Pad18)*%
X195620000Y-85409999D03*
%TO.N,GND*%
X195620000Y-82869999D03*
X195620000Y-80329999D03*
%TO.N,D2*%
X195620000Y-77789999D03*
%TO.N,D3*%
X195620000Y-75249999D03*
%TO.N,D4*%
X195620000Y-72709999D03*
%TO.N,D5*%
X195620000Y-70169999D03*
%TO.N,D6*%
X195620000Y-67629999D03*
%TO.N,D7*%
X195620000Y-65089999D03*
%TO.N,D8*%
X195620000Y-62549999D03*
%TO.N,D9*%
X195620000Y-60009999D03*
%TO.N,D10*%
X180380000Y-60009999D03*
%TO.N,D16*%
X180380000Y-62549999D03*
%TO.N,D14*%
X180380000Y-65089999D03*
%TO.N,D15*%
X180380000Y-67629999D03*
%TO.N,A0*%
X180380000Y-70169999D03*
%TO.N,A1*%
X180380000Y-72709999D03*
%TO.N,D20*%
X180380000Y-75249999D03*
%TO.N,D21*%
X180380000Y-77789999D03*
%TO.N,VCC*%
X180380000Y-80329999D03*
%TO.N,unconnected-(U2-Pad22)*%
X180380000Y-82869999D03*
%TO.N,GND*%
X180380000Y-85409999D03*
%TO.N,unconnected-(U2-Pad24)*%
X180380000Y-87949999D03*
%TD*%
D12*
%TO.N,D14*%
%TO.C,J11*%
X156750000Y-71985000D03*
D13*
%TO.N,VCC*%
X156750000Y-74525000D03*
%TD*%
D12*
%TO.N,D4*%
%TO.C,J3*%
X156750000Y-54500000D03*
D13*
%TO.N,VCC*%
X156750000Y-57040000D03*
%TD*%
D12*
%TO.N,D2*%
%TO.C,J1*%
X143250000Y-54500000D03*
D13*
%TO.N,VCC*%
X143250000Y-57040000D03*
%TD*%
D12*
%TO.N,D14*%
%TO.C,J16*%
X150000000Y-92250000D03*
D13*
%TO.N,VCC*%
X150000000Y-89710000D03*
%TD*%
D12*
%TO.N,D15*%
%TO.C,J12*%
X143250000Y-80750000D03*
D13*
%TO.N,VCC*%
X143250000Y-83290000D03*
%TD*%
D16*
%TO.N,unconnected-(U1-Pad1)*%
%TO.C,U1*%
X105280000Y-57680000D03*
%TO.N,unconnected-(U1-Pad2)*%
X105280000Y-60220000D03*
%TO.N,unconnected-(U1-Pad3)*%
X105280000Y-62760000D03*
%TO.N,unconnected-(U1-Pad4)*%
X105280000Y-65300000D03*
%TO.N,unconnected-(U1-Pad5)*%
X105280000Y-67840000D03*
%TO.N,unconnected-(U1-Pad6)*%
X105280000Y-70380000D03*
%TO.N,unconnected-(U1-Pad7)*%
X105280000Y-72920000D03*
%TO.N,unconnected-(U1-Pad8)*%
X105280000Y-75460000D03*
%TO.N,unconnected-(U1-Pad9)*%
X105280000Y-78000000D03*
%TO.N,GND*%
X105280000Y-80540000D03*
%TO.N,unconnected-(U1-Pad11)*%
X105280000Y-83080000D03*
%TO.N,unconnected-(U1-Pad12)*%
X105280000Y-85620000D03*
%TO.N,unconnected-(U1-Pad13)*%
X105280000Y-88160000D03*
%TO.N,GND*%
X105280000Y-90700000D03*
%TO.N,VCC*%
X105280000Y-93240000D03*
%TO.N,unconnected-(U1-Pad16)*%
X133220000Y-93240000D03*
%TO.N,GND*%
X133220000Y-90700000D03*
%TO.N,Net-(U1-Pad18)*%
X133220000Y-88160000D03*
%TO.N,Net-(U1-Pad19)*%
X133220000Y-85620000D03*
%TO.N,unconnected-(U1-Pad20)*%
X133220000Y-83080000D03*
%TO.N,unconnected-(U1-Pad21)*%
X133220000Y-80540000D03*
%TO.N,unconnected-(U1-Pad22)*%
X133220000Y-78000000D03*
%TO.N,unconnected-(U1-Pad23)*%
X133220000Y-75460000D03*
%TO.N,GND*%
X133220000Y-72920000D03*
%TO.N,unconnected-(U1-Pad25)*%
X133220000Y-70380000D03*
%TO.N,unconnected-(U1-Pad26)*%
X133220000Y-67840000D03*
%TO.N,unconnected-(U1-Pad27)*%
X133220000Y-65300000D03*
%TO.N,unconnected-(U1-Pad28)*%
X133220000Y-62760000D03*
%TO.N,unconnected-(U1-Pad29)*%
X133220000Y-60220000D03*
%TO.N,unconnected-(U1-Pad30)*%
X133220000Y-57680000D03*
%TD*%
D12*
%TO.N,D16*%
%TO.C,J15*%
X143250000Y-89750000D03*
D13*
%TO.N,VCC*%
X143250000Y-92290000D03*
%TD*%
D12*
%TO.N,D6*%
%TO.C,J5*%
X143250000Y-63250000D03*
D13*
%TO.N,VCC*%
X143250000Y-65790000D03*
%TD*%
D12*
%TO.N,A0*%
%TO.C,J21*%
X170500000Y-54525000D03*
D13*
%TO.N,A1*%
X170500000Y-57065000D03*
%TO.N,GND*%
X170500000Y-59605000D03*
%TO.N,VCC*%
X170500000Y-62145000D03*
%TD*%
D12*
%TO.N,D10*%
%TO.C,J9*%
X143250000Y-72000000D03*
D13*
%TO.N,VCC*%
X143250000Y-74540000D03*
%TD*%
D12*
%TO.N,D7*%
%TO.C,J6*%
X150000000Y-63250000D03*
D13*
%TO.N,VCC*%
X150000000Y-65790000D03*
%TD*%
D12*
%TO.N,D5*%
%TO.C,J4*%
X163500000Y-54500000D03*
D13*
%TO.N,VCC*%
X163500000Y-57040000D03*
%TD*%
D12*
%TO.N,D9*%
%TO.C,J8*%
X163500000Y-63250000D03*
D13*
%TO.N,VCC*%
X163500000Y-65790000D03*
%TD*%
D12*
%TO.N,D21*%
%TO.C,J19*%
X170250000Y-92275000D03*
D13*
%TO.N,VCC*%
X170250000Y-89735000D03*
%TD*%
D12*
%TO.N,D20*%
%TO.C,J13*%
X150000000Y-80750000D03*
D13*
%TO.N,VCC*%
X150000000Y-83290000D03*
%TD*%
D12*
%TO.N,D20*%
%TO.C,J18*%
X163500000Y-92250000D03*
D13*
%TO.N,VCC*%
X163500000Y-89710000D03*
%TD*%
D12*
%TO.N,D8*%
%TO.C,J7*%
X156750000Y-63250000D03*
D13*
%TO.N,VCC*%
X156750000Y-65790000D03*
%TD*%
D12*
%TO.N,D21*%
%TO.C,J14*%
X156750000Y-80750000D03*
D13*
%TO.N,VCC*%
X156750000Y-83290000D03*
%TD*%
D12*
%TO.N,D15*%
%TO.C,J17*%
X156750000Y-92250000D03*
D13*
%TO.N,VCC*%
X156750000Y-89710000D03*
%TD*%
D17*
%TO.N,D2*%
X199000000Y-77000000D02*
X198210001Y-77789999D01*
X199000000Y-54000000D02*
X199000000Y-77000000D01*
X144250000Y-50250000D02*
X195250000Y-50250000D01*
X198210001Y-77789999D02*
X195620000Y-77789999D01*
X195250000Y-50250000D02*
X199000000Y-54000000D01*
X143250000Y-51250000D02*
X144250000Y-50250000D01*
X143250000Y-54500000D02*
X143250000Y-51250000D01*
%TO.N,D3*%
X150000000Y-52000000D02*
X151000000Y-51000000D01*
X198500000Y-54250000D02*
X198500000Y-74500000D01*
X197750001Y-75249999D02*
X195620000Y-75249999D01*
X195250000Y-51000000D02*
X198500000Y-54250000D01*
X198500000Y-74500000D02*
X197750001Y-75249999D01*
X151000000Y-51000000D02*
X195250000Y-51000000D01*
X150000000Y-54500000D02*
X150000000Y-52000000D01*
%TO.N,D4*%
X156750000Y-52500000D02*
X157500000Y-51750000D01*
X157500000Y-51750000D02*
X195250000Y-51750000D01*
X195250000Y-51750000D02*
X198000000Y-54500000D01*
X156750000Y-54500000D02*
X156750000Y-52500000D01*
X198000000Y-72000000D02*
X197290001Y-72709999D01*
X198000000Y-54500000D02*
X198000000Y-72000000D01*
X197290001Y-72709999D02*
X195620000Y-72709999D01*
%TO.N,D5*%
X163500000Y-54500000D02*
X163500000Y-53000000D01*
X197500000Y-54750000D02*
X197500000Y-69250000D01*
X164000000Y-52500000D02*
X195250000Y-52500000D01*
X195250000Y-52500000D02*
X197500000Y-54750000D01*
X197500000Y-69250000D02*
X196580001Y-70169999D01*
X163500000Y-53000000D02*
X164000000Y-52500000D01*
X196580001Y-70169999D02*
X195620000Y-70169999D01*
%TO.N,D6*%
X195620000Y-67629999D02*
X192120001Y-67629999D01*
X144750000Y-63250000D02*
X143250000Y-63250000D01*
X156609030Y-69495008D02*
X145745008Y-69495008D01*
X145745008Y-69495008D02*
X145250000Y-69000000D01*
X192120001Y-67629999D02*
X188250000Y-71500000D01*
X158614022Y-71500000D02*
X156609030Y-69495008D01*
X145250000Y-63750000D02*
X144750000Y-63250000D01*
X188250000Y-71500000D02*
X158614022Y-71500000D01*
X145250000Y-69000000D02*
X145250000Y-63750000D01*
%TO.N,D7*%
X195620000Y-65089999D02*
X190910001Y-65089999D01*
X152500000Y-69000000D02*
X152000000Y-68500000D01*
X152000000Y-63750000D02*
X151500000Y-63250000D01*
X190910001Y-65089999D02*
X187000000Y-69000000D01*
X152000000Y-68500000D02*
X152000000Y-63750000D01*
X151500000Y-63250000D02*
X150000000Y-63250000D01*
X187000000Y-69000000D02*
X152500000Y-69000000D01*
%TO.N,D8*%
X165750000Y-68000000D02*
X159250000Y-68000000D01*
X185500000Y-66250000D02*
X167500000Y-66250000D01*
X158750000Y-67500000D02*
X158750000Y-63750000D01*
X159250000Y-68000000D02*
X158750000Y-67500000D01*
X158750000Y-63750000D02*
X158250000Y-63250000D01*
X195620000Y-62549999D02*
X189200001Y-62549999D01*
X158250000Y-63250000D02*
X156750000Y-63250000D01*
X167500000Y-66250000D02*
X165750000Y-68000000D01*
X189200001Y-62549999D02*
X185500000Y-66250000D01*
%TO.N,D9*%
X187740001Y-60009999D02*
X184000000Y-63750000D01*
X195620000Y-60009999D02*
X187740001Y-60009999D01*
X165250000Y-63250000D02*
X163500000Y-63250000D01*
X184000000Y-63750000D02*
X165750000Y-63750000D01*
X165750000Y-63750000D02*
X165250000Y-63250000D01*
%TO.N,D15*%
X154000000Y-88250000D02*
X153750000Y-88000000D01*
X154000000Y-92000000D02*
X154000000Y-88250000D01*
X145500000Y-87750000D02*
X145500000Y-81250000D01*
X145750000Y-88000000D02*
X145500000Y-87750000D01*
X145500000Y-81250000D02*
X145000000Y-80750000D01*
X154250000Y-92250000D02*
X154000000Y-92000000D01*
X145000000Y-80750000D02*
X143250000Y-80750000D01*
X156750000Y-92250000D02*
X154250000Y-92250000D01*
X153750000Y-88000000D02*
X145750000Y-88000000D01*
%TO.N,Net-(U1-Pad19)*%
X135000000Y-86000000D02*
X135000000Y-97500000D01*
X134620000Y-85620000D02*
X135000000Y-86000000D01*
X139250000Y-101750000D02*
X194250000Y-101750000D01*
X194250000Y-101750000D02*
X197250000Y-98750000D01*
X197250000Y-88250000D02*
X196949999Y-87949999D01*
X197250000Y-98750000D02*
X197250000Y-88250000D01*
X135000000Y-97500000D02*
X139250000Y-101750000D01*
X196949999Y-87949999D02*
X195620000Y-87949999D01*
X133220000Y-85620000D02*
X134620000Y-85620000D01*
%TO.N,Net-(U1-Pad18)*%
X134500000Y-97750000D02*
X134500000Y-88500000D01*
X134500000Y-88500000D02*
X134160000Y-88160000D01*
X196909999Y-85409999D02*
X197750000Y-86250000D01*
X194250000Y-102500000D02*
X139250000Y-102500000D01*
X139250000Y-102500000D02*
X134500000Y-97750000D01*
X197750000Y-99000000D02*
X194250000Y-102500000D01*
X134160000Y-88160000D02*
X133220000Y-88160000D01*
X197750000Y-86250000D02*
X197750000Y-99000000D01*
X195620000Y-85409999D02*
X196909999Y-85409999D01*
%TD*%
M02*
