%TF.GenerationSoftware,KiCad,Pcbnew,(6.0.1)*%
%TF.CreationDate,2023-02-06T14:24:32-05:00*%
%TF.ProjectId,Manette_JM,4d616e65-7474-4655-9f4a-4d2e6b696361,rev?*%
%TF.SameCoordinates,Original*%
%TF.FileFunction,Soldermask,Top*%
%TF.FilePolarity,Negative*%
%FSLAX46Y46*%
G04 Gerber Fmt 4.6, Leading zero omitted, Abs format (unit mm)*
G04 Created by KiCad (PCBNEW (6.0.1)) date 2023-02-06 14:24:32*
%MOMM*%
%LPD*%
G01*
G04 APERTURE LIST*
G04 Aperture macros list*
%AMRoundRect*
0 Rectangle with rounded corners*
0 $1 Rounding radius*
0 $2 $3 $4 $5 $6 $7 $8 $9 X,Y pos of 4 corners*
0 Add a 4 corners polygon primitive as box body*
4,1,4,$2,$3,$4,$5,$6,$7,$8,$9,$2,$3,0*
0 Add four circle primitives for the rounded corners*
1,1,$1+$1,$2,$3*
1,1,$1+$1,$4,$5*
1,1,$1+$1,$6,$7*
1,1,$1+$1,$8,$9*
0 Add four rect primitives between the rounded corners*
20,1,$1+$1,$2,$3,$4,$5,0*
20,1,$1+$1,$4,$5,$6,$7,0*
20,1,$1+$1,$6,$7,$8,$9,0*
20,1,$1+$1,$8,$9,$2,$3,0*%
G04 Aperture macros list end*
%ADD10C,0.800000*%
%ADD11C,6.400000*%
%ADD12R,1.700000X1.700000*%
%ADD13O,1.700000X1.700000*%
%ADD14RoundRect,0.250000X-0.450000X0.350000X-0.450000X-0.350000X0.450000X-0.350000X0.450000X0.350000X0*%
%ADD15R,1.600000X1.600000*%
%ADD16C,1.600000*%
%ADD17RoundRect,0.250000X0.350000X0.450000X-0.350000X0.450000X-0.350000X-0.450000X0.350000X-0.450000X0*%
%ADD18RoundRect,0.250000X0.450000X-0.350000X0.450000X0.350000X-0.450000X0.350000X-0.450000X-0.350000X0*%
%ADD19C,1.524000*%
%ADD20RoundRect,0.250000X-0.350000X-0.450000X0.350000X-0.450000X0.350000X0.450000X-0.350000X0.450000X0*%
G04 APERTURE END LIST*
D10*
%TO.C,H4*%
X197250000Y-37350000D03*
X198947056Y-41447056D03*
X198947056Y-38052944D03*
X199650000Y-39750000D03*
D11*
X197250000Y-39750000D03*
D10*
X197250000Y-42150000D03*
X195552944Y-38052944D03*
X195552944Y-41447056D03*
X194850000Y-39750000D03*
%TD*%
%TO.C,H3*%
X197250000Y-108850000D03*
X198947056Y-112947056D03*
X198947056Y-109552944D03*
X199650000Y-111250000D03*
D11*
X197250000Y-111250000D03*
D10*
X197250000Y-113650000D03*
X195552944Y-109552944D03*
X195552944Y-112947056D03*
X194850000Y-111250000D03*
%TD*%
%TO.C,H2*%
X105750000Y-108850000D03*
X107447056Y-112947056D03*
X107447056Y-109552944D03*
X108150000Y-111250000D03*
D11*
X105750000Y-111250000D03*
D10*
X105750000Y-113650000D03*
X104052944Y-109552944D03*
X104052944Y-112947056D03*
X103350000Y-111250000D03*
%TD*%
%TO.C,H1*%
X105750000Y-37350000D03*
X107447056Y-41447056D03*
X107447056Y-38052944D03*
X108150000Y-39750000D03*
D11*
X105750000Y-39750000D03*
D10*
X105750000Y-42150000D03*
X104052944Y-38052944D03*
X104052944Y-41447056D03*
X103350000Y-39750000D03*
%TD*%
D12*
%TO.C,J20*%
X170250000Y-80750000D03*
D13*
X170250000Y-83290000D03*
%TD*%
D12*
%TO.C,J2*%
X150000000Y-54500000D03*
D13*
X150000000Y-57040000D03*
%TD*%
D14*
%TO.C,R16*%
X150000000Y-97000000D03*
X150000000Y-99000000D03*
%TD*%
D12*
%TO.C,J10*%
X150000000Y-72000000D03*
D13*
X150000000Y-74540000D03*
%TD*%
D15*
%TO.C,U2*%
X195620000Y-87949999D03*
D16*
X195620000Y-85409999D03*
X195620000Y-82869999D03*
X195620000Y-80329999D03*
X195620000Y-77789999D03*
X195620000Y-75249999D03*
X195620000Y-72709999D03*
X195620000Y-70169999D03*
X195620000Y-67629999D03*
X195620000Y-65089999D03*
X195620000Y-62549999D03*
X195620000Y-60009999D03*
X180380000Y-60009999D03*
X180380000Y-62549999D03*
X180380000Y-65089999D03*
X180380000Y-67629999D03*
X180380000Y-70169999D03*
X180380000Y-72709999D03*
X180380000Y-75249999D03*
X180380000Y-77789999D03*
X180380000Y-80329999D03*
X180380000Y-82869999D03*
X180380000Y-85409999D03*
X180380000Y-87949999D03*
%TD*%
D17*
%TO.C,R10*%
X139250000Y-69000000D03*
X137250000Y-69000000D03*
%TD*%
D14*
%TO.C,R15*%
X138250000Y-89750000D03*
X138250000Y-91750000D03*
%TD*%
D12*
%TO.C,J11*%
X156750000Y-71985000D03*
D13*
X156750000Y-74525000D03*
%TD*%
D12*
%TO.C,J3*%
X156750000Y-54500000D03*
D13*
X156750000Y-57040000D03*
%TD*%
D12*
%TO.C,J1*%
X143250000Y-54500000D03*
D13*
X143250000Y-57040000D03*
%TD*%
D12*
%TO.C,J16*%
X150000000Y-92250000D03*
D13*
X150000000Y-89710000D03*
%TD*%
D18*
%TO.C,R4*%
X163500000Y-50750000D03*
X163500000Y-48750000D03*
%TD*%
D14*
%TO.C,R18*%
X163500000Y-97000000D03*
X163500000Y-99000000D03*
%TD*%
%TO.C,R14*%
X163250000Y-80750000D03*
X163250000Y-82750000D03*
%TD*%
D12*
%TO.C,J12*%
X143250000Y-80750000D03*
D13*
X143250000Y-83290000D03*
%TD*%
D19*
%TO.C,U1*%
X105280000Y-57680000D03*
X105280000Y-60220000D03*
X105280000Y-62760000D03*
X105280000Y-65300000D03*
X105280000Y-67840000D03*
X105280000Y-70380000D03*
X105280000Y-72920000D03*
X105280000Y-75460000D03*
X105280000Y-78000000D03*
X105280000Y-80540000D03*
X105280000Y-83080000D03*
X105280000Y-85620000D03*
X105280000Y-88160000D03*
X105280000Y-90700000D03*
X105280000Y-93240000D03*
X133220000Y-93240000D03*
X133220000Y-90700000D03*
X133220000Y-88160000D03*
X133220000Y-85620000D03*
X133220000Y-83080000D03*
X133220000Y-80540000D03*
X133220000Y-78000000D03*
X133220000Y-75460000D03*
X133220000Y-72920000D03*
X133220000Y-70380000D03*
X133220000Y-67840000D03*
X133220000Y-65300000D03*
X133220000Y-62760000D03*
X133220000Y-60220000D03*
X133220000Y-57680000D03*
%TD*%
D20*
%TO.C,R8*%
X169500000Y-66750000D03*
X171500000Y-66750000D03*
%TD*%
D14*
%TO.C,R1*%
X138250000Y-54500000D03*
X138250000Y-56500000D03*
%TD*%
%TO.C,R11*%
X163000000Y-72000000D03*
X163000000Y-74000000D03*
%TD*%
D12*
%TO.C,J15*%
X143250000Y-89750000D03*
D13*
X143250000Y-92290000D03*
%TD*%
D12*
%TO.C,J5*%
X143250000Y-63250000D03*
D13*
X143250000Y-65790000D03*
%TD*%
D12*
%TO.C,J21*%
X170500000Y-54525000D03*
D13*
X170500000Y-57065000D03*
X170500000Y-59605000D03*
X170500000Y-62145000D03*
%TD*%
D12*
%TO.C,J9*%
X143250000Y-72000000D03*
D13*
X143250000Y-74540000D03*
%TD*%
D14*
%TO.C,R12*%
X138250000Y-80750000D03*
X138250000Y-82750000D03*
%TD*%
%TO.C,R5*%
X138250000Y-63250000D03*
X138250000Y-65250000D03*
%TD*%
D12*
%TO.C,J6*%
X150000000Y-63250000D03*
D13*
X150000000Y-65790000D03*
%TD*%
D14*
%TO.C,R19*%
X170250000Y-97000000D03*
X170250000Y-99000000D03*
%TD*%
D12*
%TO.C,J4*%
X163500000Y-54500000D03*
D13*
X163500000Y-57040000D03*
%TD*%
D12*
%TO.C,J8*%
X163500000Y-63250000D03*
D13*
X163500000Y-65790000D03*
%TD*%
D14*
%TO.C,R17*%
X156750000Y-97000000D03*
X156750000Y-99000000D03*
%TD*%
D12*
%TO.C,J19*%
X170250000Y-92275000D03*
D13*
X170250000Y-89735000D03*
%TD*%
D18*
%TO.C,R7*%
X160250000Y-50750000D03*
X160250000Y-48750000D03*
%TD*%
D12*
%TO.C,J13*%
X150000000Y-80750000D03*
D13*
X150000000Y-83290000D03*
%TD*%
D14*
%TO.C,R20*%
X170250000Y-72000000D03*
X170250000Y-74000000D03*
%TD*%
D12*
%TO.C,J18*%
X163500000Y-92250000D03*
D13*
X163500000Y-89710000D03*
%TD*%
D14*
%TO.C,R9*%
X138250000Y-72000000D03*
X138250000Y-74000000D03*
%TD*%
D18*
%TO.C,R2*%
X150000000Y-50750000D03*
X150000000Y-48750000D03*
%TD*%
D12*
%TO.C,J7*%
X156750000Y-63250000D03*
D13*
X156750000Y-65790000D03*
%TD*%
D18*
%TO.C,R3*%
X156750000Y-50750000D03*
X156750000Y-48750000D03*
%TD*%
D14*
%TO.C,R13*%
X146750000Y-97000000D03*
X146750000Y-99000000D03*
%TD*%
D18*
%TO.C,R6*%
X146750000Y-50750000D03*
X146750000Y-48750000D03*
%TD*%
D12*
%TO.C,J14*%
X156750000Y-80750000D03*
D13*
X156750000Y-83290000D03*
%TD*%
D12*
%TO.C,J17*%
X156750000Y-92250000D03*
D13*
X156750000Y-89710000D03*
%TD*%
M02*
