%TF.GenerationSoftware,KiCad,Pcbnew,(6.0.1)*%
%TF.CreationDate,2023-02-06T14:24:32-05:00*%
%TF.ProjectId,Manette_JM,4d616e65-7474-4655-9f4a-4d2e6b696361,rev?*%
%TF.SameCoordinates,Original*%
%TF.FileFunction,Copper,L4,Bot*%
%TF.FilePolarity,Positive*%
%FSLAX46Y46*%
G04 Gerber Fmt 4.6, Leading zero omitted, Abs format (unit mm)*
G04 Created by KiCad (PCBNEW (6.0.1)) date 2023-02-06 14:24:32*
%MOMM*%
%LPD*%
G01*
G04 APERTURE LIST*
%TA.AperFunction,ComponentPad*%
%ADD10C,0.800000*%
%TD*%
%TA.AperFunction,ComponentPad*%
%ADD11C,6.400000*%
%TD*%
%TA.AperFunction,ComponentPad*%
%ADD12R,1.700000X1.700000*%
%TD*%
%TA.AperFunction,ComponentPad*%
%ADD13O,1.700000X1.700000*%
%TD*%
%TA.AperFunction,ComponentPad*%
%ADD14R,1.600000X1.600000*%
%TD*%
%TA.AperFunction,ComponentPad*%
%ADD15C,1.600000*%
%TD*%
%TA.AperFunction,ComponentPad*%
%ADD16C,1.524000*%
%TD*%
%TA.AperFunction,Conductor*%
%ADD17C,0.250000*%
%TD*%
G04 APERTURE END LIST*
D10*
%TO.P,H4,1,1*%
%TO.N,unconnected-(H4-Pad1)*%
X197250000Y-37350000D03*
X198947056Y-41447056D03*
X198947056Y-38052944D03*
X199650000Y-39750000D03*
D11*
X197250000Y-39750000D03*
D10*
X197250000Y-42150000D03*
X195552944Y-38052944D03*
X195552944Y-41447056D03*
X194850000Y-39750000D03*
%TD*%
%TO.P,H3,1,1*%
%TO.N,unconnected-(H3-Pad1)*%
X197250000Y-108850000D03*
X198947056Y-112947056D03*
X198947056Y-109552944D03*
X199650000Y-111250000D03*
D11*
X197250000Y-111250000D03*
D10*
X197250000Y-113650000D03*
X195552944Y-109552944D03*
X195552944Y-112947056D03*
X194850000Y-111250000D03*
%TD*%
%TO.P,H2,1,1*%
%TO.N,unconnected-(H2-Pad1)*%
X105750000Y-108850000D03*
X107447056Y-112947056D03*
X107447056Y-109552944D03*
X108150000Y-111250000D03*
D11*
X105750000Y-111250000D03*
D10*
X105750000Y-113650000D03*
X104052944Y-109552944D03*
X104052944Y-112947056D03*
X103350000Y-111250000D03*
%TD*%
%TO.P,H1,1,1*%
%TO.N,unconnected-(H1-Pad1)*%
X105750000Y-37350000D03*
X107447056Y-41447056D03*
X107447056Y-38052944D03*
X108150000Y-39750000D03*
D11*
X105750000Y-39750000D03*
D10*
X105750000Y-42150000D03*
X104052944Y-38052944D03*
X104052944Y-41447056D03*
X103350000Y-39750000D03*
%TD*%
D12*
%TO.P,J20,1,Pin_1*%
%TO.N,Net-(J20-Pad1)*%
X170250000Y-80750000D03*
D13*
%TO.P,J20,2,Pin_2*%
%TO.N,GND*%
X170250000Y-83290000D03*
%TD*%
D12*
%TO.P,J2,1,Pin_1*%
%TO.N,D3*%
X150000000Y-54500000D03*
D13*
%TO.P,J2,2,Pin_2*%
%TO.N,VCC*%
X150000000Y-57040000D03*
%TD*%
D12*
%TO.P,J10,1,Pin_1*%
%TO.N,D16*%
X150000000Y-72000000D03*
D13*
%TO.P,J10,2,Pin_2*%
%TO.N,VCC*%
X150000000Y-74540000D03*
%TD*%
D14*
%TO.P,U2,1,TX*%
%TO.N,Net-(U1-Pad19)*%
X195620000Y-87949999D03*
D15*
%TO.P,U2,2,RX*%
%TO.N,Net-(U1-Pad18)*%
X195620000Y-85409999D03*
%TO.P,U2,3,GND*%
%TO.N,GND*%
X195620000Y-82869999D03*
%TO.P,U2,4,GND*%
X195620000Y-80329999D03*
%TO.P,U2,5,SDA*%
%TO.N,D2*%
X195620000Y-77789999D03*
%TO.P,U2,6,SCL*%
%TO.N,D3*%
X195620000Y-75249999D03*
%TO.P,U2,7,D4*%
%TO.N,D4*%
X195620000Y-72709999D03*
%TO.P,U2,8,C6*%
%TO.N,D5*%
X195620000Y-70169999D03*
%TO.P,U2,9,D7*%
%TO.N,D6*%
X195620000Y-67629999D03*
%TO.P,U2,10,E6*%
%TO.N,D7*%
X195620000Y-65089999D03*
%TO.P,U2,11,B4*%
%TO.N,D8*%
X195620000Y-62549999D03*
%TO.P,U2,12,B5*%
%TO.N,D9*%
X195620000Y-60009999D03*
%TO.P,U2,13,B6*%
%TO.N,D10*%
X180380000Y-60009999D03*
%TO.P,U2,14,B2*%
%TO.N,D16*%
X180380000Y-62549999D03*
%TO.P,U2,15,B3*%
%TO.N,D14*%
X180380000Y-65089999D03*
%TO.P,U2,16,B1*%
%TO.N,D15*%
X180380000Y-67629999D03*
%TO.P,U2,17,F7*%
%TO.N,A0*%
X180380000Y-70169999D03*
%TO.P,U2,18,F6*%
%TO.N,A1*%
X180380000Y-72709999D03*
%TO.P,U2,19,F5*%
%TO.N,D20*%
X180380000Y-75249999D03*
%TO.P,U2,20,F4*%
%TO.N,D21*%
X180380000Y-77789999D03*
%TO.P,U2,21,VCC*%
%TO.N,VCC*%
X180380000Y-80329999D03*
%TO.P,U2,22,RST*%
%TO.N,unconnected-(U2-Pad22)*%
X180380000Y-82869999D03*
%TO.P,U2,23,GND*%
%TO.N,GND*%
X180380000Y-85409999D03*
%TO.P,U2,24,RAW*%
%TO.N,unconnected-(U2-Pad24)*%
X180380000Y-87949999D03*
%TD*%
D12*
%TO.P,J11,1,Pin_1*%
%TO.N,D14*%
X156750000Y-71985000D03*
D13*
%TO.P,J11,2,Pin_2*%
%TO.N,VCC*%
X156750000Y-74525000D03*
%TD*%
D12*
%TO.P,J3,1,Pin_1*%
%TO.N,D4*%
X156750000Y-54500000D03*
D13*
%TO.P,J3,2,Pin_2*%
%TO.N,VCC*%
X156750000Y-57040000D03*
%TD*%
D12*
%TO.P,J1,1,Pin_1*%
%TO.N,D2*%
X143250000Y-54500000D03*
D13*
%TO.P,J1,2,Pin_2*%
%TO.N,VCC*%
X143250000Y-57040000D03*
%TD*%
D12*
%TO.P,J16,1,Pin_1*%
%TO.N,D14*%
X150000000Y-92250000D03*
D13*
%TO.P,J16,2,Pin_2*%
%TO.N,VCC*%
X150000000Y-89710000D03*
%TD*%
D12*
%TO.P,J12,1,Pin_1*%
%TO.N,D15*%
X143250000Y-80750000D03*
D13*
%TO.P,J12,2,Pin_2*%
%TO.N,VCC*%
X143250000Y-83290000D03*
%TD*%
D16*
%TO.P,U1,1,A0(ADC0)*%
%TO.N,unconnected-(U1-Pad1)*%
X105280000Y-57680000D03*
%TO.P,U1,2,RSV*%
%TO.N,unconnected-(U1-Pad2)*%
X105280000Y-60220000D03*
%TO.P,U1,3,RSV*%
%TO.N,unconnected-(U1-Pad3)*%
X105280000Y-62760000D03*
%TO.P,U1,4,SD3(GPIO10)*%
%TO.N,unconnected-(U1-Pad4)*%
X105280000Y-65300000D03*
%TO.P,U1,5,SD2(GPIO9)*%
%TO.N,unconnected-(U1-Pad5)*%
X105280000Y-67840000D03*
%TO.P,U1,6,SD1(MOSI)*%
%TO.N,unconnected-(U1-Pad6)*%
X105280000Y-70380000D03*
%TO.P,U1,7,CMD(CS)*%
%TO.N,unconnected-(U1-Pad7)*%
X105280000Y-72920000D03*
%TO.P,U1,8,SDO(MISO)*%
%TO.N,unconnected-(U1-Pad8)*%
X105280000Y-75460000D03*
%TO.P,U1,9,CLK(SCLK)*%
%TO.N,unconnected-(U1-Pad9)*%
X105280000Y-78000000D03*
%TO.P,U1,10,GND*%
%TO.N,GND*%
X105280000Y-80540000D03*
%TO.P,U1,11,3.3V*%
%TO.N,unconnected-(U1-Pad11)*%
X105280000Y-83080000D03*
%TO.P,U1,12,EN*%
%TO.N,unconnected-(U1-Pad12)*%
X105280000Y-85620000D03*
%TO.P,U1,13,RST*%
%TO.N,unconnected-(U1-Pad13)*%
X105280000Y-88160000D03*
%TO.P,U1,14,GND*%
%TO.N,GND*%
X105280000Y-90700000D03*
%TO.P,U1,15,VIN*%
%TO.N,VCC*%
X105280000Y-93240000D03*
%TO.P,U1,16,3.3V*%
%TO.N,unconnected-(U1-Pad16)*%
X133220000Y-93240000D03*
%TO.P,U1,17,GND*%
%TO.N,GND*%
X133220000Y-90700000D03*
%TO.P,U1,18,TX(GPIO1)*%
%TO.N,Net-(U1-Pad18)*%
X133220000Y-88160000D03*
%TO.P,U1,19,RX(GPIO3)*%
%TO.N,Net-(U1-Pad19)*%
X133220000Y-85620000D03*
%TO.P,U1,20,D8(GPIO15)*%
%TO.N,unconnected-(U1-Pad20)*%
X133220000Y-83080000D03*
%TO.P,U1,21,D7(GPIO13)*%
%TO.N,unconnected-(U1-Pad21)*%
X133220000Y-80540000D03*
%TO.P,U1,22,D6(GPIO12)*%
%TO.N,unconnected-(U1-Pad22)*%
X133220000Y-78000000D03*
%TO.P,U1,23,D5(GPIO14)*%
%TO.N,unconnected-(U1-Pad23)*%
X133220000Y-75460000D03*
%TO.P,U1,24,GND*%
%TO.N,GND*%
X133220000Y-72920000D03*
%TO.P,U1,25,3.3V*%
%TO.N,unconnected-(U1-Pad25)*%
X133220000Y-70380000D03*
%TO.P,U1,26,D4(GPIO2)*%
%TO.N,unconnected-(U1-Pad26)*%
X133220000Y-67840000D03*
%TO.P,U1,27,D3(GPIO0)*%
%TO.N,unconnected-(U1-Pad27)*%
X133220000Y-65300000D03*
%TO.P,U1,28,D2(GPIO4)*%
%TO.N,unconnected-(U1-Pad28)*%
X133220000Y-62760000D03*
%TO.P,U1,29,D1(GPIO5)*%
%TO.N,unconnected-(U1-Pad29)*%
X133220000Y-60220000D03*
%TO.P,U1,30,D0(GPIO16)*%
%TO.N,unconnected-(U1-Pad30)*%
X133220000Y-57680000D03*
%TD*%
D12*
%TO.P,J15,1,Pin_1*%
%TO.N,D16*%
X143250000Y-89750000D03*
D13*
%TO.P,J15,2,Pin_2*%
%TO.N,VCC*%
X143250000Y-92290000D03*
%TD*%
D12*
%TO.P,J5,1,Pin_1*%
%TO.N,D6*%
X143250000Y-63250000D03*
D13*
%TO.P,J5,2,Pin_2*%
%TO.N,VCC*%
X143250000Y-65790000D03*
%TD*%
D12*
%TO.P,J21,1,Pin_1*%
%TO.N,A0*%
X170500000Y-54525000D03*
D13*
%TO.P,J21,2,Pin_2*%
%TO.N,A1*%
X170500000Y-57065000D03*
%TO.P,J21,3,Pin_3*%
%TO.N,GND*%
X170500000Y-59605000D03*
%TO.P,J21,4,Pin_4*%
%TO.N,VCC*%
X170500000Y-62145000D03*
%TD*%
D12*
%TO.P,J9,1,Pin_1*%
%TO.N,D10*%
X143250000Y-72000000D03*
D13*
%TO.P,J9,2,Pin_2*%
%TO.N,VCC*%
X143250000Y-74540000D03*
%TD*%
D12*
%TO.P,J6,1,Pin_1*%
%TO.N,D7*%
X150000000Y-63250000D03*
D13*
%TO.P,J6,2,Pin_2*%
%TO.N,VCC*%
X150000000Y-65790000D03*
%TD*%
D12*
%TO.P,J4,1,Pin_1*%
%TO.N,D5*%
X163500000Y-54500000D03*
D13*
%TO.P,J4,2,Pin_2*%
%TO.N,VCC*%
X163500000Y-57040000D03*
%TD*%
D12*
%TO.P,J8,1,Pin_1*%
%TO.N,D9*%
X163500000Y-63250000D03*
D13*
%TO.P,J8,2,Pin_2*%
%TO.N,VCC*%
X163500000Y-65790000D03*
%TD*%
D12*
%TO.P,J19,1,Pin_1*%
%TO.N,D21*%
X170250000Y-92275000D03*
D13*
%TO.P,J19,2,Pin_2*%
%TO.N,VCC*%
X170250000Y-89735000D03*
%TD*%
D12*
%TO.P,J13,1,Pin_1*%
%TO.N,D20*%
X150000000Y-80750000D03*
D13*
%TO.P,J13,2,Pin_2*%
%TO.N,VCC*%
X150000000Y-83290000D03*
%TD*%
D12*
%TO.P,J18,1,Pin_1*%
%TO.N,D20*%
X163500000Y-92250000D03*
D13*
%TO.P,J18,2,Pin_2*%
%TO.N,VCC*%
X163500000Y-89710000D03*
%TD*%
D12*
%TO.P,J7,1,Pin_1*%
%TO.N,D8*%
X156750000Y-63250000D03*
D13*
%TO.P,J7,2,Pin_2*%
%TO.N,VCC*%
X156750000Y-65790000D03*
%TD*%
D12*
%TO.P,J14,1,Pin_1*%
%TO.N,D21*%
X156750000Y-80750000D03*
D13*
%TO.P,J14,2,Pin_2*%
%TO.N,VCC*%
X156750000Y-83290000D03*
%TD*%
D12*
%TO.P,J17,1,Pin_1*%
%TO.N,D15*%
X156750000Y-92250000D03*
D13*
%TO.P,J17,2,Pin_2*%
%TO.N,VCC*%
X156750000Y-89710000D03*
%TD*%
D17*
%TO.N,A0*%
X172775000Y-54525000D02*
X170500000Y-54525000D01*
X174169999Y-70169999D02*
X173750000Y-69750000D01*
X173750000Y-69750000D02*
X173750000Y-55500000D01*
X180380000Y-70169999D02*
X174169999Y-70169999D01*
X173750000Y-55500000D02*
X172775000Y-54525000D01*
%TO.N,A1*%
X172065000Y-57065000D02*
X173000000Y-58000000D01*
X173709999Y-72709999D02*
X180380000Y-72709999D01*
X173000000Y-72000000D02*
X173709999Y-72709999D01*
X173000000Y-58000000D02*
X173000000Y-72000000D01*
X170500000Y-57065000D02*
X172065000Y-57065000D01*
%TO.N,VCC*%
X156750000Y-89710000D02*
X150000000Y-89710000D01*
X170250000Y-89735000D02*
X163525000Y-89735000D01*
X143250000Y-74540000D02*
X150000000Y-74540000D01*
X155960000Y-65790000D02*
X154750000Y-67000000D01*
X166855000Y-65790000D02*
X163500000Y-65790000D01*
X154750000Y-67000000D02*
X154750000Y-73250000D01*
X154750000Y-73250000D02*
X156025000Y-74525000D01*
X154750000Y-82000000D02*
X156040000Y-83290000D01*
X143250000Y-65790000D02*
X150000000Y-65790000D01*
X163500000Y-89710000D02*
X156750000Y-89710000D01*
X142500000Y-94500000D02*
X106540000Y-94500000D01*
X156750000Y-74525000D02*
X155725000Y-74525000D01*
X156750000Y-83290000D02*
X150000000Y-83290000D01*
X150000000Y-89710000D02*
X148290000Y-89710000D01*
X150000000Y-57040000D02*
X156750000Y-57040000D01*
X154750000Y-75500000D02*
X154750000Y-82000000D01*
X156750000Y-74525000D02*
X150015000Y-74525000D01*
X163525000Y-89735000D02*
X163500000Y-89710000D01*
X143250000Y-93750000D02*
X142500000Y-94500000D01*
X155725000Y-74525000D02*
X154750000Y-75500000D01*
X156750000Y-65790000D02*
X150000000Y-65790000D01*
X143250000Y-92290000D02*
X143250000Y-93750000D01*
X106540000Y-94500000D02*
X105280000Y-93240000D01*
X143250000Y-57040000D02*
X150000000Y-57040000D01*
X165395000Y-57040000D02*
X170500000Y-62145000D01*
X148290000Y-89710000D02*
X145710000Y-92290000D01*
X156025000Y-74525000D02*
X156750000Y-74525000D01*
X156750000Y-83290000D02*
X156750000Y-89710000D01*
X163500000Y-65790000D02*
X156750000Y-65790000D01*
X143250000Y-83290000D02*
X150000000Y-83290000D01*
X156040000Y-83290000D02*
X156750000Y-83290000D01*
X163500000Y-57040000D02*
X165395000Y-57040000D01*
X170500000Y-62145000D02*
X166855000Y-65790000D01*
X163500000Y-57040000D02*
X156750000Y-57040000D01*
X156750000Y-65790000D02*
X155960000Y-65790000D01*
X145710000Y-92290000D02*
X143250000Y-92290000D01*
X150015000Y-74525000D02*
X150000000Y-74540000D01*
%TD*%
%TA.AperFunction,Conductor*%
%TO.N,GND*%
G36*
X196038228Y-36028002D02*
G01*
X196084721Y-36081658D01*
X196094825Y-36151932D01*
X196065331Y-36216512D01*
X196015260Y-36251631D01*
X195739547Y-36357468D01*
X195736607Y-36358966D01*
X195396147Y-36532439D01*
X195396140Y-36532443D01*
X195393206Y-36533938D01*
X195067207Y-36745643D01*
X194765124Y-36990266D01*
X194490266Y-37265124D01*
X194245643Y-37567207D01*
X194033938Y-37893206D01*
X193857468Y-38239547D01*
X193718167Y-38602438D01*
X193617562Y-38977901D01*
X193556754Y-39361824D01*
X193536411Y-39750000D01*
X193556754Y-40138176D01*
X193617562Y-40522099D01*
X193718167Y-40897562D01*
X193857468Y-41260453D01*
X194033938Y-41606794D01*
X194245643Y-41932793D01*
X194490266Y-42234876D01*
X194765124Y-42509734D01*
X195067207Y-42754357D01*
X195393205Y-42966062D01*
X195396139Y-42967557D01*
X195396146Y-42967561D01*
X195736607Y-43141034D01*
X195739547Y-43142532D01*
X196102438Y-43281833D01*
X196477901Y-43382438D01*
X196681793Y-43414732D01*
X196858576Y-43442732D01*
X196858584Y-43442733D01*
X196861824Y-43443246D01*
X197250000Y-43463589D01*
X197638176Y-43443246D01*
X197641416Y-43442733D01*
X197641424Y-43442732D01*
X197818207Y-43414732D01*
X198022099Y-43382438D01*
X198397562Y-43281833D01*
X198760453Y-43142532D01*
X198763393Y-43141034D01*
X199103854Y-42967561D01*
X199103861Y-42967557D01*
X199106795Y-42966062D01*
X199432793Y-42754357D01*
X199734876Y-42509734D01*
X200009734Y-42234876D01*
X200254357Y-41932793D01*
X200466062Y-41606794D01*
X200642532Y-41260453D01*
X200748369Y-40984739D01*
X200791455Y-40928310D01*
X200858208Y-40904134D01*
X200927436Y-40919885D01*
X200977157Y-40970563D01*
X200992000Y-41029893D01*
X200992000Y-109970107D01*
X200971998Y-110038228D01*
X200918342Y-110084721D01*
X200848068Y-110094825D01*
X200783488Y-110065331D01*
X200748369Y-110015261D01*
X200643716Y-109742632D01*
X200642532Y-109739547D01*
X200466062Y-109393206D01*
X200254357Y-109067207D01*
X200009734Y-108765124D01*
X199734876Y-108490266D01*
X199432793Y-108245643D01*
X199106795Y-108033938D01*
X199103861Y-108032443D01*
X199103854Y-108032439D01*
X198763393Y-107858966D01*
X198760453Y-107857468D01*
X198397562Y-107718167D01*
X198022099Y-107617562D01*
X197818207Y-107585268D01*
X197641424Y-107557268D01*
X197641416Y-107557267D01*
X197638176Y-107556754D01*
X197250000Y-107536411D01*
X196861824Y-107556754D01*
X196858584Y-107557267D01*
X196858576Y-107557268D01*
X196681793Y-107585268D01*
X196477901Y-107617562D01*
X196102438Y-107718167D01*
X195739547Y-107857468D01*
X195736607Y-107858966D01*
X195396147Y-108032439D01*
X195396140Y-108032443D01*
X195393206Y-108033938D01*
X195067207Y-108245643D01*
X194765124Y-108490266D01*
X194490266Y-108765124D01*
X194245643Y-109067207D01*
X194033938Y-109393206D01*
X193857468Y-109739547D01*
X193718167Y-110102438D01*
X193617562Y-110477901D01*
X193556754Y-110861824D01*
X193536411Y-111250000D01*
X193556754Y-111638176D01*
X193617562Y-112022099D01*
X193718167Y-112397562D01*
X193857468Y-112760453D01*
X194033938Y-113106794D01*
X194245643Y-113432793D01*
X194490266Y-113734876D01*
X194765124Y-114009734D01*
X195067207Y-114254357D01*
X195393205Y-114466062D01*
X195396139Y-114467557D01*
X195396146Y-114467561D01*
X195736607Y-114641034D01*
X195739547Y-114642532D01*
X195900238Y-114704216D01*
X196015261Y-114748369D01*
X196071690Y-114791455D01*
X196095866Y-114858208D01*
X196080115Y-114927436D01*
X196029437Y-114977157D01*
X195970107Y-114992000D01*
X107029893Y-114992000D01*
X106961772Y-114971998D01*
X106915279Y-114918342D01*
X106905175Y-114848068D01*
X106934669Y-114783488D01*
X106984739Y-114748369D01*
X107099762Y-114704216D01*
X107260453Y-114642532D01*
X107263393Y-114641034D01*
X107603854Y-114467561D01*
X107603861Y-114467557D01*
X107606795Y-114466062D01*
X107932793Y-114254357D01*
X108234876Y-114009734D01*
X108509734Y-113734876D01*
X108754357Y-113432793D01*
X108966062Y-113106794D01*
X109142532Y-112760453D01*
X109281833Y-112397562D01*
X109382438Y-112022099D01*
X109443246Y-111638176D01*
X109463589Y-111250000D01*
X109443246Y-110861824D01*
X109382438Y-110477901D01*
X109281833Y-110102438D01*
X109142532Y-109739547D01*
X108966062Y-109393206D01*
X108754357Y-109067207D01*
X108509734Y-108765124D01*
X108234876Y-108490266D01*
X107932793Y-108245643D01*
X107606795Y-108033938D01*
X107603861Y-108032443D01*
X107603854Y-108032439D01*
X107263393Y-107858966D01*
X107260453Y-107857468D01*
X106897562Y-107718167D01*
X106522099Y-107617562D01*
X106318207Y-107585268D01*
X106141424Y-107557268D01*
X106141416Y-107557267D01*
X106138176Y-107556754D01*
X105750000Y-107536411D01*
X105361824Y-107556754D01*
X105358584Y-107557267D01*
X105358576Y-107557268D01*
X105181793Y-107585268D01*
X104977901Y-107617562D01*
X104602438Y-107718167D01*
X104239547Y-107857468D01*
X104236607Y-107858966D01*
X103896147Y-108032439D01*
X103896140Y-108032443D01*
X103893206Y-108033938D01*
X103567207Y-108245643D01*
X103265124Y-108490266D01*
X102990266Y-108765124D01*
X102745643Y-109067207D01*
X102533938Y-109393206D01*
X102357468Y-109739547D01*
X102356284Y-109742632D01*
X102251631Y-110015261D01*
X102208545Y-110071690D01*
X102141792Y-110095866D01*
X102072564Y-110080115D01*
X102022843Y-110029437D01*
X102008000Y-109970107D01*
X102008000Y-93240000D01*
X104004647Y-93240000D01*
X104024022Y-93461463D01*
X104048755Y-93553767D01*
X104070120Y-93633500D01*
X104081560Y-93676196D01*
X104083882Y-93681177D01*
X104083883Y-93681178D01*
X104173186Y-93872689D01*
X104173189Y-93872694D01*
X104175512Y-93877676D01*
X104178668Y-93882183D01*
X104178669Y-93882185D01*
X104210851Y-93928145D01*
X104303023Y-94059781D01*
X104460219Y-94216977D01*
X104464727Y-94220134D01*
X104464730Y-94220136D01*
X104487705Y-94236223D01*
X104642323Y-94344488D01*
X104647305Y-94346811D01*
X104647310Y-94346814D01*
X104838822Y-94436117D01*
X104843804Y-94438440D01*
X104849112Y-94439862D01*
X104849114Y-94439863D01*
X104914949Y-94457503D01*
X105058537Y-94495978D01*
X105280000Y-94515353D01*
X105501463Y-94495978D01*
X105506777Y-94494554D01*
X105506783Y-94494553D01*
X105540514Y-94485515D01*
X105611490Y-94487204D01*
X105662221Y-94518126D01*
X106036348Y-94892253D01*
X106043888Y-94900539D01*
X106048000Y-94907018D01*
X106053777Y-94912443D01*
X106097651Y-94953643D01*
X106100493Y-94956398D01*
X106120230Y-94976135D01*
X106123427Y-94978615D01*
X106132447Y-94986318D01*
X106164679Y-95016586D01*
X106171625Y-95020405D01*
X106171628Y-95020407D01*
X106182434Y-95026348D01*
X106198953Y-95037199D01*
X106214959Y-95049614D01*
X106222228Y-95052759D01*
X106222232Y-95052762D01*
X106255537Y-95067174D01*
X106266187Y-95072391D01*
X106304940Y-95093695D01*
X106312615Y-95095666D01*
X106312616Y-95095666D01*
X106324562Y-95098733D01*
X106343267Y-95105137D01*
X106361855Y-95113181D01*
X106369678Y-95114420D01*
X106369688Y-95114423D01*
X106405524Y-95120099D01*
X106417144Y-95122505D01*
X106448959Y-95130673D01*
X106459970Y-95133500D01*
X106480224Y-95133500D01*
X106499934Y-95135051D01*
X106519943Y-95138220D01*
X106527835Y-95137474D01*
X106546580Y-95135702D01*
X106563962Y-95134059D01*
X106575819Y-95133500D01*
X142421233Y-95133500D01*
X142432416Y-95134027D01*
X142439909Y-95135702D01*
X142447835Y-95135453D01*
X142447836Y-95135453D01*
X142507986Y-95133562D01*
X142511945Y-95133500D01*
X142539856Y-95133500D01*
X142543791Y-95133003D01*
X142543856Y-95132995D01*
X142555693Y-95132062D01*
X142587951Y-95131048D01*
X142591970Y-95130922D01*
X142599889Y-95130673D01*
X142619343Y-95125021D01*
X142638700Y-95121013D01*
X142650930Y-95119468D01*
X142650931Y-95119468D01*
X142658797Y-95118474D01*
X142666168Y-95115555D01*
X142666170Y-95115555D01*
X142699912Y-95102196D01*
X142711142Y-95098351D01*
X142745983Y-95088229D01*
X142745984Y-95088229D01*
X142753593Y-95086018D01*
X142760412Y-95081985D01*
X142760417Y-95081983D01*
X142771028Y-95075707D01*
X142788776Y-95067012D01*
X142807617Y-95059552D01*
X142843387Y-95033564D01*
X142853307Y-95027048D01*
X142884535Y-95008580D01*
X142884538Y-95008578D01*
X142891362Y-95004542D01*
X142905683Y-94990221D01*
X142920717Y-94977380D01*
X142930694Y-94970131D01*
X142937107Y-94965472D01*
X142965298Y-94931395D01*
X142973288Y-94922616D01*
X143642247Y-94253657D01*
X143650537Y-94246113D01*
X143657018Y-94242000D01*
X143677550Y-94220136D01*
X143703658Y-94192333D01*
X143706413Y-94189491D01*
X143726134Y-94169770D01*
X143728612Y-94166575D01*
X143736318Y-94157553D01*
X143761158Y-94131101D01*
X143766586Y-94125321D01*
X143776346Y-94107568D01*
X143787199Y-94091045D01*
X143794753Y-94081306D01*
X143799613Y-94075041D01*
X143817176Y-94034457D01*
X143822383Y-94023827D01*
X143843695Y-93985060D01*
X143845666Y-93977383D01*
X143845668Y-93977378D01*
X143848732Y-93965442D01*
X143855138Y-93946730D01*
X143860033Y-93935419D01*
X143863181Y-93928145D01*
X143864421Y-93920317D01*
X143864423Y-93920310D01*
X143870099Y-93884476D01*
X143872505Y-93872856D01*
X143881528Y-93837711D01*
X143881528Y-93837710D01*
X143883500Y-93830030D01*
X143883500Y-93809776D01*
X143885051Y-93790065D01*
X143886980Y-93777886D01*
X143888220Y-93770057D01*
X143884059Y-93726038D01*
X143883500Y-93714181D01*
X143883500Y-93570427D01*
X143903502Y-93502306D01*
X143944618Y-93462550D01*
X143947994Y-93460896D01*
X144129860Y-93331173D01*
X144288096Y-93173489D01*
X144347594Y-93090689D01*
X144415435Y-92996277D01*
X144418453Y-92992077D01*
X144420746Y-92987437D01*
X144422446Y-92984608D01*
X144474674Y-92936518D01*
X144530451Y-92923500D01*
X145631233Y-92923500D01*
X145642416Y-92924027D01*
X145649909Y-92925702D01*
X145657835Y-92925453D01*
X145657836Y-92925453D01*
X145717986Y-92923562D01*
X145721945Y-92923500D01*
X145749856Y-92923500D01*
X145753791Y-92923003D01*
X145753856Y-92922995D01*
X145765693Y-92922062D01*
X145797951Y-92921048D01*
X145801970Y-92920922D01*
X145809889Y-92920673D01*
X145829343Y-92915021D01*
X145848700Y-92911013D01*
X145860930Y-92909468D01*
X145860931Y-92909468D01*
X145868797Y-92908474D01*
X145876168Y-92905555D01*
X145876170Y-92905555D01*
X145909912Y-92892196D01*
X145921142Y-92888351D01*
X145955983Y-92878229D01*
X145955984Y-92878229D01*
X145963593Y-92876018D01*
X145970412Y-92871985D01*
X145970417Y-92871983D01*
X145981028Y-92865707D01*
X145998776Y-92857012D01*
X146017617Y-92849552D01*
X146053387Y-92823564D01*
X146063307Y-92817048D01*
X146094535Y-92798580D01*
X146094538Y-92798578D01*
X146101362Y-92794542D01*
X146115683Y-92780221D01*
X146130717Y-92767380D01*
X146140694Y-92760131D01*
X146147107Y-92755472D01*
X146175298Y-92721395D01*
X146183288Y-92712616D01*
X148515500Y-90380405D01*
X148577812Y-90346379D01*
X148604595Y-90343500D01*
X148724274Y-90343500D01*
X148792395Y-90363502D01*
X148831707Y-90403665D01*
X148899987Y-90515088D01*
X149046250Y-90683938D01*
X149050230Y-90687242D01*
X149054981Y-90691187D01*
X149094616Y-90750090D01*
X149096113Y-90821071D01*
X149058997Y-90881593D01*
X149018725Y-90906112D01*
X148963831Y-90926691D01*
X148903295Y-90949385D01*
X148786739Y-91036739D01*
X148699385Y-91153295D01*
X148648255Y-91289684D01*
X148641500Y-91351866D01*
X148641500Y-93148134D01*
X148648255Y-93210316D01*
X148699385Y-93346705D01*
X148786739Y-93463261D01*
X148903295Y-93550615D01*
X149039684Y-93601745D01*
X149101866Y-93608500D01*
X150898134Y-93608500D01*
X150960316Y-93601745D01*
X151096705Y-93550615D01*
X151213261Y-93463261D01*
X151300615Y-93346705D01*
X151351745Y-93210316D01*
X151358500Y-93148134D01*
X151358500Y-91351866D01*
X151351745Y-91289684D01*
X151300615Y-91153295D01*
X151213261Y-91036739D01*
X151096705Y-90949385D01*
X151044889Y-90929960D01*
X150978203Y-90904960D01*
X150921439Y-90862318D01*
X150896739Y-90795756D01*
X150911947Y-90726408D01*
X150933493Y-90697727D01*
X151038096Y-90593489D01*
X151073665Y-90543990D01*
X151165435Y-90416277D01*
X151168453Y-90412077D01*
X151170746Y-90407437D01*
X151172446Y-90404608D01*
X151224674Y-90356518D01*
X151280451Y-90343500D01*
X155474274Y-90343500D01*
X155542395Y-90363502D01*
X155581707Y-90403665D01*
X155649987Y-90515088D01*
X155796250Y-90683938D01*
X155800230Y-90687242D01*
X155804981Y-90691187D01*
X155844616Y-90750090D01*
X155846113Y-90821071D01*
X155808997Y-90881593D01*
X155768725Y-90906112D01*
X155713831Y-90926691D01*
X155653295Y-90949385D01*
X155536739Y-91036739D01*
X155449385Y-91153295D01*
X155398255Y-91289684D01*
X155391500Y-91351866D01*
X155391500Y-93148134D01*
X155398255Y-93210316D01*
X155449385Y-93346705D01*
X155536739Y-93463261D01*
X155653295Y-93550615D01*
X155789684Y-93601745D01*
X155851866Y-93608500D01*
X157648134Y-93608500D01*
X157710316Y-93601745D01*
X157846705Y-93550615D01*
X157963261Y-93463261D01*
X158050615Y-93346705D01*
X158101745Y-93210316D01*
X158108500Y-93148134D01*
X158108500Y-91351866D01*
X158101745Y-91289684D01*
X158050615Y-91153295D01*
X157963261Y-91036739D01*
X157846705Y-90949385D01*
X157794889Y-90929960D01*
X157728203Y-90904960D01*
X157671439Y-90862318D01*
X157646739Y-90795756D01*
X157661947Y-90726408D01*
X157683493Y-90697727D01*
X157788096Y-90593489D01*
X157823665Y-90543990D01*
X157915435Y-90416277D01*
X157918453Y-90412077D01*
X157920746Y-90407437D01*
X157922446Y-90404608D01*
X157974674Y-90356518D01*
X158030451Y-90343500D01*
X162224274Y-90343500D01*
X162292395Y-90363502D01*
X162331707Y-90403665D01*
X162399987Y-90515088D01*
X162546250Y-90683938D01*
X162550230Y-90687242D01*
X162554981Y-90691187D01*
X162594616Y-90750090D01*
X162596113Y-90821071D01*
X162558997Y-90881593D01*
X162518725Y-90906112D01*
X162463831Y-90926691D01*
X162403295Y-90949385D01*
X162286739Y-91036739D01*
X162199385Y-91153295D01*
X162148255Y-91289684D01*
X162141500Y-91351866D01*
X162141500Y-93148134D01*
X162148255Y-93210316D01*
X162199385Y-93346705D01*
X162286739Y-93463261D01*
X162403295Y-93550615D01*
X162539684Y-93601745D01*
X162601866Y-93608500D01*
X164398134Y-93608500D01*
X164460316Y-93601745D01*
X164596705Y-93550615D01*
X164713261Y-93463261D01*
X164800615Y-93346705D01*
X164851745Y-93210316D01*
X164858500Y-93148134D01*
X164858500Y-91351866D01*
X164851745Y-91289684D01*
X164800615Y-91153295D01*
X164713261Y-91036739D01*
X164596705Y-90949385D01*
X164544889Y-90929960D01*
X164478203Y-90904960D01*
X164421439Y-90862318D01*
X164396739Y-90795756D01*
X164411947Y-90726408D01*
X164433493Y-90697727D01*
X164538096Y-90593489D01*
X164573665Y-90543990D01*
X164662060Y-90420974D01*
X164718055Y-90377326D01*
X164764383Y-90368500D01*
X168974274Y-90368500D01*
X169042395Y-90388502D01*
X169081707Y-90428665D01*
X169149987Y-90540088D01*
X169296250Y-90708938D01*
X169300230Y-90712242D01*
X169304981Y-90716187D01*
X169344616Y-90775090D01*
X169346113Y-90846071D01*
X169308997Y-90906593D01*
X169268724Y-90931112D01*
X169153295Y-90974385D01*
X169036739Y-91061739D01*
X168949385Y-91178295D01*
X168898255Y-91314684D01*
X168891500Y-91376866D01*
X168891500Y-93173134D01*
X168898255Y-93235316D01*
X168949385Y-93371705D01*
X169036739Y-93488261D01*
X169153295Y-93575615D01*
X169289684Y-93626745D01*
X169351866Y-93633500D01*
X171148134Y-93633500D01*
X171210316Y-93626745D01*
X171346705Y-93575615D01*
X171463261Y-93488261D01*
X171550615Y-93371705D01*
X171601745Y-93235316D01*
X171608500Y-93173134D01*
X171608500Y-91376866D01*
X171601745Y-91314684D01*
X171550615Y-91178295D01*
X171463261Y-91061739D01*
X171346705Y-90974385D01*
X171317032Y-90963261D01*
X171228203Y-90929960D01*
X171171439Y-90887318D01*
X171146739Y-90820756D01*
X171161947Y-90751408D01*
X171183493Y-90722727D01*
X171194015Y-90712242D01*
X171288096Y-90618489D01*
X171418453Y-90437077D01*
X171422611Y-90428665D01*
X171515136Y-90241453D01*
X171515137Y-90241451D01*
X171517430Y-90236811D01*
X171568853Y-90067559D01*
X171580865Y-90028023D01*
X171580865Y-90028021D01*
X171582370Y-90023069D01*
X171611529Y-89801590D01*
X171613156Y-89735000D01*
X171594852Y-89512361D01*
X171540431Y-89295702D01*
X171451354Y-89090840D01*
X171404840Y-89018940D01*
X171332822Y-88907617D01*
X171332820Y-88907614D01*
X171330014Y-88903277D01*
X171179670Y-88738051D01*
X171175619Y-88734852D01*
X171175615Y-88734848D01*
X171008414Y-88602800D01*
X171008410Y-88602798D01*
X171004359Y-88599598D01*
X170998197Y-88596196D01*
X170926299Y-88556507D01*
X170808789Y-88491638D01*
X170803920Y-88489914D01*
X170803916Y-88489912D01*
X170603087Y-88418795D01*
X170603083Y-88418794D01*
X170598212Y-88417069D01*
X170593119Y-88416162D01*
X170593116Y-88416161D01*
X170383373Y-88378800D01*
X170383367Y-88378799D01*
X170378284Y-88377894D01*
X170304452Y-88376992D01*
X170160081Y-88375228D01*
X170160079Y-88375228D01*
X170154911Y-88375165D01*
X169934091Y-88408955D01*
X169721756Y-88478357D01*
X169523607Y-88581507D01*
X169519474Y-88584610D01*
X169519471Y-88584612D01*
X169349100Y-88712530D01*
X169344965Y-88715635D01*
X169341393Y-88719373D01*
X169214520Y-88852138D01*
X169190629Y-88877138D01*
X169187715Y-88881410D01*
X169187714Y-88881411D01*
X169075095Y-89046504D01*
X169020184Y-89091507D01*
X168971007Y-89101500D01*
X164792978Y-89101500D01*
X164724857Y-89081498D01*
X164687186Y-89043940D01*
X164682490Y-89036680D01*
X164580014Y-88878277D01*
X164429670Y-88713051D01*
X164425619Y-88709852D01*
X164425615Y-88709848D01*
X164258414Y-88577800D01*
X164258410Y-88577798D01*
X164254359Y-88574598D01*
X164249831Y-88572098D01*
X164185777Y-88536739D01*
X164058789Y-88466638D01*
X164053920Y-88464914D01*
X164053916Y-88464912D01*
X163853087Y-88393795D01*
X163853083Y-88393794D01*
X163848212Y-88392069D01*
X163843119Y-88391162D01*
X163843116Y-88391161D01*
X163633373Y-88353800D01*
X163633367Y-88353799D01*
X163628284Y-88352894D01*
X163554452Y-88351992D01*
X163410081Y-88350228D01*
X163410079Y-88350228D01*
X163404911Y-88350165D01*
X163184091Y-88383955D01*
X162971756Y-88453357D01*
X162941443Y-88469137D01*
X162797975Y-88543822D01*
X162773607Y-88556507D01*
X162769474Y-88559610D01*
X162769471Y-88559612D01*
X162599100Y-88687530D01*
X162594965Y-88690635D01*
X162440629Y-88852138D01*
X162437715Y-88856410D01*
X162437714Y-88856411D01*
X162325095Y-89021504D01*
X162270184Y-89066507D01*
X162221007Y-89076500D01*
X158026805Y-89076500D01*
X157958684Y-89056498D01*
X157921013Y-89018940D01*
X157832822Y-88882617D01*
X157832820Y-88882614D01*
X157830014Y-88878277D01*
X157679670Y-88713051D01*
X157675619Y-88709852D01*
X157675615Y-88709848D01*
X157508414Y-88577800D01*
X157508410Y-88577798D01*
X157504359Y-88574598D01*
X157499835Y-88572101D01*
X157499831Y-88572098D01*
X157448608Y-88543822D01*
X157398636Y-88493390D01*
X157383500Y-88433513D01*
X157383500Y-87949999D01*
X179066502Y-87949999D01*
X179086457Y-88178086D01*
X179087881Y-88183399D01*
X179087881Y-88183401D01*
X179143642Y-88391500D01*
X179145716Y-88399242D01*
X179148039Y-88404223D01*
X179148039Y-88404224D01*
X179240151Y-88601761D01*
X179240154Y-88601766D01*
X179242477Y-88606748D01*
X179303833Y-88694373D01*
X179370571Y-88789684D01*
X179373802Y-88794299D01*
X179535700Y-88956197D01*
X179540208Y-88959354D01*
X179540211Y-88959356D01*
X179562939Y-88975270D01*
X179723251Y-89087522D01*
X179728233Y-89089845D01*
X179728238Y-89089848D01*
X179913929Y-89176436D01*
X179930757Y-89184283D01*
X179936065Y-89185705D01*
X179936067Y-89185706D01*
X180146598Y-89242118D01*
X180146600Y-89242118D01*
X180151913Y-89243542D01*
X180380000Y-89263497D01*
X180608087Y-89243542D01*
X180613400Y-89242118D01*
X180613402Y-89242118D01*
X180823933Y-89185706D01*
X180823935Y-89185705D01*
X180829243Y-89184283D01*
X180846071Y-89176436D01*
X181031762Y-89089848D01*
X181031767Y-89089845D01*
X181036749Y-89087522D01*
X181197061Y-88975270D01*
X181219789Y-88959356D01*
X181219792Y-88959354D01*
X181224300Y-88956197D01*
X181386198Y-88794299D01*
X181389430Y-88789684D01*
X181456167Y-88694373D01*
X181517523Y-88606748D01*
X181519846Y-88601766D01*
X181519849Y-88601761D01*
X181611961Y-88404224D01*
X181611961Y-88404223D01*
X181614284Y-88399242D01*
X181616359Y-88391500D01*
X181672119Y-88183401D01*
X181672119Y-88183399D01*
X181673543Y-88178086D01*
X181693498Y-87949999D01*
X181673543Y-87721912D01*
X181672119Y-87716597D01*
X181615707Y-87506066D01*
X181615706Y-87506064D01*
X181614284Y-87500756D01*
X181611961Y-87495774D01*
X181519849Y-87298237D01*
X181519846Y-87298232D01*
X181517523Y-87293250D01*
X181386198Y-87105699D01*
X181224300Y-86943801D01*
X181219792Y-86940644D01*
X181219789Y-86940642D01*
X181127439Y-86875978D01*
X181036749Y-86812476D01*
X181031767Y-86810153D01*
X181031762Y-86810150D01*
X180996951Y-86793918D01*
X180943666Y-86747001D01*
X180924205Y-86678724D01*
X180944747Y-86610764D01*
X180996951Y-86565528D01*
X181031511Y-86549413D01*
X181041006Y-86543930D01*
X181093048Y-86507490D01*
X181101424Y-86497011D01*
X181094356Y-86483565D01*
X180392812Y-85782021D01*
X180378868Y-85774407D01*
X180377035Y-85774538D01*
X180370420Y-85778789D01*
X179664923Y-86484286D01*
X179658493Y-86496061D01*
X179667789Y-86508076D01*
X179718994Y-86543930D01*
X179728489Y-86549413D01*
X179763049Y-86565528D01*
X179816334Y-86612445D01*
X179835795Y-86680722D01*
X179815253Y-86748682D01*
X179763049Y-86793918D01*
X179728238Y-86810150D01*
X179728233Y-86810153D01*
X179723251Y-86812476D01*
X179632561Y-86875978D01*
X179540211Y-86940642D01*
X179540208Y-86940644D01*
X179535700Y-86943801D01*
X179373802Y-87105699D01*
X179242477Y-87293250D01*
X179240154Y-87298232D01*
X179240151Y-87298237D01*
X179148039Y-87495774D01*
X179145716Y-87500756D01*
X179144294Y-87506064D01*
X179144293Y-87506066D01*
X179087881Y-87716597D01*
X179086457Y-87721912D01*
X179066502Y-87949999D01*
X157383500Y-87949999D01*
X157383500Y-85415474D01*
X179067483Y-85415474D01*
X179086472Y-85632518D01*
X179088375Y-85643311D01*
X179144764Y-85853760D01*
X179148510Y-85864052D01*
X179240586Y-86061510D01*
X179246069Y-86071005D01*
X179282509Y-86123047D01*
X179292988Y-86131423D01*
X179306434Y-86124355D01*
X180007978Y-85422811D01*
X180014356Y-85411131D01*
X180744408Y-85411131D01*
X180744539Y-85412964D01*
X180748790Y-85419579D01*
X181454287Y-86125076D01*
X181466062Y-86131506D01*
X181478077Y-86122210D01*
X181513931Y-86071005D01*
X181519414Y-86061510D01*
X181611490Y-85864052D01*
X181615236Y-85853760D01*
X181671625Y-85643311D01*
X181673528Y-85632518D01*
X181692517Y-85415474D01*
X181692517Y-85409999D01*
X194306502Y-85409999D01*
X194326457Y-85638086D01*
X194327881Y-85643399D01*
X194327881Y-85643401D01*
X194365025Y-85782021D01*
X194385716Y-85859242D01*
X194388039Y-85864223D01*
X194388039Y-85864224D01*
X194480151Y-86061761D01*
X194480154Y-86061766D01*
X194482477Y-86066748D01*
X194613802Y-86254299D01*
X194775700Y-86416197D01*
X194780211Y-86419356D01*
X194784424Y-86422891D01*
X194783473Y-86424025D01*
X194823471Y-86474070D01*
X194830776Y-86544689D01*
X194798742Y-86608048D01*
X194737538Y-86644029D01*
X194720483Y-86647081D01*
X194709684Y-86648254D01*
X194573295Y-86699384D01*
X194456739Y-86786738D01*
X194369385Y-86903294D01*
X194318255Y-87039683D01*
X194311500Y-87101865D01*
X194311500Y-88798133D01*
X194318255Y-88860315D01*
X194369385Y-88996704D01*
X194456739Y-89113260D01*
X194573295Y-89200614D01*
X194709684Y-89251744D01*
X194771866Y-89258499D01*
X196468134Y-89258499D01*
X196530316Y-89251744D01*
X196666705Y-89200614D01*
X196783261Y-89113260D01*
X196870615Y-88996704D01*
X196921745Y-88860315D01*
X196928500Y-88798133D01*
X196928500Y-87101865D01*
X196921745Y-87039683D01*
X196870615Y-86903294D01*
X196783261Y-86786738D01*
X196666705Y-86699384D01*
X196530316Y-86648254D01*
X196519526Y-86647082D01*
X196517394Y-86646196D01*
X196514778Y-86645574D01*
X196514879Y-86645151D01*
X196453965Y-86619844D01*
X196413537Y-86561482D01*
X196411078Y-86490528D01*
X196447371Y-86429509D01*
X196456031Y-86422510D01*
X196459793Y-86419353D01*
X196464300Y-86416197D01*
X196626198Y-86254299D01*
X196757523Y-86066748D01*
X196759846Y-86061766D01*
X196759849Y-86061761D01*
X196851961Y-85864224D01*
X196851961Y-85864223D01*
X196854284Y-85859242D01*
X196874976Y-85782021D01*
X196912119Y-85643401D01*
X196912119Y-85643399D01*
X196913543Y-85638086D01*
X196933498Y-85409999D01*
X196913543Y-85181912D01*
X196876981Y-85045460D01*
X196855707Y-84966066D01*
X196855706Y-84966064D01*
X196854284Y-84960756D01*
X196851961Y-84955774D01*
X196759849Y-84758237D01*
X196759846Y-84758232D01*
X196757523Y-84753250D01*
X196667296Y-84624393D01*
X196629357Y-84570210D01*
X196629355Y-84570207D01*
X196626198Y-84565699D01*
X196464300Y-84403801D01*
X196459792Y-84400644D01*
X196459789Y-84400642D01*
X196360577Y-84331173D01*
X196276749Y-84272476D01*
X196271767Y-84270153D01*
X196271762Y-84270150D01*
X196236951Y-84253918D01*
X196183666Y-84207001D01*
X196164205Y-84138724D01*
X196184747Y-84070764D01*
X196236951Y-84025528D01*
X196271511Y-84009413D01*
X196281006Y-84003930D01*
X196333048Y-83967490D01*
X196341424Y-83957011D01*
X196334356Y-83943565D01*
X195632812Y-83242021D01*
X195618868Y-83234407D01*
X195617035Y-83234538D01*
X195610420Y-83238789D01*
X194904923Y-83944286D01*
X194898493Y-83956061D01*
X194907789Y-83968076D01*
X194958994Y-84003930D01*
X194968489Y-84009413D01*
X195003049Y-84025528D01*
X195056334Y-84072445D01*
X195075795Y-84140722D01*
X195055253Y-84208682D01*
X195003049Y-84253918D01*
X194968238Y-84270150D01*
X194968233Y-84270153D01*
X194963251Y-84272476D01*
X194879423Y-84331173D01*
X194780211Y-84400642D01*
X194780208Y-84400644D01*
X194775700Y-84403801D01*
X194613802Y-84565699D01*
X194610645Y-84570207D01*
X194610643Y-84570210D01*
X194572704Y-84624393D01*
X194482477Y-84753250D01*
X194480154Y-84758232D01*
X194480151Y-84758237D01*
X194388039Y-84955774D01*
X194385716Y-84960756D01*
X194384294Y-84966064D01*
X194384293Y-84966066D01*
X194363019Y-85045460D01*
X194326457Y-85181912D01*
X194306502Y-85409999D01*
X181692517Y-85409999D01*
X181692517Y-85404524D01*
X181673528Y-85187480D01*
X181671625Y-85176687D01*
X181615236Y-84966238D01*
X181611490Y-84955946D01*
X181519414Y-84758488D01*
X181513931Y-84748993D01*
X181477491Y-84696951D01*
X181467012Y-84688575D01*
X181453566Y-84695643D01*
X180752022Y-85397187D01*
X180744408Y-85411131D01*
X180014356Y-85411131D01*
X180015592Y-85408867D01*
X180015461Y-85407034D01*
X180011210Y-85400419D01*
X179305713Y-84694922D01*
X179293938Y-84688492D01*
X179281923Y-84697788D01*
X179246069Y-84748993D01*
X179240586Y-84758488D01*
X179148510Y-84955946D01*
X179144764Y-84966238D01*
X179088375Y-85176687D01*
X179086472Y-85187480D01*
X179067483Y-85404524D01*
X179067483Y-85415474D01*
X157383500Y-85415474D01*
X157383500Y-84570427D01*
X157403502Y-84502306D01*
X157444618Y-84462550D01*
X157447994Y-84460896D01*
X157629860Y-84331173D01*
X157637122Y-84323937D01*
X157778053Y-84183497D01*
X157788096Y-84173489D01*
X157812681Y-84139276D01*
X157915435Y-83996277D01*
X157918453Y-83992077D01*
X157922145Y-83984608D01*
X158015136Y-83796453D01*
X158015137Y-83796451D01*
X158017430Y-83791811D01*
X158082370Y-83578069D01*
X158085017Y-83557966D01*
X168918257Y-83557966D01*
X168948565Y-83692446D01*
X168951645Y-83702275D01*
X169031770Y-83899603D01*
X169036413Y-83908794D01*
X169147694Y-84090388D01*
X169153777Y-84098699D01*
X169293213Y-84259667D01*
X169300580Y-84266883D01*
X169464434Y-84402916D01*
X169472881Y-84408831D01*
X169656756Y-84516279D01*
X169666042Y-84520729D01*
X169865001Y-84596703D01*
X169874899Y-84599579D01*
X169978250Y-84620606D01*
X169992299Y-84619410D01*
X169996000Y-84609065D01*
X169996000Y-84608517D01*
X170504000Y-84608517D01*
X170508064Y-84622359D01*
X170521478Y-84624393D01*
X170528184Y-84623534D01*
X170538262Y-84621392D01*
X170742255Y-84560191D01*
X170751842Y-84556433D01*
X170943095Y-84462739D01*
X170951945Y-84457464D01*
X171125328Y-84333792D01*
X171133200Y-84327139D01*
X171284052Y-84176812D01*
X171290730Y-84168965D01*
X171415003Y-83996020D01*
X171420313Y-83987183D01*
X171514670Y-83796267D01*
X171518469Y-83786672D01*
X171580377Y-83582910D01*
X171582555Y-83572837D01*
X171583986Y-83561962D01*
X171581775Y-83547778D01*
X171568617Y-83544000D01*
X170522115Y-83544000D01*
X170506876Y-83548475D01*
X170505671Y-83549865D01*
X170504000Y-83557548D01*
X170504000Y-84608517D01*
X169996000Y-84608517D01*
X169996000Y-83562115D01*
X169991525Y-83546876D01*
X169990135Y-83545671D01*
X169982452Y-83544000D01*
X168933225Y-83544000D01*
X168919694Y-83547973D01*
X168918257Y-83557966D01*
X158085017Y-83557966D01*
X158111529Y-83356590D01*
X158112571Y-83313932D01*
X158113074Y-83293365D01*
X158113074Y-83293361D01*
X158113156Y-83290000D01*
X158094852Y-83067361D01*
X158040431Y-82850702D01*
X157951354Y-82645840D01*
X157830014Y-82458277D01*
X157810405Y-82436727D01*
X157682798Y-82296488D01*
X157651746Y-82232642D01*
X157660141Y-82162143D01*
X157705317Y-82107375D01*
X157731761Y-82093706D01*
X157838297Y-82053767D01*
X157846705Y-82050615D01*
X157963261Y-81963261D01*
X158050615Y-81846705D01*
X158101745Y-81710316D01*
X158108500Y-81648134D01*
X168891500Y-81648134D01*
X168898255Y-81710316D01*
X168949385Y-81846705D01*
X169036739Y-81963261D01*
X169153295Y-82050615D01*
X169161704Y-82053767D01*
X169161705Y-82053768D01*
X169270960Y-82094726D01*
X169327725Y-82137367D01*
X169352425Y-82203929D01*
X169337218Y-82273278D01*
X169317825Y-82299759D01*
X169194590Y-82428717D01*
X169188104Y-82436727D01*
X169068098Y-82612649D01*
X169063000Y-82621623D01*
X168973338Y-82814783D01*
X168969775Y-82824470D01*
X168914389Y-83024183D01*
X168915912Y-83032607D01*
X168928292Y-83036000D01*
X171568344Y-83036000D01*
X171581875Y-83032027D01*
X171583180Y-83022947D01*
X171541214Y-82855875D01*
X171537894Y-82846124D01*
X171452972Y-82650814D01*
X171448105Y-82641739D01*
X171332426Y-82462926D01*
X171326136Y-82454757D01*
X171182293Y-82296677D01*
X171151241Y-82232831D01*
X171159635Y-82162333D01*
X171204812Y-82107564D01*
X171231256Y-82093895D01*
X171338297Y-82053767D01*
X171346705Y-82050615D01*
X171463261Y-81963261D01*
X171550615Y-81846705D01*
X171601745Y-81710316D01*
X171608500Y-81648134D01*
X171608500Y-79851866D01*
X171601745Y-79789684D01*
X171550615Y-79653295D01*
X171463261Y-79536739D01*
X171346705Y-79449385D01*
X171210316Y-79398255D01*
X171148134Y-79391500D01*
X169351866Y-79391500D01*
X169289684Y-79398255D01*
X169153295Y-79449385D01*
X169036739Y-79536739D01*
X168949385Y-79653295D01*
X168898255Y-79789684D01*
X168891500Y-79851866D01*
X168891500Y-81648134D01*
X158108500Y-81648134D01*
X158108500Y-79851866D01*
X158101745Y-79789684D01*
X158050615Y-79653295D01*
X157963261Y-79536739D01*
X157846705Y-79449385D01*
X157710316Y-79398255D01*
X157648134Y-79391500D01*
X155851866Y-79391500D01*
X155789684Y-79398255D01*
X155653295Y-79449385D01*
X155585064Y-79500521D01*
X155518559Y-79525369D01*
X155449177Y-79510316D01*
X155398946Y-79460142D01*
X155383500Y-79399695D01*
X155383500Y-75814594D01*
X155403502Y-75746473D01*
X155420405Y-75725499D01*
X155633471Y-75512433D01*
X155695783Y-75478407D01*
X155766598Y-75483472D01*
X155803050Y-75504583D01*
X155968126Y-75641632D01*
X156161000Y-75754338D01*
X156165825Y-75756180D01*
X156165826Y-75756181D01*
X156193454Y-75766731D01*
X156369692Y-75834030D01*
X156374760Y-75835061D01*
X156374763Y-75835062D01*
X156448491Y-75850062D01*
X156588597Y-75878567D01*
X156593772Y-75878757D01*
X156593774Y-75878757D01*
X156806673Y-75886564D01*
X156806677Y-75886564D01*
X156811837Y-75886753D01*
X156816957Y-75886097D01*
X156816959Y-75886097D01*
X157028288Y-75859025D01*
X157028289Y-75859025D01*
X157033416Y-75858368D01*
X157038366Y-75856883D01*
X157242429Y-75795661D01*
X157242434Y-75795659D01*
X157247384Y-75794174D01*
X157447994Y-75695896D01*
X157629860Y-75566173D01*
X157788096Y-75408489D01*
X157850349Y-75321855D01*
X157915435Y-75231277D01*
X157918453Y-75227077D01*
X157938499Y-75186518D01*
X158015136Y-75031453D01*
X158015137Y-75031451D01*
X158017430Y-75026811D01*
X158082370Y-74813069D01*
X158111529Y-74591590D01*
X158113156Y-74525000D01*
X158094852Y-74302361D01*
X158040431Y-74085702D01*
X157951354Y-73880840D01*
X157857181Y-73735270D01*
X157832822Y-73697617D01*
X157832820Y-73697614D01*
X157830014Y-73693277D01*
X157824400Y-73687107D01*
X157682798Y-73531488D01*
X157651746Y-73467642D01*
X157660141Y-73397143D01*
X157705317Y-73342375D01*
X157731761Y-73328706D01*
X157838297Y-73288767D01*
X157846705Y-73285615D01*
X157963261Y-73198261D01*
X158050615Y-73081705D01*
X158101745Y-72945316D01*
X158108500Y-72883134D01*
X158108500Y-71086866D01*
X158101745Y-71024684D01*
X158050615Y-70888295D01*
X157963261Y-70771739D01*
X157846705Y-70684385D01*
X157710316Y-70633255D01*
X157648134Y-70626500D01*
X155851866Y-70626500D01*
X155789684Y-70633255D01*
X155653295Y-70684385D01*
X155585064Y-70735521D01*
X155518559Y-70760369D01*
X155449177Y-70745316D01*
X155398946Y-70695142D01*
X155383500Y-70634695D01*
X155383500Y-67314594D01*
X155403502Y-67246473D01*
X155420405Y-67225499D01*
X155761871Y-66884033D01*
X155824183Y-66850007D01*
X155894998Y-66855072D01*
X155931450Y-66876183D01*
X155968126Y-66906632D01*
X156161000Y-67019338D01*
X156165825Y-67021180D01*
X156165826Y-67021181D01*
X156204159Y-67035819D01*
X156369692Y-67099030D01*
X156374760Y-67100061D01*
X156374763Y-67100062D01*
X156482017Y-67121883D01*
X156588597Y-67143567D01*
X156593772Y-67143757D01*
X156593774Y-67143757D01*
X156806673Y-67151564D01*
X156806677Y-67151564D01*
X156811837Y-67151753D01*
X156816957Y-67151097D01*
X156816959Y-67151097D01*
X157028288Y-67124025D01*
X157028289Y-67124025D01*
X157033416Y-67123368D01*
X157038366Y-67121883D01*
X157242429Y-67060661D01*
X157242434Y-67060659D01*
X157247384Y-67059174D01*
X157447994Y-66960896D01*
X157629860Y-66831173D01*
X157670967Y-66790210D01*
X157745901Y-66715537D01*
X157788096Y-66673489D01*
X157847594Y-66590689D01*
X157915435Y-66496277D01*
X157918453Y-66492077D01*
X157920746Y-66487437D01*
X157922446Y-66484608D01*
X157974674Y-66436518D01*
X158030451Y-66423500D01*
X162224274Y-66423500D01*
X162292395Y-66443502D01*
X162331707Y-66483665D01*
X162399987Y-66595088D01*
X162546250Y-66763938D01*
X162718126Y-66906632D01*
X162911000Y-67019338D01*
X162915825Y-67021180D01*
X162915826Y-67021181D01*
X162954159Y-67035819D01*
X163119692Y-67099030D01*
X163124760Y-67100061D01*
X163124763Y-67100062D01*
X163232017Y-67121883D01*
X163338597Y-67143567D01*
X163343772Y-67143757D01*
X163343774Y-67143757D01*
X163556673Y-67151564D01*
X163556677Y-67151564D01*
X163561837Y-67151753D01*
X163566957Y-67151097D01*
X163566959Y-67151097D01*
X163778288Y-67124025D01*
X163778289Y-67124025D01*
X163783416Y-67123368D01*
X163788366Y-67121883D01*
X163992429Y-67060661D01*
X163992434Y-67060659D01*
X163997384Y-67059174D01*
X164197994Y-66960896D01*
X164379860Y-66831173D01*
X164420967Y-66790210D01*
X164495901Y-66715537D01*
X164538096Y-66673489D01*
X164597594Y-66590689D01*
X164665435Y-66496277D01*
X164668453Y-66492077D01*
X164670746Y-66487437D01*
X164672446Y-66484608D01*
X164724674Y-66436518D01*
X164780451Y-66423500D01*
X166776233Y-66423500D01*
X166787416Y-66424027D01*
X166794909Y-66425702D01*
X166802835Y-66425453D01*
X166802836Y-66425453D01*
X166862986Y-66423562D01*
X166866945Y-66423500D01*
X166894856Y-66423500D01*
X166898791Y-66423003D01*
X166898856Y-66422995D01*
X166910693Y-66422062D01*
X166942951Y-66421048D01*
X166946970Y-66420922D01*
X166954889Y-66420673D01*
X166974343Y-66415021D01*
X166993700Y-66411013D01*
X167005930Y-66409468D01*
X167005931Y-66409468D01*
X167013797Y-66408474D01*
X167021168Y-66405555D01*
X167021170Y-66405555D01*
X167054912Y-66392196D01*
X167066142Y-66388351D01*
X167100983Y-66378229D01*
X167100984Y-66378229D01*
X167108593Y-66376018D01*
X167115412Y-66371985D01*
X167115417Y-66371983D01*
X167126028Y-66365707D01*
X167143776Y-66357012D01*
X167162617Y-66349552D01*
X167198387Y-66323564D01*
X167208307Y-66317048D01*
X167239535Y-66298580D01*
X167239538Y-66298578D01*
X167246362Y-66294542D01*
X167260683Y-66280221D01*
X167275717Y-66267380D01*
X167285694Y-66260131D01*
X167292107Y-66255472D01*
X167320298Y-66221395D01*
X167328288Y-66212616D01*
X170044549Y-63496355D01*
X170106861Y-63462329D01*
X170158762Y-63461979D01*
X170338597Y-63498567D01*
X170343772Y-63498757D01*
X170343774Y-63498757D01*
X170556673Y-63506564D01*
X170556677Y-63506564D01*
X170561837Y-63506753D01*
X170566957Y-63506097D01*
X170566959Y-63506097D01*
X170778288Y-63479025D01*
X170778289Y-63479025D01*
X170783416Y-63478368D01*
X170788366Y-63476883D01*
X170992429Y-63415661D01*
X170992434Y-63415659D01*
X170997384Y-63414174D01*
X171197994Y-63315896D01*
X171379860Y-63186173D01*
X171538096Y-63028489D01*
X171571888Y-62981463D01*
X171665435Y-62851277D01*
X171668453Y-62847077D01*
X171699924Y-62783401D01*
X171765136Y-62651453D01*
X171765137Y-62651451D01*
X171767430Y-62646811D01*
X171832370Y-62433069D01*
X171861529Y-62211590D01*
X171862748Y-62161703D01*
X171863074Y-62148365D01*
X171863074Y-62148361D01*
X171863156Y-62145000D01*
X171844852Y-61922361D01*
X171790431Y-61705702D01*
X171701354Y-61500840D01*
X171602010Y-61347277D01*
X171582822Y-61317617D01*
X171582820Y-61317614D01*
X171580014Y-61313277D01*
X171429670Y-61148051D01*
X171425619Y-61144852D01*
X171425615Y-61144848D01*
X171258414Y-61012800D01*
X171258410Y-61012798D01*
X171254359Y-61009598D01*
X171212569Y-60986529D01*
X171162598Y-60936097D01*
X171147826Y-60866654D01*
X171172942Y-60800248D01*
X171200294Y-60773641D01*
X171375328Y-60648792D01*
X171383200Y-60642139D01*
X171534052Y-60491812D01*
X171540730Y-60483965D01*
X171665003Y-60311020D01*
X171670313Y-60302183D01*
X171764670Y-60111267D01*
X171768469Y-60101672D01*
X171830377Y-59897910D01*
X171832555Y-59887837D01*
X171833986Y-59876962D01*
X171831775Y-59862778D01*
X171818617Y-59859000D01*
X169165110Y-59859000D01*
X169165110Y-59854580D01*
X169127260Y-59854574D01*
X169073684Y-59822779D01*
X166282600Y-57031695D01*
X169137251Y-57031695D01*
X169137548Y-57036848D01*
X169137548Y-57036851D01*
X169148960Y-57234767D01*
X169150110Y-57254715D01*
X169151247Y-57259761D01*
X169151248Y-57259767D01*
X169175304Y-57366508D01*
X169199222Y-57472639D01*
X169260673Y-57623976D01*
X169280783Y-57673500D01*
X169283266Y-57679616D01*
X169307686Y-57719466D01*
X169381971Y-57840688D01*
X169399987Y-57870088D01*
X169546250Y-58038938D01*
X169718126Y-58181632D01*
X169763065Y-58207892D01*
X169791955Y-58224774D01*
X169840679Y-58276412D01*
X169853750Y-58346195D01*
X169827019Y-58411967D01*
X169786562Y-58445327D01*
X169778457Y-58449546D01*
X169769738Y-58455036D01*
X169599433Y-58582905D01*
X169591726Y-58589748D01*
X169444590Y-58743717D01*
X169438104Y-58751727D01*
X169318098Y-58927649D01*
X169313000Y-58936623D01*
X169223338Y-59129783D01*
X169219775Y-59139470D01*
X169164389Y-59339183D01*
X169165912Y-59347607D01*
X169178292Y-59351000D01*
X171818344Y-59351000D01*
X171831875Y-59347027D01*
X171833180Y-59337947D01*
X171791214Y-59170875D01*
X171787894Y-59161124D01*
X171702972Y-58965814D01*
X171698105Y-58956739D01*
X171582426Y-58777926D01*
X171576136Y-58769757D01*
X171432806Y-58612240D01*
X171425273Y-58605215D01*
X171258139Y-58473222D01*
X171249556Y-58467520D01*
X171212602Y-58447120D01*
X171162631Y-58396687D01*
X171147859Y-58327245D01*
X171172975Y-58260839D01*
X171200327Y-58234232D01*
X171237254Y-58207892D01*
X171379860Y-58106173D01*
X171538096Y-57948489D01*
X171568070Y-57906776D01*
X171666669Y-57769560D01*
X171722664Y-57725912D01*
X171793367Y-57719466D01*
X171858087Y-57753991D01*
X172329595Y-58225499D01*
X172363621Y-58287811D01*
X172366500Y-58314594D01*
X172366500Y-71921233D01*
X172365973Y-71932416D01*
X172364298Y-71939909D01*
X172364547Y-71947835D01*
X172364547Y-71947836D01*
X172366438Y-72007986D01*
X172366500Y-72011945D01*
X172366500Y-72039856D01*
X172366997Y-72043790D01*
X172366997Y-72043791D01*
X172367005Y-72043856D01*
X172367938Y-72055693D01*
X172369327Y-72099889D01*
X172374978Y-72119339D01*
X172378987Y-72138700D01*
X172381526Y-72158797D01*
X172384445Y-72166168D01*
X172384445Y-72166170D01*
X172397804Y-72199912D01*
X172401649Y-72211142D01*
X172413982Y-72253593D01*
X172418015Y-72260412D01*
X172418017Y-72260417D01*
X172424293Y-72271028D01*
X172432988Y-72288776D01*
X172440448Y-72307617D01*
X172445110Y-72314033D01*
X172445110Y-72314034D01*
X172466436Y-72343387D01*
X172472952Y-72353307D01*
X172495458Y-72391362D01*
X172509779Y-72405683D01*
X172522619Y-72420716D01*
X172534528Y-72437107D01*
X172540634Y-72442158D01*
X172568605Y-72465298D01*
X172577384Y-72473288D01*
X173206342Y-73102246D01*
X173213886Y-73110536D01*
X173217999Y-73117017D01*
X173223776Y-73122442D01*
X173267666Y-73163657D01*
X173270508Y-73166412D01*
X173290229Y-73186133D01*
X173293424Y-73188611D01*
X173302446Y-73196317D01*
X173334678Y-73226585D01*
X173341627Y-73230405D01*
X173352431Y-73236345D01*
X173368955Y-73247198D01*
X173384958Y-73259612D01*
X173425542Y-73277175D01*
X173436172Y-73282382D01*
X173474939Y-73303694D01*
X173482616Y-73305665D01*
X173482621Y-73305667D01*
X173494557Y-73308731D01*
X173513265Y-73315136D01*
X173531854Y-73323180D01*
X173539682Y-73324420D01*
X173539689Y-73324422D01*
X173575523Y-73330098D01*
X173587143Y-73332504D01*
X173622288Y-73341527D01*
X173629969Y-73343499D01*
X173650223Y-73343499D01*
X173669933Y-73345050D01*
X173689942Y-73348219D01*
X173697834Y-73347473D01*
X173733960Y-73344058D01*
X173745818Y-73343499D01*
X179160606Y-73343499D01*
X179228727Y-73363501D01*
X179263819Y-73397228D01*
X179370489Y-73549568D01*
X179373802Y-73554299D01*
X179535700Y-73716197D01*
X179540208Y-73719354D01*
X179540211Y-73719356D01*
X179562939Y-73735270D01*
X179723251Y-73847522D01*
X179728233Y-73849845D01*
X179728238Y-73849848D01*
X179762457Y-73865804D01*
X179815742Y-73912721D01*
X179835203Y-73980998D01*
X179814661Y-74048958D01*
X179762457Y-74094194D01*
X179728238Y-74110150D01*
X179728233Y-74110153D01*
X179723251Y-74112476D01*
X179632561Y-74175978D01*
X179540211Y-74240642D01*
X179540208Y-74240644D01*
X179535700Y-74243801D01*
X179373802Y-74405699D01*
X179242477Y-74593250D01*
X179240154Y-74598232D01*
X179240151Y-74598237D01*
X179176487Y-74734767D01*
X179145716Y-74800756D01*
X179144294Y-74806064D01*
X179144293Y-74806066D01*
X179105076Y-74952425D01*
X179086457Y-75021912D01*
X179066502Y-75249999D01*
X179086457Y-75478086D01*
X179087881Y-75483399D01*
X179087881Y-75483401D01*
X179144015Y-75692892D01*
X179145716Y-75699242D01*
X179148039Y-75704223D01*
X179148039Y-75704224D01*
X179240151Y-75901761D01*
X179240154Y-75901766D01*
X179242477Y-75906748D01*
X179373802Y-76094299D01*
X179535700Y-76256197D01*
X179540208Y-76259354D01*
X179540211Y-76259356D01*
X179562939Y-76275270D01*
X179723251Y-76387522D01*
X179728233Y-76389845D01*
X179728238Y-76389848D01*
X179762457Y-76405804D01*
X179815742Y-76452721D01*
X179835203Y-76520998D01*
X179814661Y-76588958D01*
X179762457Y-76634194D01*
X179728238Y-76650150D01*
X179728233Y-76650153D01*
X179723251Y-76652476D01*
X179632561Y-76715978D01*
X179540211Y-76780642D01*
X179540208Y-76780644D01*
X179535700Y-76783801D01*
X179373802Y-76945699D01*
X179242477Y-77133250D01*
X179240154Y-77138232D01*
X179240151Y-77138237D01*
X179148039Y-77335774D01*
X179145716Y-77340756D01*
X179144294Y-77346064D01*
X179144293Y-77346066D01*
X179087881Y-77556597D01*
X179086457Y-77561912D01*
X179066502Y-77789999D01*
X179086457Y-78018086D01*
X179145716Y-78239242D01*
X179148039Y-78244223D01*
X179148039Y-78244224D01*
X179240151Y-78441761D01*
X179240154Y-78441766D01*
X179242477Y-78446748D01*
X179373802Y-78634299D01*
X179535700Y-78796197D01*
X179540208Y-78799354D01*
X179540211Y-78799356D01*
X179562939Y-78815270D01*
X179723251Y-78927522D01*
X179728233Y-78929845D01*
X179728238Y-78929848D01*
X179762457Y-78945804D01*
X179815742Y-78992721D01*
X179835203Y-79060998D01*
X179814661Y-79128958D01*
X179762457Y-79174194D01*
X179728238Y-79190150D01*
X179728233Y-79190153D01*
X179723251Y-79192476D01*
X179666080Y-79232508D01*
X179540211Y-79320642D01*
X179540208Y-79320644D01*
X179535700Y-79323801D01*
X179373802Y-79485699D01*
X179370645Y-79490207D01*
X179370643Y-79490210D01*
X179341831Y-79531358D01*
X179242477Y-79673250D01*
X179240154Y-79678232D01*
X179240151Y-79678237D01*
X179157594Y-79855283D01*
X179145716Y-79880756D01*
X179144294Y-79886064D01*
X179144293Y-79886066D01*
X179123019Y-79965460D01*
X179086457Y-80101912D01*
X179066502Y-80329999D01*
X179086457Y-80558086D01*
X179087881Y-80563399D01*
X179087881Y-80563401D01*
X179125025Y-80702021D01*
X179145716Y-80779242D01*
X179148039Y-80784223D01*
X179148039Y-80784224D01*
X179240151Y-80981761D01*
X179240154Y-80981766D01*
X179242477Y-80986748D01*
X179373802Y-81174299D01*
X179535700Y-81336197D01*
X179540208Y-81339354D01*
X179540211Y-81339356D01*
X179562939Y-81355270D01*
X179723251Y-81467522D01*
X179728233Y-81469845D01*
X179728238Y-81469848D01*
X179762457Y-81485804D01*
X179815742Y-81532721D01*
X179835203Y-81600998D01*
X179814661Y-81668958D01*
X179762457Y-81714194D01*
X179728238Y-81730150D01*
X179728233Y-81730153D01*
X179723251Y-81732476D01*
X179651114Y-81782987D01*
X179540211Y-81860642D01*
X179540208Y-81860644D01*
X179535700Y-81863801D01*
X179373802Y-82025699D01*
X179370645Y-82030207D01*
X179370643Y-82030210D01*
X179325602Y-82094535D01*
X179242477Y-82213250D01*
X179240154Y-82218232D01*
X179240151Y-82218237D01*
X179149474Y-82412697D01*
X179145716Y-82420756D01*
X179144294Y-82426064D01*
X179144293Y-82426066D01*
X179087908Y-82636498D01*
X179086457Y-82641912D01*
X179066502Y-82869999D01*
X179086457Y-83098086D01*
X179087881Y-83103399D01*
X179087881Y-83103401D01*
X179137881Y-83290000D01*
X179145716Y-83319242D01*
X179148039Y-83324223D01*
X179148039Y-83324224D01*
X179240151Y-83521761D01*
X179240154Y-83521766D01*
X179242477Y-83526748D01*
X179281898Y-83583047D01*
X179365488Y-83702425D01*
X179373802Y-83714299D01*
X179535700Y-83876197D01*
X179540208Y-83879354D01*
X179540211Y-83879356D01*
X179562939Y-83895270D01*
X179723251Y-84007522D01*
X179728233Y-84009845D01*
X179728238Y-84009848D01*
X179763049Y-84026080D01*
X179816334Y-84072997D01*
X179835795Y-84141274D01*
X179815253Y-84209234D01*
X179763049Y-84254470D01*
X179728489Y-84270585D01*
X179718994Y-84276068D01*
X179666952Y-84312508D01*
X179658576Y-84322987D01*
X179665644Y-84336433D01*
X180367188Y-85037977D01*
X180381132Y-85045591D01*
X180382965Y-85045460D01*
X180389580Y-85041209D01*
X181095077Y-84335712D01*
X181101507Y-84323937D01*
X181092211Y-84311922D01*
X181041006Y-84276068D01*
X181031511Y-84270585D01*
X180996951Y-84254470D01*
X180943666Y-84207553D01*
X180924205Y-84139276D01*
X180944747Y-84071316D01*
X180996951Y-84026080D01*
X181031762Y-84009848D01*
X181031767Y-84009845D01*
X181036749Y-84007522D01*
X181197061Y-83895270D01*
X181219789Y-83879356D01*
X181219792Y-83879354D01*
X181224300Y-83876197D01*
X181386198Y-83714299D01*
X181394513Y-83702425D01*
X181478102Y-83583047D01*
X181517523Y-83526748D01*
X181519846Y-83521766D01*
X181519849Y-83521761D01*
X181611961Y-83324224D01*
X181611961Y-83324223D01*
X181614284Y-83319242D01*
X181622120Y-83290000D01*
X181672119Y-83103401D01*
X181672119Y-83103399D01*
X181673543Y-83098086D01*
X181693019Y-82875474D01*
X194307483Y-82875474D01*
X194326472Y-83092518D01*
X194328375Y-83103311D01*
X194384764Y-83313760D01*
X194388510Y-83324052D01*
X194480586Y-83521510D01*
X194486069Y-83531005D01*
X194522509Y-83583047D01*
X194532988Y-83591423D01*
X194546434Y-83584355D01*
X195247978Y-82882811D01*
X195254356Y-82871131D01*
X195984408Y-82871131D01*
X195984539Y-82872964D01*
X195988790Y-82879579D01*
X196694287Y-83585076D01*
X196706062Y-83591506D01*
X196718077Y-83582210D01*
X196753931Y-83531005D01*
X196759414Y-83521510D01*
X196851490Y-83324052D01*
X196855236Y-83313760D01*
X196911625Y-83103311D01*
X196913528Y-83092518D01*
X196932517Y-82875474D01*
X196932517Y-82864524D01*
X196913528Y-82647480D01*
X196911625Y-82636687D01*
X196855236Y-82426238D01*
X196851490Y-82415946D01*
X196759414Y-82218488D01*
X196753931Y-82208993D01*
X196717491Y-82156951D01*
X196707012Y-82148575D01*
X196693566Y-82155643D01*
X195992022Y-82857187D01*
X195984408Y-82871131D01*
X195254356Y-82871131D01*
X195255592Y-82868867D01*
X195255461Y-82867034D01*
X195251210Y-82860419D01*
X194545713Y-82154922D01*
X194533938Y-82148492D01*
X194521923Y-82157788D01*
X194486069Y-82208993D01*
X194480586Y-82218488D01*
X194388510Y-82415946D01*
X194384764Y-82426238D01*
X194328375Y-82636687D01*
X194326472Y-82647480D01*
X194307483Y-82864524D01*
X194307483Y-82875474D01*
X181693019Y-82875474D01*
X181693498Y-82869999D01*
X181673543Y-82641912D01*
X181672092Y-82636498D01*
X181615707Y-82426066D01*
X181615706Y-82426064D01*
X181614284Y-82420756D01*
X181610526Y-82412697D01*
X181519849Y-82218237D01*
X181519846Y-82218232D01*
X181517523Y-82213250D01*
X181434398Y-82094535D01*
X181389357Y-82030210D01*
X181389355Y-82030207D01*
X181386198Y-82025699D01*
X181224300Y-81863801D01*
X181219792Y-81860644D01*
X181219789Y-81860642D01*
X181108886Y-81782987D01*
X181036749Y-81732476D01*
X181031767Y-81730153D01*
X181031762Y-81730150D01*
X180997543Y-81714194D01*
X180944258Y-81667277D01*
X180924797Y-81599000D01*
X180945339Y-81531040D01*
X180997543Y-81485804D01*
X181031762Y-81469848D01*
X181031767Y-81469845D01*
X181036749Y-81467522D01*
X181110243Y-81416061D01*
X194898493Y-81416061D01*
X194907789Y-81428076D01*
X194958994Y-81463930D01*
X194968489Y-81469413D01*
X195003641Y-81485804D01*
X195056926Y-81532721D01*
X195076387Y-81600998D01*
X195055845Y-81668958D01*
X195003641Y-81714194D01*
X194968489Y-81730585D01*
X194958994Y-81736068D01*
X194906952Y-81772508D01*
X194898576Y-81782987D01*
X194905644Y-81796433D01*
X195607188Y-82497977D01*
X195621132Y-82505591D01*
X195622965Y-82505460D01*
X195629580Y-82501209D01*
X196335077Y-81795712D01*
X196341507Y-81783937D01*
X196332211Y-81771922D01*
X196281006Y-81736068D01*
X196271511Y-81730585D01*
X196236359Y-81714194D01*
X196183074Y-81667277D01*
X196163613Y-81599000D01*
X196184155Y-81531040D01*
X196236359Y-81485804D01*
X196271511Y-81469413D01*
X196281006Y-81463930D01*
X196333048Y-81427490D01*
X196341424Y-81417011D01*
X196334356Y-81403565D01*
X195632812Y-80702021D01*
X195618868Y-80694407D01*
X195617035Y-80694538D01*
X195610420Y-80698789D01*
X194904923Y-81404286D01*
X194898493Y-81416061D01*
X181110243Y-81416061D01*
X181197061Y-81355270D01*
X181219789Y-81339356D01*
X181219792Y-81339354D01*
X181224300Y-81336197D01*
X181386198Y-81174299D01*
X181517523Y-80986748D01*
X181519846Y-80981766D01*
X181519849Y-80981761D01*
X181611961Y-80784224D01*
X181611961Y-80784223D01*
X181614284Y-80779242D01*
X181634976Y-80702021D01*
X181672119Y-80563401D01*
X181672119Y-80563399D01*
X181673543Y-80558086D01*
X181693019Y-80335474D01*
X194307483Y-80335474D01*
X194326472Y-80552518D01*
X194328375Y-80563311D01*
X194384764Y-80773760D01*
X194388510Y-80784052D01*
X194480586Y-80981510D01*
X194486069Y-80991005D01*
X194522509Y-81043047D01*
X194532988Y-81051423D01*
X194546434Y-81044355D01*
X195247978Y-80342811D01*
X195254356Y-80331131D01*
X195984408Y-80331131D01*
X195984539Y-80332964D01*
X195988790Y-80339579D01*
X196694287Y-81045076D01*
X196706062Y-81051506D01*
X196718077Y-81042210D01*
X196753931Y-80991005D01*
X196759414Y-80981510D01*
X196851490Y-80784052D01*
X196855236Y-80773760D01*
X196911625Y-80563311D01*
X196913528Y-80552518D01*
X196932517Y-80335474D01*
X196932517Y-80324524D01*
X196913528Y-80107480D01*
X196911625Y-80096687D01*
X196855236Y-79886238D01*
X196851490Y-79875946D01*
X196759414Y-79678488D01*
X196753931Y-79668993D01*
X196717491Y-79616951D01*
X196707012Y-79608575D01*
X196693566Y-79615643D01*
X195992022Y-80317187D01*
X195984408Y-80331131D01*
X195254356Y-80331131D01*
X195255592Y-80328867D01*
X195255461Y-80327034D01*
X195251210Y-80320419D01*
X194545713Y-79614922D01*
X194533938Y-79608492D01*
X194521923Y-79617788D01*
X194486069Y-79668993D01*
X194480586Y-79678488D01*
X194388510Y-79875946D01*
X194384764Y-79886238D01*
X194328375Y-80096687D01*
X194326472Y-80107480D01*
X194307483Y-80324524D01*
X194307483Y-80335474D01*
X181693019Y-80335474D01*
X181693498Y-80329999D01*
X181673543Y-80101912D01*
X181636981Y-79965460D01*
X181615707Y-79886066D01*
X181615706Y-79886064D01*
X181614284Y-79880756D01*
X181602406Y-79855283D01*
X181519849Y-79678237D01*
X181519846Y-79678232D01*
X181517523Y-79673250D01*
X181418169Y-79531358D01*
X181389357Y-79490210D01*
X181389355Y-79490207D01*
X181386198Y-79485699D01*
X181224300Y-79323801D01*
X181219792Y-79320644D01*
X181219789Y-79320642D01*
X181093920Y-79232508D01*
X181036749Y-79192476D01*
X181031767Y-79190153D01*
X181031762Y-79190150D01*
X180997543Y-79174194D01*
X180944258Y-79127277D01*
X180924797Y-79059000D01*
X180945339Y-78991040D01*
X180997543Y-78945804D01*
X181031762Y-78929848D01*
X181031767Y-78929845D01*
X181036749Y-78927522D01*
X181197061Y-78815270D01*
X181219789Y-78799356D01*
X181219792Y-78799354D01*
X181224300Y-78796197D01*
X181386198Y-78634299D01*
X181517523Y-78446748D01*
X181519846Y-78441766D01*
X181519849Y-78441761D01*
X181611961Y-78244224D01*
X181611961Y-78244223D01*
X181614284Y-78239242D01*
X181673543Y-78018086D01*
X181693498Y-77789999D01*
X194306502Y-77789999D01*
X194326457Y-78018086D01*
X194385716Y-78239242D01*
X194388039Y-78244223D01*
X194388039Y-78244224D01*
X194480151Y-78441761D01*
X194480154Y-78441766D01*
X194482477Y-78446748D01*
X194613802Y-78634299D01*
X194775700Y-78796197D01*
X194780208Y-78799354D01*
X194780211Y-78799356D01*
X194802939Y-78815270D01*
X194963251Y-78927522D01*
X194968233Y-78929845D01*
X194968238Y-78929848D01*
X195003049Y-78946080D01*
X195056334Y-78992997D01*
X195075795Y-79061274D01*
X195055253Y-79129234D01*
X195003049Y-79174470D01*
X194968489Y-79190585D01*
X194958994Y-79196068D01*
X194906952Y-79232508D01*
X194898576Y-79242987D01*
X194905644Y-79256433D01*
X195607188Y-79957977D01*
X195621132Y-79965591D01*
X195622965Y-79965460D01*
X195629580Y-79961209D01*
X196335077Y-79255712D01*
X196341507Y-79243937D01*
X196332211Y-79231922D01*
X196281006Y-79196068D01*
X196271511Y-79190585D01*
X196236951Y-79174470D01*
X196183666Y-79127553D01*
X196164205Y-79059276D01*
X196184747Y-78991316D01*
X196236951Y-78946080D01*
X196271762Y-78929848D01*
X196271767Y-78929845D01*
X196276749Y-78927522D01*
X196437061Y-78815270D01*
X196459789Y-78799356D01*
X196459792Y-78799354D01*
X196464300Y-78796197D01*
X196626198Y-78634299D01*
X196757523Y-78446748D01*
X196759846Y-78441766D01*
X196759849Y-78441761D01*
X196851961Y-78244224D01*
X196851961Y-78244223D01*
X196854284Y-78239242D01*
X196913543Y-78018086D01*
X196933498Y-77789999D01*
X196913543Y-77561912D01*
X196912119Y-77556597D01*
X196855707Y-77346066D01*
X196855706Y-77346064D01*
X196854284Y-77340756D01*
X196851961Y-77335774D01*
X196759849Y-77138237D01*
X196759846Y-77138232D01*
X196757523Y-77133250D01*
X196626198Y-76945699D01*
X196464300Y-76783801D01*
X196459792Y-76780644D01*
X196459789Y-76780642D01*
X196367439Y-76715978D01*
X196276749Y-76652476D01*
X196271767Y-76650153D01*
X196271762Y-76650150D01*
X196237543Y-76634194D01*
X196184258Y-76587277D01*
X196164797Y-76519000D01*
X196185339Y-76451040D01*
X196237543Y-76405804D01*
X196271762Y-76389848D01*
X196271767Y-76389845D01*
X196276749Y-76387522D01*
X196437061Y-76275270D01*
X196459789Y-76259356D01*
X196459792Y-76259354D01*
X196464300Y-76256197D01*
X196626198Y-76094299D01*
X196757523Y-75906748D01*
X196759846Y-75901766D01*
X196759849Y-75901761D01*
X196851961Y-75704224D01*
X196851961Y-75704223D01*
X196854284Y-75699242D01*
X196855986Y-75692892D01*
X196912119Y-75483401D01*
X196912119Y-75483399D01*
X196913543Y-75478086D01*
X196933498Y-75249999D01*
X196913543Y-75021912D01*
X196894924Y-74952425D01*
X196855707Y-74806066D01*
X196855706Y-74806064D01*
X196854284Y-74800756D01*
X196823513Y-74734767D01*
X196759849Y-74598237D01*
X196759846Y-74598232D01*
X196757523Y-74593250D01*
X196626198Y-74405699D01*
X196464300Y-74243801D01*
X196459792Y-74240644D01*
X196459789Y-74240642D01*
X196367439Y-74175978D01*
X196276749Y-74112476D01*
X196271767Y-74110153D01*
X196271762Y-74110150D01*
X196237543Y-74094194D01*
X196184258Y-74047277D01*
X196164797Y-73979000D01*
X196185339Y-73911040D01*
X196237543Y-73865804D01*
X196271762Y-73849848D01*
X196271767Y-73849845D01*
X196276749Y-73847522D01*
X196437061Y-73735270D01*
X196459789Y-73719356D01*
X196459792Y-73719354D01*
X196464300Y-73716197D01*
X196626198Y-73554299D01*
X196631668Y-73546488D01*
X196733588Y-73400930D01*
X196757523Y-73366748D01*
X196759846Y-73361766D01*
X196759849Y-73361761D01*
X196851961Y-73164224D01*
X196851961Y-73164223D01*
X196854284Y-73159242D01*
X196869116Y-73103891D01*
X196912119Y-72943401D01*
X196912119Y-72943399D01*
X196913543Y-72938086D01*
X196933498Y-72709999D01*
X196913543Y-72481912D01*
X196902891Y-72442158D01*
X196855707Y-72266066D01*
X196855706Y-72266064D01*
X196854284Y-72260756D01*
X196847395Y-72245983D01*
X196759849Y-72058237D01*
X196759846Y-72058232D01*
X196757523Y-72053250D01*
X196671263Y-71930058D01*
X196629357Y-71870210D01*
X196629355Y-71870207D01*
X196626198Y-71865699D01*
X196464300Y-71703801D01*
X196459792Y-71700644D01*
X196459789Y-71700642D01*
X196367439Y-71635978D01*
X196276749Y-71572476D01*
X196271767Y-71570153D01*
X196271762Y-71570150D01*
X196237543Y-71554194D01*
X196184258Y-71507277D01*
X196164797Y-71439000D01*
X196185339Y-71371040D01*
X196237543Y-71325804D01*
X196271762Y-71309848D01*
X196271767Y-71309845D01*
X196276749Y-71307522D01*
X196437061Y-71195270D01*
X196459789Y-71179356D01*
X196459792Y-71179354D01*
X196464300Y-71176197D01*
X196626198Y-71014299D01*
X196757523Y-70826748D01*
X196759846Y-70821766D01*
X196759849Y-70821761D01*
X196851961Y-70624224D01*
X196851961Y-70624223D01*
X196854284Y-70619242D01*
X196913543Y-70398086D01*
X196933498Y-70169999D01*
X196913543Y-69941912D01*
X196912119Y-69936597D01*
X196855707Y-69726066D01*
X196855706Y-69726064D01*
X196854284Y-69720756D01*
X196851961Y-69715774D01*
X196759849Y-69518237D01*
X196759846Y-69518232D01*
X196757523Y-69513250D01*
X196626198Y-69325699D01*
X196464300Y-69163801D01*
X196459792Y-69160644D01*
X196459789Y-69160642D01*
X196367439Y-69095978D01*
X196276749Y-69032476D01*
X196271767Y-69030153D01*
X196271762Y-69030150D01*
X196237543Y-69014194D01*
X196184258Y-68967277D01*
X196164797Y-68899000D01*
X196185339Y-68831040D01*
X196237543Y-68785804D01*
X196271762Y-68769848D01*
X196271767Y-68769845D01*
X196276749Y-68767522D01*
X196437061Y-68655270D01*
X196459789Y-68639356D01*
X196459792Y-68639354D01*
X196464300Y-68636197D01*
X196626198Y-68474299D01*
X196757523Y-68286748D01*
X196759846Y-68281766D01*
X196759849Y-68281761D01*
X196851961Y-68084224D01*
X196851961Y-68084223D01*
X196854284Y-68079242D01*
X196913543Y-67858086D01*
X196933498Y-67629999D01*
X196913543Y-67401912D01*
X196866273Y-67225499D01*
X196855707Y-67186066D01*
X196855706Y-67186064D01*
X196854284Y-67180756D01*
X196816175Y-67099030D01*
X196759849Y-66978237D01*
X196759846Y-66978232D01*
X196757523Y-66973250D01*
X196638499Y-66803266D01*
X196629357Y-66790210D01*
X196629355Y-66790207D01*
X196626198Y-66785699D01*
X196464300Y-66623801D01*
X196459792Y-66620644D01*
X196459789Y-66620642D01*
X196367439Y-66555978D01*
X196276749Y-66492476D01*
X196271767Y-66490153D01*
X196271762Y-66490150D01*
X196237543Y-66474194D01*
X196184258Y-66427277D01*
X196164797Y-66359000D01*
X196185339Y-66291040D01*
X196237543Y-66245804D01*
X196271762Y-66229848D01*
X196271767Y-66229845D01*
X196276749Y-66227522D01*
X196437061Y-66115270D01*
X196459789Y-66099356D01*
X196459792Y-66099354D01*
X196464300Y-66096197D01*
X196626198Y-65934299D01*
X196757523Y-65746748D01*
X196759846Y-65741766D01*
X196759849Y-65741761D01*
X196851961Y-65544224D01*
X196851961Y-65544223D01*
X196854284Y-65539242D01*
X196913543Y-65318086D01*
X196933498Y-65089999D01*
X196913543Y-64861912D01*
X196871160Y-64703738D01*
X196855707Y-64646066D01*
X196855706Y-64646064D01*
X196854284Y-64640756D01*
X196832731Y-64594535D01*
X196759849Y-64438237D01*
X196759846Y-64438232D01*
X196757523Y-64433250D01*
X196626198Y-64245699D01*
X196464300Y-64083801D01*
X196459792Y-64080644D01*
X196459789Y-64080642D01*
X196367439Y-64015978D01*
X196276749Y-63952476D01*
X196271767Y-63950153D01*
X196271762Y-63950150D01*
X196237543Y-63934194D01*
X196184258Y-63887277D01*
X196164797Y-63819000D01*
X196185339Y-63751040D01*
X196237543Y-63705804D01*
X196271762Y-63689848D01*
X196271767Y-63689845D01*
X196276749Y-63687522D01*
X196437061Y-63575270D01*
X196459789Y-63559356D01*
X196459792Y-63559354D01*
X196464300Y-63556197D01*
X196626198Y-63394299D01*
X196757523Y-63206748D01*
X196759846Y-63201766D01*
X196759849Y-63201761D01*
X196851961Y-63004224D01*
X196851961Y-63004223D01*
X196854284Y-62999242D01*
X196893932Y-62851277D01*
X196912119Y-62783401D01*
X196912119Y-62783399D01*
X196913543Y-62778086D01*
X196933498Y-62549999D01*
X196913543Y-62321912D01*
X196912119Y-62316597D01*
X196855707Y-62106066D01*
X196855706Y-62106064D01*
X196854284Y-62100756D01*
X196824433Y-62036739D01*
X196759849Y-61898237D01*
X196759846Y-61898232D01*
X196757523Y-61893250D01*
X196678129Y-61779864D01*
X196629357Y-61710210D01*
X196629355Y-61710207D01*
X196626198Y-61705699D01*
X196464300Y-61543801D01*
X196459792Y-61540644D01*
X196459789Y-61540642D01*
X196367439Y-61475978D01*
X196276749Y-61412476D01*
X196271767Y-61410153D01*
X196271762Y-61410150D01*
X196237543Y-61394194D01*
X196184258Y-61347277D01*
X196164797Y-61279000D01*
X196185339Y-61211040D01*
X196237543Y-61165804D01*
X196271762Y-61149848D01*
X196271767Y-61149845D01*
X196276749Y-61147522D01*
X196437061Y-61035270D01*
X196459789Y-61019356D01*
X196459792Y-61019354D01*
X196464300Y-61016197D01*
X196626198Y-60854299D01*
X196757523Y-60666748D01*
X196759846Y-60661766D01*
X196759849Y-60661761D01*
X196851961Y-60464224D01*
X196851961Y-60464223D01*
X196854284Y-60459242D01*
X196913543Y-60238086D01*
X196933498Y-60009999D01*
X196913543Y-59781912D01*
X196912119Y-59776597D01*
X196855707Y-59566066D01*
X196855706Y-59566064D01*
X196854284Y-59560756D01*
X196851961Y-59555774D01*
X196759849Y-59358237D01*
X196759846Y-59358232D01*
X196757523Y-59353250D01*
X196678129Y-59239864D01*
X196629357Y-59170210D01*
X196629355Y-59170207D01*
X196626198Y-59165699D01*
X196464300Y-59003801D01*
X196459792Y-59000644D01*
X196459789Y-59000642D01*
X196355544Y-58927649D01*
X196276749Y-58872476D01*
X196271767Y-58870153D01*
X196271762Y-58870150D01*
X196074225Y-58778038D01*
X196074224Y-58778038D01*
X196069243Y-58775715D01*
X196063935Y-58774293D01*
X196063933Y-58774292D01*
X195853402Y-58717880D01*
X195853400Y-58717880D01*
X195848087Y-58716456D01*
X195620000Y-58696501D01*
X195391913Y-58716456D01*
X195386600Y-58717880D01*
X195386598Y-58717880D01*
X195176067Y-58774292D01*
X195176065Y-58774293D01*
X195170757Y-58775715D01*
X195165776Y-58778038D01*
X195165775Y-58778038D01*
X194968238Y-58870150D01*
X194968233Y-58870153D01*
X194963251Y-58872476D01*
X194884456Y-58927649D01*
X194780211Y-59000642D01*
X194780208Y-59000644D01*
X194775700Y-59003801D01*
X194613802Y-59165699D01*
X194610645Y-59170207D01*
X194610643Y-59170210D01*
X194561871Y-59239864D01*
X194482477Y-59353250D01*
X194480154Y-59358232D01*
X194480151Y-59358237D01*
X194388039Y-59555774D01*
X194385716Y-59560756D01*
X194384294Y-59566064D01*
X194384293Y-59566066D01*
X194327881Y-59776597D01*
X194326457Y-59781912D01*
X194306502Y-60009999D01*
X194326457Y-60238086D01*
X194385716Y-60459242D01*
X194388039Y-60464223D01*
X194388039Y-60464224D01*
X194480151Y-60661761D01*
X194480154Y-60661766D01*
X194482477Y-60666748D01*
X194613802Y-60854299D01*
X194775700Y-61016197D01*
X194780208Y-61019354D01*
X194780211Y-61019356D01*
X194802939Y-61035270D01*
X194963251Y-61147522D01*
X194968233Y-61149845D01*
X194968238Y-61149848D01*
X195002457Y-61165804D01*
X195055742Y-61212721D01*
X195075203Y-61280998D01*
X195054661Y-61348958D01*
X195002457Y-61394194D01*
X194968238Y-61410150D01*
X194968233Y-61410153D01*
X194963251Y-61412476D01*
X194872561Y-61475978D01*
X194780211Y-61540642D01*
X194780208Y-61540644D01*
X194775700Y-61543801D01*
X194613802Y-61705699D01*
X194610645Y-61710207D01*
X194610643Y-61710210D01*
X194561871Y-61779864D01*
X194482477Y-61893250D01*
X194480154Y-61898232D01*
X194480151Y-61898237D01*
X194415567Y-62036739D01*
X194385716Y-62100756D01*
X194384294Y-62106064D01*
X194384293Y-62106066D01*
X194327881Y-62316597D01*
X194326457Y-62321912D01*
X194306502Y-62549999D01*
X194326457Y-62778086D01*
X194327881Y-62783399D01*
X194327881Y-62783401D01*
X194346069Y-62851277D01*
X194385716Y-62999242D01*
X194388039Y-63004223D01*
X194388039Y-63004224D01*
X194480151Y-63201761D01*
X194480154Y-63201766D01*
X194482477Y-63206748D01*
X194613802Y-63394299D01*
X194775700Y-63556197D01*
X194780208Y-63559354D01*
X194780211Y-63559356D01*
X194802939Y-63575270D01*
X194963251Y-63687522D01*
X194968233Y-63689845D01*
X194968238Y-63689848D01*
X195002457Y-63705804D01*
X195055742Y-63752721D01*
X195075203Y-63820998D01*
X195054661Y-63888958D01*
X195002457Y-63934194D01*
X194968238Y-63950150D01*
X194968233Y-63950153D01*
X194963251Y-63952476D01*
X194872561Y-64015978D01*
X194780211Y-64080642D01*
X194780208Y-64080644D01*
X194775700Y-64083801D01*
X194613802Y-64245699D01*
X194482477Y-64433250D01*
X194480154Y-64438232D01*
X194480151Y-64438237D01*
X194407269Y-64594535D01*
X194385716Y-64640756D01*
X194384294Y-64646064D01*
X194384293Y-64646066D01*
X194368840Y-64703738D01*
X194326457Y-64861912D01*
X194306502Y-65089999D01*
X194326457Y-65318086D01*
X194385716Y-65539242D01*
X194388039Y-65544223D01*
X194388039Y-65544224D01*
X194480151Y-65741761D01*
X194480154Y-65741766D01*
X194482477Y-65746748D01*
X194613802Y-65934299D01*
X194775700Y-66096197D01*
X194780208Y-66099354D01*
X194780211Y-66099356D01*
X194802939Y-66115270D01*
X194963251Y-66227522D01*
X194968233Y-66229845D01*
X194968238Y-66229848D01*
X195002457Y-66245804D01*
X195055742Y-66292721D01*
X195075203Y-66360998D01*
X195054661Y-66428958D01*
X195002457Y-66474194D01*
X194968238Y-66490150D01*
X194968233Y-66490153D01*
X194963251Y-66492476D01*
X194872561Y-66555978D01*
X194780211Y-66620642D01*
X194780208Y-66620644D01*
X194775700Y-66623801D01*
X194613802Y-66785699D01*
X194610645Y-66790207D01*
X194610643Y-66790210D01*
X194601501Y-66803266D01*
X194482477Y-66973250D01*
X194480154Y-66978232D01*
X194480151Y-66978237D01*
X194423825Y-67099030D01*
X194385716Y-67180756D01*
X194384294Y-67186064D01*
X194384293Y-67186066D01*
X194373727Y-67225499D01*
X194326457Y-67401912D01*
X194306502Y-67629999D01*
X194326457Y-67858086D01*
X194385716Y-68079242D01*
X194388039Y-68084223D01*
X194388039Y-68084224D01*
X194480151Y-68281761D01*
X194480154Y-68281766D01*
X194482477Y-68286748D01*
X194613802Y-68474299D01*
X194775700Y-68636197D01*
X194780208Y-68639354D01*
X194780211Y-68639356D01*
X194802939Y-68655270D01*
X194963251Y-68767522D01*
X194968233Y-68769845D01*
X194968238Y-68769848D01*
X195002457Y-68785804D01*
X195055742Y-68832721D01*
X195075203Y-68900998D01*
X195054661Y-68968958D01*
X195002457Y-69014194D01*
X194968238Y-69030150D01*
X194968233Y-69030153D01*
X194963251Y-69032476D01*
X194872561Y-69095978D01*
X194780211Y-69160642D01*
X194780208Y-69160644D01*
X194775700Y-69163801D01*
X194613802Y-69325699D01*
X194482477Y-69513250D01*
X194480154Y-69518232D01*
X194480151Y-69518237D01*
X194388039Y-69715774D01*
X194385716Y-69720756D01*
X194384294Y-69726064D01*
X194384293Y-69726066D01*
X194327881Y-69936597D01*
X194326457Y-69941912D01*
X194306502Y-70169999D01*
X194326457Y-70398086D01*
X194385716Y-70619242D01*
X194388039Y-70624223D01*
X194388039Y-70624224D01*
X194480151Y-70821761D01*
X194480154Y-70821766D01*
X194482477Y-70826748D01*
X194613802Y-71014299D01*
X194775700Y-71176197D01*
X194780208Y-71179354D01*
X194780211Y-71179356D01*
X194802939Y-71195270D01*
X194963251Y-71307522D01*
X194968233Y-71309845D01*
X194968238Y-71309848D01*
X195002457Y-71325804D01*
X195055742Y-71372721D01*
X195075203Y-71440998D01*
X195054661Y-71508958D01*
X195002457Y-71554194D01*
X194968238Y-71570150D01*
X194968233Y-71570153D01*
X194963251Y-71572476D01*
X194872561Y-71635978D01*
X194780211Y-71700642D01*
X194780208Y-71700644D01*
X194775700Y-71703801D01*
X194613802Y-71865699D01*
X194610645Y-71870207D01*
X194610643Y-71870210D01*
X194568737Y-71930058D01*
X194482477Y-72053250D01*
X194480154Y-72058232D01*
X194480151Y-72058237D01*
X194392605Y-72245983D01*
X194385716Y-72260756D01*
X194384294Y-72266064D01*
X194384293Y-72266066D01*
X194337109Y-72442158D01*
X194326457Y-72481912D01*
X194306502Y-72709999D01*
X194326457Y-72938086D01*
X194327881Y-72943399D01*
X194327881Y-72943401D01*
X194370885Y-73103891D01*
X194385716Y-73159242D01*
X194388039Y-73164223D01*
X194388039Y-73164224D01*
X194480151Y-73361761D01*
X194480154Y-73361766D01*
X194482477Y-73366748D01*
X194506412Y-73400930D01*
X194608333Y-73546488D01*
X194613802Y-73554299D01*
X194775700Y-73716197D01*
X194780208Y-73719354D01*
X194780211Y-73719356D01*
X194802939Y-73735270D01*
X194963251Y-73847522D01*
X194968233Y-73849845D01*
X194968238Y-73849848D01*
X195002457Y-73865804D01*
X195055742Y-73912721D01*
X195075203Y-73980998D01*
X195054661Y-74048958D01*
X195002457Y-74094194D01*
X194968238Y-74110150D01*
X194968233Y-74110153D01*
X194963251Y-74112476D01*
X194872561Y-74175978D01*
X194780211Y-74240642D01*
X194780208Y-74240644D01*
X194775700Y-74243801D01*
X194613802Y-74405699D01*
X194482477Y-74593250D01*
X194480154Y-74598232D01*
X194480151Y-74598237D01*
X194416487Y-74734767D01*
X194385716Y-74800756D01*
X194384294Y-74806064D01*
X194384293Y-74806066D01*
X194345076Y-74952425D01*
X194326457Y-75021912D01*
X194306502Y-75249999D01*
X194326457Y-75478086D01*
X194327881Y-75483399D01*
X194327881Y-75483401D01*
X194384015Y-75692892D01*
X194385716Y-75699242D01*
X194388039Y-75704223D01*
X194388039Y-75704224D01*
X194480151Y-75901761D01*
X194480154Y-75901766D01*
X194482477Y-75906748D01*
X194613802Y-76094299D01*
X194775700Y-76256197D01*
X194780208Y-76259354D01*
X194780211Y-76259356D01*
X194802939Y-76275270D01*
X194963251Y-76387522D01*
X194968233Y-76389845D01*
X194968238Y-76389848D01*
X195002457Y-76405804D01*
X195055742Y-76452721D01*
X195075203Y-76520998D01*
X195054661Y-76588958D01*
X195002457Y-76634194D01*
X194968238Y-76650150D01*
X194968233Y-76650153D01*
X194963251Y-76652476D01*
X194872561Y-76715978D01*
X194780211Y-76780642D01*
X194780208Y-76780644D01*
X194775700Y-76783801D01*
X194613802Y-76945699D01*
X194482477Y-77133250D01*
X194480154Y-77138232D01*
X194480151Y-77138237D01*
X194388039Y-77335774D01*
X194385716Y-77340756D01*
X194384294Y-77346064D01*
X194384293Y-77346066D01*
X194327881Y-77556597D01*
X194326457Y-77561912D01*
X194306502Y-77789999D01*
X181693498Y-77789999D01*
X181673543Y-77561912D01*
X181672119Y-77556597D01*
X181615707Y-77346066D01*
X181615706Y-77346064D01*
X181614284Y-77340756D01*
X181611961Y-77335774D01*
X181519849Y-77138237D01*
X181519846Y-77138232D01*
X181517523Y-77133250D01*
X181386198Y-76945699D01*
X181224300Y-76783801D01*
X181219792Y-76780644D01*
X181219789Y-76780642D01*
X181127439Y-76715978D01*
X181036749Y-76652476D01*
X181031767Y-76650153D01*
X181031762Y-76650150D01*
X180997543Y-76634194D01*
X180944258Y-76587277D01*
X180924797Y-76519000D01*
X180945339Y-76451040D01*
X180997543Y-76405804D01*
X181031762Y-76389848D01*
X181031767Y-76389845D01*
X181036749Y-76387522D01*
X181197061Y-76275270D01*
X181219789Y-76259356D01*
X181219792Y-76259354D01*
X181224300Y-76256197D01*
X181386198Y-76094299D01*
X181517523Y-75906748D01*
X181519846Y-75901766D01*
X181519849Y-75901761D01*
X181611961Y-75704224D01*
X181611961Y-75704223D01*
X181614284Y-75699242D01*
X181615986Y-75692892D01*
X181672119Y-75483401D01*
X181672119Y-75483399D01*
X181673543Y-75478086D01*
X181693498Y-75249999D01*
X181673543Y-75021912D01*
X181654924Y-74952425D01*
X181615707Y-74806066D01*
X181615706Y-74806064D01*
X181614284Y-74800756D01*
X181583513Y-74734767D01*
X181519849Y-74598237D01*
X181519846Y-74598232D01*
X181517523Y-74593250D01*
X181386198Y-74405699D01*
X181224300Y-74243801D01*
X181219792Y-74240644D01*
X181219789Y-74240642D01*
X181127439Y-74175978D01*
X181036749Y-74112476D01*
X181031767Y-74110153D01*
X181031762Y-74110150D01*
X180997543Y-74094194D01*
X180944258Y-74047277D01*
X180924797Y-73979000D01*
X180945339Y-73911040D01*
X180997543Y-73865804D01*
X181031762Y-73849848D01*
X181031767Y-73849845D01*
X181036749Y-73847522D01*
X181197061Y-73735270D01*
X181219789Y-73719356D01*
X181219792Y-73719354D01*
X181224300Y-73716197D01*
X181386198Y-73554299D01*
X181391668Y-73546488D01*
X181493588Y-73400930D01*
X181517523Y-73366748D01*
X181519846Y-73361766D01*
X181519849Y-73361761D01*
X181611961Y-73164224D01*
X181611961Y-73164223D01*
X181614284Y-73159242D01*
X181629116Y-73103891D01*
X181672119Y-72943401D01*
X181672119Y-72943399D01*
X181673543Y-72938086D01*
X181693498Y-72709999D01*
X181673543Y-72481912D01*
X181662891Y-72442158D01*
X181615707Y-72266066D01*
X181615706Y-72266064D01*
X181614284Y-72260756D01*
X181607395Y-72245983D01*
X181519849Y-72058237D01*
X181519846Y-72058232D01*
X181517523Y-72053250D01*
X181431263Y-71930058D01*
X181389357Y-71870210D01*
X181389355Y-71870207D01*
X181386198Y-71865699D01*
X181224300Y-71703801D01*
X181219792Y-71700644D01*
X181219789Y-71700642D01*
X181127439Y-71635978D01*
X181036749Y-71572476D01*
X181031767Y-71570153D01*
X181031762Y-71570150D01*
X180997543Y-71554194D01*
X180944258Y-71507277D01*
X180924797Y-71439000D01*
X180945339Y-71371040D01*
X180997543Y-71325804D01*
X181031762Y-71309848D01*
X181031767Y-71309845D01*
X181036749Y-71307522D01*
X181197061Y-71195270D01*
X181219789Y-71179356D01*
X181219792Y-71179354D01*
X181224300Y-71176197D01*
X181386198Y-71014299D01*
X181517523Y-70826748D01*
X181519846Y-70821766D01*
X181519849Y-70821761D01*
X181611961Y-70624224D01*
X181611961Y-70624223D01*
X181614284Y-70619242D01*
X181673543Y-70398086D01*
X181693498Y-70169999D01*
X181673543Y-69941912D01*
X181672119Y-69936597D01*
X181615707Y-69726066D01*
X181615706Y-69726064D01*
X181614284Y-69720756D01*
X181611961Y-69715774D01*
X181519849Y-69518237D01*
X181519846Y-69518232D01*
X181517523Y-69513250D01*
X181386198Y-69325699D01*
X181224300Y-69163801D01*
X181219792Y-69160644D01*
X181219789Y-69160642D01*
X181127439Y-69095978D01*
X181036749Y-69032476D01*
X181031767Y-69030153D01*
X181031762Y-69030150D01*
X180997543Y-69014194D01*
X180944258Y-68967277D01*
X180924797Y-68899000D01*
X180945339Y-68831040D01*
X180997543Y-68785804D01*
X181031762Y-68769848D01*
X181031767Y-68769845D01*
X181036749Y-68767522D01*
X181197061Y-68655270D01*
X181219789Y-68639356D01*
X181219792Y-68639354D01*
X181224300Y-68636197D01*
X181386198Y-68474299D01*
X181517523Y-68286748D01*
X181519846Y-68281766D01*
X181519849Y-68281761D01*
X181611961Y-68084224D01*
X181611961Y-68084223D01*
X181614284Y-68079242D01*
X181673543Y-67858086D01*
X181693498Y-67629999D01*
X181673543Y-67401912D01*
X181626273Y-67225499D01*
X181615707Y-67186066D01*
X181615706Y-67186064D01*
X181614284Y-67180756D01*
X181576175Y-67099030D01*
X181519849Y-66978237D01*
X181519846Y-66978232D01*
X181517523Y-66973250D01*
X181398499Y-66803266D01*
X181389357Y-66790210D01*
X181389355Y-66790207D01*
X181386198Y-66785699D01*
X181224300Y-66623801D01*
X181219792Y-66620644D01*
X181219789Y-66620642D01*
X181127439Y-66555978D01*
X181036749Y-66492476D01*
X181031767Y-66490153D01*
X181031762Y-66490150D01*
X180997543Y-66474194D01*
X180944258Y-66427277D01*
X180924797Y-66359000D01*
X180945339Y-66291040D01*
X180997543Y-66245804D01*
X181031762Y-66229848D01*
X181031767Y-66229845D01*
X181036749Y-66227522D01*
X181197061Y-66115270D01*
X181219789Y-66099356D01*
X181219792Y-66099354D01*
X181224300Y-66096197D01*
X181386198Y-65934299D01*
X181517523Y-65746748D01*
X181519846Y-65741766D01*
X181519849Y-65741761D01*
X181611961Y-65544224D01*
X181611961Y-65544223D01*
X181614284Y-65539242D01*
X181673543Y-65318086D01*
X181693498Y-65089999D01*
X181673543Y-64861912D01*
X181631160Y-64703738D01*
X181615707Y-64646066D01*
X181615706Y-64646064D01*
X181614284Y-64640756D01*
X181592731Y-64594535D01*
X181519849Y-64438237D01*
X181519846Y-64438232D01*
X181517523Y-64433250D01*
X181386198Y-64245699D01*
X181224300Y-64083801D01*
X181219792Y-64080644D01*
X181219789Y-64080642D01*
X181127439Y-64015978D01*
X181036749Y-63952476D01*
X181031767Y-63950153D01*
X181031762Y-63950150D01*
X180997543Y-63934194D01*
X180944258Y-63887277D01*
X180924797Y-63819000D01*
X180945339Y-63751040D01*
X180997543Y-63705804D01*
X181031762Y-63689848D01*
X181031767Y-63689845D01*
X181036749Y-63687522D01*
X181197061Y-63575270D01*
X181219789Y-63559356D01*
X181219792Y-63559354D01*
X181224300Y-63556197D01*
X181386198Y-63394299D01*
X181517523Y-63206748D01*
X181519846Y-63201766D01*
X181519849Y-63201761D01*
X181611961Y-63004224D01*
X181611961Y-63004223D01*
X181614284Y-62999242D01*
X181653932Y-62851277D01*
X181672119Y-62783401D01*
X181672119Y-62783399D01*
X181673543Y-62778086D01*
X181693498Y-62549999D01*
X181673543Y-62321912D01*
X181672119Y-62316597D01*
X181615707Y-62106066D01*
X181615706Y-62106064D01*
X181614284Y-62100756D01*
X181584433Y-62036739D01*
X181519849Y-61898237D01*
X181519846Y-61898232D01*
X181517523Y-61893250D01*
X181438129Y-61779864D01*
X181389357Y-61710210D01*
X181389355Y-61710207D01*
X181386198Y-61705699D01*
X181224300Y-61543801D01*
X181219792Y-61540644D01*
X181219789Y-61540642D01*
X181127439Y-61475978D01*
X181036749Y-61412476D01*
X181031767Y-61410153D01*
X181031762Y-61410150D01*
X180997543Y-61394194D01*
X180944258Y-61347277D01*
X180924797Y-61279000D01*
X180945339Y-61211040D01*
X180997543Y-61165804D01*
X181031762Y-61149848D01*
X181031767Y-61149845D01*
X181036749Y-61147522D01*
X181197061Y-61035270D01*
X181219789Y-61019356D01*
X181219792Y-61019354D01*
X181224300Y-61016197D01*
X181386198Y-60854299D01*
X181517523Y-60666748D01*
X181519846Y-60661766D01*
X181519849Y-60661761D01*
X181611961Y-60464224D01*
X181611961Y-60464223D01*
X181614284Y-60459242D01*
X181673543Y-60238086D01*
X181693498Y-60009999D01*
X181673543Y-59781912D01*
X181672119Y-59776597D01*
X181615707Y-59566066D01*
X181615706Y-59566064D01*
X181614284Y-59560756D01*
X181611961Y-59555774D01*
X181519849Y-59358237D01*
X181519846Y-59358232D01*
X181517523Y-59353250D01*
X181438129Y-59239864D01*
X181389357Y-59170210D01*
X181389355Y-59170207D01*
X181386198Y-59165699D01*
X181224300Y-59003801D01*
X181219792Y-59000644D01*
X181219789Y-59000642D01*
X181115544Y-58927649D01*
X181036749Y-58872476D01*
X181031767Y-58870153D01*
X181031762Y-58870150D01*
X180834225Y-58778038D01*
X180834224Y-58778038D01*
X180829243Y-58775715D01*
X180823935Y-58774293D01*
X180823933Y-58774292D01*
X180613402Y-58717880D01*
X180613400Y-58717880D01*
X180608087Y-58716456D01*
X180380000Y-58696501D01*
X180151913Y-58716456D01*
X180146600Y-58717880D01*
X180146598Y-58717880D01*
X179936067Y-58774292D01*
X179936065Y-58774293D01*
X179930757Y-58775715D01*
X179925776Y-58778038D01*
X179925775Y-58778038D01*
X179728238Y-58870150D01*
X179728233Y-58870153D01*
X179723251Y-58872476D01*
X179644456Y-58927649D01*
X179540211Y-59000642D01*
X179540208Y-59000644D01*
X179535700Y-59003801D01*
X179373802Y-59165699D01*
X179370645Y-59170207D01*
X179370643Y-59170210D01*
X179321871Y-59239864D01*
X179242477Y-59353250D01*
X179240154Y-59358232D01*
X179240151Y-59358237D01*
X179148039Y-59555774D01*
X179145716Y-59560756D01*
X179144294Y-59566064D01*
X179144293Y-59566066D01*
X179087881Y-59776597D01*
X179086457Y-59781912D01*
X179066502Y-60009999D01*
X179086457Y-60238086D01*
X179145716Y-60459242D01*
X179148039Y-60464223D01*
X179148039Y-60464224D01*
X179240151Y-60661761D01*
X179240154Y-60661766D01*
X179242477Y-60666748D01*
X179373802Y-60854299D01*
X179535700Y-61016197D01*
X179540208Y-61019354D01*
X179540211Y-61019356D01*
X179562939Y-61035270D01*
X179723251Y-61147522D01*
X179728233Y-61149845D01*
X179728238Y-61149848D01*
X179762457Y-61165804D01*
X179815742Y-61212721D01*
X179835203Y-61280998D01*
X179814661Y-61348958D01*
X179762457Y-61394194D01*
X179728238Y-61410150D01*
X179728233Y-61410153D01*
X179723251Y-61412476D01*
X179632561Y-61475978D01*
X179540211Y-61540642D01*
X179540208Y-61540644D01*
X179535700Y-61543801D01*
X179373802Y-61705699D01*
X179370645Y-61710207D01*
X179370643Y-61710210D01*
X179321871Y-61779864D01*
X179242477Y-61893250D01*
X179240154Y-61898232D01*
X179240151Y-61898237D01*
X179175567Y-62036739D01*
X179145716Y-62100756D01*
X179144294Y-62106064D01*
X179144293Y-62106066D01*
X179087881Y-62316597D01*
X179086457Y-62321912D01*
X179066502Y-62549999D01*
X179086457Y-62778086D01*
X179087881Y-62783399D01*
X179087881Y-62783401D01*
X179106069Y-62851277D01*
X179145716Y-62999242D01*
X179148039Y-63004223D01*
X179148039Y-63004224D01*
X179240151Y-63201761D01*
X179240154Y-63201766D01*
X179242477Y-63206748D01*
X179373802Y-63394299D01*
X179535700Y-63556197D01*
X179540208Y-63559354D01*
X179540211Y-63559356D01*
X179562939Y-63575270D01*
X179723251Y-63687522D01*
X179728233Y-63689845D01*
X179728238Y-63689848D01*
X179762457Y-63705804D01*
X179815742Y-63752721D01*
X179835203Y-63820998D01*
X179814661Y-63888958D01*
X179762457Y-63934194D01*
X179728238Y-63950150D01*
X179728233Y-63950153D01*
X179723251Y-63952476D01*
X179632561Y-64015978D01*
X179540211Y-64080642D01*
X179540208Y-64080644D01*
X179535700Y-64083801D01*
X179373802Y-64245699D01*
X179242477Y-64433250D01*
X179240154Y-64438232D01*
X179240151Y-64438237D01*
X179167269Y-64594535D01*
X179145716Y-64640756D01*
X179144294Y-64646064D01*
X179144293Y-64646066D01*
X179128840Y-64703738D01*
X179086457Y-64861912D01*
X179066502Y-65089999D01*
X179086457Y-65318086D01*
X179145716Y-65539242D01*
X179148039Y-65544223D01*
X179148039Y-65544224D01*
X179240151Y-65741761D01*
X179240154Y-65741766D01*
X179242477Y-65746748D01*
X179373802Y-65934299D01*
X179535700Y-66096197D01*
X179540208Y-66099354D01*
X179540211Y-66099356D01*
X179562939Y-66115270D01*
X179723251Y-66227522D01*
X179728233Y-66229845D01*
X179728238Y-66229848D01*
X179762457Y-66245804D01*
X179815742Y-66292721D01*
X179835203Y-66360998D01*
X179814661Y-66428958D01*
X179762457Y-66474194D01*
X179728238Y-66490150D01*
X179728233Y-66490153D01*
X179723251Y-66492476D01*
X179632561Y-66555978D01*
X179540211Y-66620642D01*
X179540208Y-66620644D01*
X179535700Y-66623801D01*
X179373802Y-66785699D01*
X179370645Y-66790207D01*
X179370643Y-66790210D01*
X179361501Y-66803266D01*
X179242477Y-66973250D01*
X179240154Y-66978232D01*
X179240151Y-66978237D01*
X179183825Y-67099030D01*
X179145716Y-67180756D01*
X179144294Y-67186064D01*
X179144293Y-67186066D01*
X179133727Y-67225499D01*
X179086457Y-67401912D01*
X179066502Y-67629999D01*
X179086457Y-67858086D01*
X179145716Y-68079242D01*
X179148039Y-68084223D01*
X179148039Y-68084224D01*
X179240151Y-68281761D01*
X179240154Y-68281766D01*
X179242477Y-68286748D01*
X179373802Y-68474299D01*
X179535700Y-68636197D01*
X179540208Y-68639354D01*
X179540211Y-68639356D01*
X179562939Y-68655270D01*
X179723251Y-68767522D01*
X179728233Y-68769845D01*
X179728238Y-68769848D01*
X179762457Y-68785804D01*
X179815742Y-68832721D01*
X179835203Y-68900998D01*
X179814661Y-68968958D01*
X179762457Y-69014194D01*
X179728238Y-69030150D01*
X179728233Y-69030153D01*
X179723251Y-69032476D01*
X179632561Y-69095978D01*
X179540211Y-69160642D01*
X179540208Y-69160644D01*
X179535700Y-69163801D01*
X179373802Y-69325699D01*
X179370645Y-69330207D01*
X179370643Y-69330210D01*
X179263819Y-69482770D01*
X179208362Y-69527098D01*
X179160606Y-69536499D01*
X174509500Y-69536499D01*
X174441379Y-69516497D01*
X174394886Y-69462841D01*
X174383500Y-69410499D01*
X174383500Y-55578767D01*
X174384027Y-55567584D01*
X174385702Y-55560091D01*
X174383562Y-55492014D01*
X174383500Y-55488055D01*
X174383500Y-55460144D01*
X174382995Y-55456144D01*
X174382062Y-55444301D01*
X174380922Y-55408029D01*
X174380673Y-55400110D01*
X174375022Y-55380658D01*
X174371014Y-55361306D01*
X174369467Y-55349063D01*
X174368474Y-55341203D01*
X174365556Y-55333832D01*
X174352200Y-55300097D01*
X174348355Y-55288870D01*
X174347085Y-55284500D01*
X174336018Y-55246407D01*
X174331984Y-55239585D01*
X174331981Y-55239579D01*
X174325706Y-55228968D01*
X174317010Y-55211218D01*
X174312472Y-55199756D01*
X174312469Y-55199751D01*
X174309552Y-55192383D01*
X174283573Y-55156625D01*
X174277057Y-55146707D01*
X174258575Y-55115457D01*
X174254542Y-55108637D01*
X174240218Y-55094313D01*
X174227376Y-55079278D01*
X174215472Y-55062893D01*
X174181406Y-55034711D01*
X174172627Y-55026722D01*
X173278652Y-54132747D01*
X173271112Y-54124461D01*
X173267000Y-54117982D01*
X173217348Y-54071356D01*
X173214507Y-54068602D01*
X173194770Y-54048865D01*
X173191573Y-54046385D01*
X173182551Y-54038680D01*
X173156100Y-54013841D01*
X173150321Y-54008414D01*
X173143375Y-54004595D01*
X173143372Y-54004593D01*
X173132566Y-53998652D01*
X173116047Y-53987801D01*
X173115583Y-53987441D01*
X173100041Y-53975386D01*
X173092772Y-53972241D01*
X173092768Y-53972238D01*
X173059463Y-53957826D01*
X173048813Y-53952609D01*
X173010060Y-53931305D01*
X172990437Y-53926267D01*
X172971734Y-53919863D01*
X172960420Y-53914967D01*
X172960419Y-53914967D01*
X172953145Y-53911819D01*
X172945322Y-53910580D01*
X172945312Y-53910577D01*
X172909476Y-53904901D01*
X172897856Y-53902495D01*
X172862711Y-53893472D01*
X172862710Y-53893472D01*
X172855030Y-53891500D01*
X172834776Y-53891500D01*
X172815065Y-53889949D01*
X172802886Y-53888020D01*
X172795057Y-53886780D01*
X172787165Y-53887526D01*
X172751039Y-53890941D01*
X172739181Y-53891500D01*
X171984500Y-53891500D01*
X171916379Y-53871498D01*
X171869886Y-53817842D01*
X171858500Y-53765500D01*
X171858500Y-53626866D01*
X171851745Y-53564684D01*
X171800615Y-53428295D01*
X171713261Y-53311739D01*
X171596705Y-53224385D01*
X171460316Y-53173255D01*
X171398134Y-53166500D01*
X169601866Y-53166500D01*
X169539684Y-53173255D01*
X169403295Y-53224385D01*
X169286739Y-53311739D01*
X169199385Y-53428295D01*
X169148255Y-53564684D01*
X169141500Y-53626866D01*
X169141500Y-55423134D01*
X169148255Y-55485316D01*
X169199385Y-55621705D01*
X169286739Y-55738261D01*
X169403295Y-55825615D01*
X169411704Y-55828767D01*
X169411705Y-55828768D01*
X169520451Y-55869535D01*
X169577216Y-55912176D01*
X169601916Y-55978738D01*
X169586709Y-56048087D01*
X169567316Y-56074568D01*
X169464520Y-56182138D01*
X169440629Y-56207138D01*
X169314743Y-56391680D01*
X169276011Y-56475121D01*
X169225000Y-56585016D01*
X169220688Y-56594305D01*
X169160989Y-56809570D01*
X169137251Y-57031695D01*
X166282600Y-57031695D01*
X165898652Y-56647747D01*
X165891112Y-56639461D01*
X165887000Y-56632982D01*
X165837348Y-56586356D01*
X165834507Y-56583602D01*
X165814770Y-56563865D01*
X165811573Y-56561385D01*
X165802551Y-56553680D01*
X165776100Y-56528841D01*
X165770321Y-56523414D01*
X165763375Y-56519595D01*
X165763372Y-56519593D01*
X165752566Y-56513652D01*
X165736047Y-56502801D01*
X165729633Y-56497826D01*
X165720041Y-56490386D01*
X165712772Y-56487241D01*
X165712768Y-56487238D01*
X165679463Y-56472826D01*
X165668813Y-56467609D01*
X165630060Y-56446305D01*
X165610437Y-56441267D01*
X165591734Y-56434863D01*
X165580420Y-56429967D01*
X165580419Y-56429967D01*
X165573145Y-56426819D01*
X165565322Y-56425580D01*
X165565312Y-56425577D01*
X165529476Y-56419901D01*
X165517856Y-56417495D01*
X165482711Y-56408472D01*
X165482710Y-56408472D01*
X165475030Y-56406500D01*
X165454776Y-56406500D01*
X165435065Y-56404949D01*
X165433159Y-56404647D01*
X165415057Y-56401780D01*
X165379661Y-56405126D01*
X165371039Y-56405941D01*
X165359181Y-56406500D01*
X164776805Y-56406500D01*
X164708684Y-56386498D01*
X164671013Y-56348940D01*
X164582822Y-56212617D01*
X164582820Y-56212614D01*
X164580014Y-56208277D01*
X164575577Y-56203401D01*
X164432798Y-56046488D01*
X164401746Y-55982642D01*
X164410141Y-55912143D01*
X164455317Y-55857375D01*
X164481761Y-55843706D01*
X164588297Y-55803767D01*
X164596705Y-55800615D01*
X164713261Y-55713261D01*
X164800615Y-55596705D01*
X164851745Y-55460316D01*
X164858500Y-55398134D01*
X164858500Y-53601866D01*
X164851745Y-53539684D01*
X164800615Y-53403295D01*
X164713261Y-53286739D01*
X164596705Y-53199385D01*
X164460316Y-53148255D01*
X164398134Y-53141500D01*
X162601866Y-53141500D01*
X162539684Y-53148255D01*
X162403295Y-53199385D01*
X162286739Y-53286739D01*
X162199385Y-53403295D01*
X162148255Y-53539684D01*
X162141500Y-53601866D01*
X162141500Y-55398134D01*
X162148255Y-55460316D01*
X162199385Y-55596705D01*
X162286739Y-55713261D01*
X162403295Y-55800615D01*
X162411704Y-55803767D01*
X162411705Y-55803768D01*
X162520451Y-55844535D01*
X162577216Y-55887176D01*
X162601916Y-55953738D01*
X162586709Y-56023087D01*
X162567316Y-56049568D01*
X162440629Y-56182138D01*
X162437715Y-56186410D01*
X162437714Y-56186411D01*
X162325095Y-56351504D01*
X162270184Y-56396507D01*
X162221007Y-56406500D01*
X158026805Y-56406500D01*
X157958684Y-56386498D01*
X157921013Y-56348940D01*
X157832822Y-56212617D01*
X157832820Y-56212614D01*
X157830014Y-56208277D01*
X157825577Y-56203401D01*
X157682798Y-56046488D01*
X157651746Y-55982642D01*
X157660141Y-55912143D01*
X157705317Y-55857375D01*
X157731761Y-55843706D01*
X157838297Y-55803767D01*
X157846705Y-55800615D01*
X157963261Y-55713261D01*
X158050615Y-55596705D01*
X158101745Y-55460316D01*
X158108500Y-55398134D01*
X158108500Y-53601866D01*
X158101745Y-53539684D01*
X158050615Y-53403295D01*
X157963261Y-53286739D01*
X157846705Y-53199385D01*
X157710316Y-53148255D01*
X157648134Y-53141500D01*
X155851866Y-53141500D01*
X155789684Y-53148255D01*
X155653295Y-53199385D01*
X155536739Y-53286739D01*
X155449385Y-53403295D01*
X155398255Y-53539684D01*
X155391500Y-53601866D01*
X155391500Y-55398134D01*
X155398255Y-55460316D01*
X155449385Y-55596705D01*
X155536739Y-55713261D01*
X155653295Y-55800615D01*
X155661704Y-55803767D01*
X155661705Y-55803768D01*
X155770451Y-55844535D01*
X155827216Y-55887176D01*
X155851916Y-55953738D01*
X155836709Y-56023087D01*
X155817316Y-56049568D01*
X155690629Y-56182138D01*
X155687715Y-56186410D01*
X155687714Y-56186411D01*
X155575095Y-56351504D01*
X155520184Y-56396507D01*
X155471007Y-56406500D01*
X151276805Y-56406500D01*
X151208684Y-56386498D01*
X151171013Y-56348940D01*
X151082822Y-56212617D01*
X151082820Y-56212614D01*
X151080014Y-56208277D01*
X151075577Y-56203401D01*
X150932798Y-56046488D01*
X150901746Y-55982642D01*
X150910141Y-55912143D01*
X150955317Y-55857375D01*
X150981761Y-55843706D01*
X151088297Y-55803767D01*
X151096705Y-55800615D01*
X151213261Y-55713261D01*
X151300615Y-55596705D01*
X151351745Y-55460316D01*
X151358500Y-55398134D01*
X151358500Y-53601866D01*
X151351745Y-53539684D01*
X151300615Y-53403295D01*
X151213261Y-53286739D01*
X151096705Y-53199385D01*
X150960316Y-53148255D01*
X150898134Y-53141500D01*
X149101866Y-53141500D01*
X149039684Y-53148255D01*
X148903295Y-53199385D01*
X148786739Y-53286739D01*
X148699385Y-53403295D01*
X148648255Y-53539684D01*
X148641500Y-53601866D01*
X148641500Y-55398134D01*
X148648255Y-55460316D01*
X148699385Y-55596705D01*
X148786739Y-55713261D01*
X148903295Y-55800615D01*
X148911704Y-55803767D01*
X148911705Y-55803768D01*
X149020451Y-55844535D01*
X149077216Y-55887176D01*
X149101916Y-55953738D01*
X149086709Y-56023087D01*
X149067316Y-56049568D01*
X148940629Y-56182138D01*
X148937715Y-56186410D01*
X148937714Y-56186411D01*
X148825095Y-56351504D01*
X148770184Y-56396507D01*
X148721007Y-56406500D01*
X144526805Y-56406500D01*
X144458684Y-56386498D01*
X144421013Y-56348940D01*
X144332822Y-56212617D01*
X144332820Y-56212614D01*
X144330014Y-56208277D01*
X144325577Y-56203401D01*
X144182798Y-56046488D01*
X144151746Y-55982642D01*
X144160141Y-55912143D01*
X144205317Y-55857375D01*
X144231761Y-55843706D01*
X144338297Y-55803767D01*
X144346705Y-55800615D01*
X144463261Y-55713261D01*
X144550615Y-55596705D01*
X144601745Y-55460316D01*
X144608500Y-55398134D01*
X144608500Y-53601866D01*
X144601745Y-53539684D01*
X144550615Y-53403295D01*
X144463261Y-53286739D01*
X144346705Y-53199385D01*
X144210316Y-53148255D01*
X144148134Y-53141500D01*
X142351866Y-53141500D01*
X142289684Y-53148255D01*
X142153295Y-53199385D01*
X142036739Y-53286739D01*
X141949385Y-53403295D01*
X141898255Y-53539684D01*
X141891500Y-53601866D01*
X141891500Y-55398134D01*
X141898255Y-55460316D01*
X141949385Y-55596705D01*
X142036739Y-55713261D01*
X142153295Y-55800615D01*
X142161704Y-55803767D01*
X142161705Y-55803768D01*
X142270451Y-55844535D01*
X142327216Y-55887176D01*
X142351916Y-55953738D01*
X142336709Y-56023087D01*
X142317316Y-56049568D01*
X142190629Y-56182138D01*
X142064743Y-56366680D01*
X142025223Y-56451819D01*
X141984917Y-56538652D01*
X141970688Y-56569305D01*
X141910989Y-56784570D01*
X141887251Y-57006695D01*
X141887548Y-57011848D01*
X141887548Y-57011851D01*
X141889045Y-57037815D01*
X141900110Y-57229715D01*
X141901247Y-57234761D01*
X141901248Y-57234767D01*
X141925304Y-57341508D01*
X141949222Y-57447639D01*
X142033266Y-57654616D01*
X142073006Y-57719466D01*
X142147291Y-57840688D01*
X142149987Y-57845088D01*
X142296250Y-58013938D01*
X142468126Y-58156632D01*
X142661000Y-58269338D01*
X142869692Y-58349030D01*
X142874760Y-58350061D01*
X142874763Y-58350062D01*
X142982017Y-58371883D01*
X143088597Y-58393567D01*
X143093772Y-58393757D01*
X143093774Y-58393757D01*
X143306673Y-58401564D01*
X143306677Y-58401564D01*
X143311837Y-58401753D01*
X143316957Y-58401097D01*
X143316959Y-58401097D01*
X143528288Y-58374025D01*
X143528289Y-58374025D01*
X143533416Y-58373368D01*
X143538366Y-58371883D01*
X143742429Y-58310661D01*
X143742434Y-58310659D01*
X143747384Y-58309174D01*
X143947994Y-58210896D01*
X144129860Y-58081173D01*
X144288096Y-57923489D01*
X144300106Y-57906776D01*
X144415435Y-57746277D01*
X144418453Y-57742077D01*
X144420746Y-57737437D01*
X144422446Y-57734608D01*
X144474674Y-57686518D01*
X144530451Y-57673500D01*
X148724274Y-57673500D01*
X148792395Y-57693502D01*
X148831707Y-57733665D01*
X148899987Y-57845088D01*
X149046250Y-58013938D01*
X149218126Y-58156632D01*
X149411000Y-58269338D01*
X149619692Y-58349030D01*
X149624760Y-58350061D01*
X149624763Y-58350062D01*
X149732017Y-58371883D01*
X149838597Y-58393567D01*
X149843772Y-58393757D01*
X149843774Y-58393757D01*
X150056673Y-58401564D01*
X150056677Y-58401564D01*
X150061837Y-58401753D01*
X150066957Y-58401097D01*
X150066959Y-58401097D01*
X150278288Y-58374025D01*
X150278289Y-58374025D01*
X150283416Y-58373368D01*
X150288366Y-58371883D01*
X150492429Y-58310661D01*
X150492434Y-58310659D01*
X150497384Y-58309174D01*
X150697994Y-58210896D01*
X150879860Y-58081173D01*
X151038096Y-57923489D01*
X151050106Y-57906776D01*
X151165435Y-57746277D01*
X151168453Y-57742077D01*
X151170746Y-57737437D01*
X151172446Y-57734608D01*
X151224674Y-57686518D01*
X151280451Y-57673500D01*
X155474274Y-57673500D01*
X155542395Y-57693502D01*
X155581707Y-57733665D01*
X155649987Y-57845088D01*
X155796250Y-58013938D01*
X155968126Y-58156632D01*
X156161000Y-58269338D01*
X156369692Y-58349030D01*
X156374760Y-58350061D01*
X156374763Y-58350062D01*
X156482017Y-58371883D01*
X156588597Y-58393567D01*
X156593772Y-58393757D01*
X156593774Y-58393757D01*
X156806673Y-58401564D01*
X156806677Y-58401564D01*
X156811837Y-58401753D01*
X156816957Y-58401097D01*
X156816959Y-58401097D01*
X157028288Y-58374025D01*
X157028289Y-58374025D01*
X157033416Y-58373368D01*
X157038366Y-58371883D01*
X157242429Y-58310661D01*
X157242434Y-58310659D01*
X157247384Y-58309174D01*
X157447994Y-58210896D01*
X157629860Y-58081173D01*
X157788096Y-57923489D01*
X157800106Y-57906776D01*
X157915435Y-57746277D01*
X157918453Y-57742077D01*
X157920746Y-57737437D01*
X157922446Y-57734608D01*
X157974674Y-57686518D01*
X158030451Y-57673500D01*
X162224274Y-57673500D01*
X162292395Y-57693502D01*
X162331707Y-57733665D01*
X162399987Y-57845088D01*
X162546250Y-58013938D01*
X162718126Y-58156632D01*
X162911000Y-58269338D01*
X163119692Y-58349030D01*
X163124760Y-58350061D01*
X163124763Y-58350062D01*
X163232017Y-58371883D01*
X163338597Y-58393567D01*
X163343772Y-58393757D01*
X163343774Y-58393757D01*
X163556673Y-58401564D01*
X163556677Y-58401564D01*
X163561837Y-58401753D01*
X163566957Y-58401097D01*
X163566959Y-58401097D01*
X163778288Y-58374025D01*
X163778289Y-58374025D01*
X163783416Y-58373368D01*
X163788366Y-58371883D01*
X163992429Y-58310661D01*
X163992434Y-58310659D01*
X163997384Y-58309174D01*
X164197994Y-58210896D01*
X164379860Y-58081173D01*
X164538096Y-57923489D01*
X164550106Y-57906776D01*
X164665435Y-57746277D01*
X164668453Y-57742077D01*
X164670746Y-57737437D01*
X164672446Y-57734608D01*
X164724674Y-57686518D01*
X164780451Y-57673500D01*
X165080406Y-57673500D01*
X165148527Y-57693502D01*
X165169501Y-57710405D01*
X169149778Y-61690682D01*
X169183804Y-61752994D01*
X169182100Y-61813448D01*
X169160989Y-61889570D01*
X169160441Y-61894700D01*
X169160440Y-61894704D01*
X169154597Y-61949385D01*
X169137251Y-62111695D01*
X169137548Y-62116848D01*
X169137548Y-62116851D01*
X169149065Y-62316597D01*
X169150110Y-62334715D01*
X169151247Y-62339761D01*
X169151248Y-62339767D01*
X169183453Y-62482668D01*
X169178917Y-62553520D01*
X169149631Y-62599464D01*
X166629500Y-65119595D01*
X166567188Y-65153621D01*
X166540405Y-65156500D01*
X164776805Y-65156500D01*
X164708684Y-65136498D01*
X164671013Y-65098940D01*
X164582822Y-64962617D01*
X164582820Y-64962614D01*
X164580014Y-64958277D01*
X164576532Y-64954450D01*
X164432798Y-64796488D01*
X164401746Y-64732642D01*
X164410141Y-64662143D01*
X164455317Y-64607375D01*
X164481761Y-64593706D01*
X164588297Y-64553767D01*
X164596705Y-64550615D01*
X164713261Y-64463261D01*
X164800615Y-64346705D01*
X164851745Y-64210316D01*
X164858500Y-64148134D01*
X164858500Y-62351866D01*
X164851745Y-62289684D01*
X164800615Y-62153295D01*
X164713261Y-62036739D01*
X164596705Y-61949385D01*
X164460316Y-61898255D01*
X164398134Y-61891500D01*
X162601866Y-61891500D01*
X162539684Y-61898255D01*
X162403295Y-61949385D01*
X162286739Y-62036739D01*
X162199385Y-62153295D01*
X162148255Y-62289684D01*
X162141500Y-62351866D01*
X162141500Y-64148134D01*
X162148255Y-64210316D01*
X162199385Y-64346705D01*
X162286739Y-64463261D01*
X162403295Y-64550615D01*
X162411704Y-64553767D01*
X162411705Y-64553768D01*
X162520451Y-64594535D01*
X162577216Y-64637176D01*
X162601916Y-64703738D01*
X162586709Y-64773087D01*
X162567316Y-64799568D01*
X162505931Y-64863804D01*
X162440629Y-64932138D01*
X162437715Y-64936410D01*
X162437714Y-64936411D01*
X162325095Y-65101504D01*
X162270184Y-65146507D01*
X162221007Y-65156500D01*
X158026805Y-65156500D01*
X157958684Y-65136498D01*
X157921013Y-65098940D01*
X157832822Y-64962617D01*
X157832820Y-64962614D01*
X157830014Y-64958277D01*
X157826532Y-64954450D01*
X157682798Y-64796488D01*
X157651746Y-64732642D01*
X157660141Y-64662143D01*
X157705317Y-64607375D01*
X157731761Y-64593706D01*
X157838297Y-64553767D01*
X157846705Y-64550615D01*
X157963261Y-64463261D01*
X158050615Y-64346705D01*
X158101745Y-64210316D01*
X158108500Y-64148134D01*
X158108500Y-62351866D01*
X158101745Y-62289684D01*
X158050615Y-62153295D01*
X157963261Y-62036739D01*
X157846705Y-61949385D01*
X157710316Y-61898255D01*
X157648134Y-61891500D01*
X155851866Y-61891500D01*
X155789684Y-61898255D01*
X155653295Y-61949385D01*
X155536739Y-62036739D01*
X155449385Y-62153295D01*
X155398255Y-62289684D01*
X155391500Y-62351866D01*
X155391500Y-64148134D01*
X155398255Y-64210316D01*
X155449385Y-64346705D01*
X155536739Y-64463261D01*
X155653295Y-64550615D01*
X155661704Y-64553767D01*
X155661705Y-64553768D01*
X155770451Y-64594535D01*
X155827216Y-64637176D01*
X155851916Y-64703738D01*
X155836709Y-64773087D01*
X155817316Y-64799568D01*
X155755931Y-64863804D01*
X155690629Y-64932138D01*
X155687715Y-64936410D01*
X155687714Y-64936411D01*
X155575095Y-65101504D01*
X155520184Y-65146507D01*
X155471007Y-65156500D01*
X151276805Y-65156500D01*
X151208684Y-65136498D01*
X151171013Y-65098940D01*
X151082822Y-64962617D01*
X151082820Y-64962614D01*
X151080014Y-64958277D01*
X151076532Y-64954450D01*
X150932798Y-64796488D01*
X150901746Y-64732642D01*
X150910141Y-64662143D01*
X150955317Y-64607375D01*
X150981761Y-64593706D01*
X151088297Y-64553767D01*
X151096705Y-64550615D01*
X151213261Y-64463261D01*
X151300615Y-64346705D01*
X151351745Y-64210316D01*
X151358500Y-64148134D01*
X151358500Y-62351866D01*
X151351745Y-62289684D01*
X151300615Y-62153295D01*
X151213261Y-62036739D01*
X151096705Y-61949385D01*
X150960316Y-61898255D01*
X150898134Y-61891500D01*
X149101866Y-61891500D01*
X149039684Y-61898255D01*
X148903295Y-61949385D01*
X148786739Y-62036739D01*
X148699385Y-62153295D01*
X148648255Y-62289684D01*
X148641500Y-62351866D01*
X148641500Y-64148134D01*
X148648255Y-64210316D01*
X148699385Y-64346705D01*
X148786739Y-64463261D01*
X148903295Y-64550615D01*
X148911704Y-64553767D01*
X148911705Y-64553768D01*
X149020451Y-64594535D01*
X149077216Y-64637176D01*
X149101916Y-64703738D01*
X149086709Y-64773087D01*
X149067316Y-64799568D01*
X149005931Y-64863804D01*
X148940629Y-64932138D01*
X148937715Y-64936410D01*
X148937714Y-64936411D01*
X148825095Y-65101504D01*
X148770184Y-65146507D01*
X148721007Y-65156500D01*
X144526805Y-65156500D01*
X144458684Y-65136498D01*
X144421013Y-65098940D01*
X144332822Y-64962617D01*
X144332820Y-64962614D01*
X144330014Y-64958277D01*
X144326532Y-64954450D01*
X144182798Y-64796488D01*
X144151746Y-64732642D01*
X144160141Y-64662143D01*
X144205317Y-64607375D01*
X144231761Y-64593706D01*
X144338297Y-64553767D01*
X144346705Y-64550615D01*
X144463261Y-64463261D01*
X144550615Y-64346705D01*
X144601745Y-64210316D01*
X144608500Y-64148134D01*
X144608500Y-62351866D01*
X144601745Y-62289684D01*
X144550615Y-62153295D01*
X144463261Y-62036739D01*
X144346705Y-61949385D01*
X144210316Y-61898255D01*
X144148134Y-61891500D01*
X142351866Y-61891500D01*
X142289684Y-61898255D01*
X142153295Y-61949385D01*
X142036739Y-62036739D01*
X141949385Y-62153295D01*
X141898255Y-62289684D01*
X141891500Y-62351866D01*
X141891500Y-64148134D01*
X141898255Y-64210316D01*
X141949385Y-64346705D01*
X142036739Y-64463261D01*
X142153295Y-64550615D01*
X142161704Y-64553767D01*
X142161705Y-64553768D01*
X142270451Y-64594535D01*
X142327216Y-64637176D01*
X142351916Y-64703738D01*
X142336709Y-64773087D01*
X142317316Y-64799568D01*
X142255931Y-64863804D01*
X142190629Y-64932138D01*
X142064743Y-65116680D01*
X142050898Y-65146507D01*
X141973798Y-65312606D01*
X141970688Y-65319305D01*
X141910989Y-65534570D01*
X141887251Y-65756695D01*
X141887548Y-65761848D01*
X141887548Y-65761851D01*
X141897491Y-65934299D01*
X141900110Y-65979715D01*
X141901247Y-65984761D01*
X141901248Y-65984767D01*
X141925304Y-66091508D01*
X141949222Y-66197639D01*
X142009014Y-66344890D01*
X142026662Y-66388351D01*
X142033266Y-66404616D01*
X142047153Y-66427277D01*
X142147291Y-66590688D01*
X142149987Y-66595088D01*
X142296250Y-66763938D01*
X142468126Y-66906632D01*
X142661000Y-67019338D01*
X142665825Y-67021180D01*
X142665826Y-67021181D01*
X142704159Y-67035819D01*
X142869692Y-67099030D01*
X142874760Y-67100061D01*
X142874763Y-67100062D01*
X142982017Y-67121883D01*
X143088597Y-67143567D01*
X143093772Y-67143757D01*
X143093774Y-67143757D01*
X143306673Y-67151564D01*
X143306677Y-67151564D01*
X143311837Y-67151753D01*
X143316957Y-67151097D01*
X143316959Y-67151097D01*
X143528288Y-67124025D01*
X143528289Y-67124025D01*
X143533416Y-67123368D01*
X143538366Y-67121883D01*
X143742429Y-67060661D01*
X143742434Y-67060659D01*
X143747384Y-67059174D01*
X143947994Y-66960896D01*
X144129860Y-66831173D01*
X144170967Y-66790210D01*
X144245901Y-66715537D01*
X144288096Y-66673489D01*
X144347594Y-66590689D01*
X144415435Y-66496277D01*
X144418453Y-66492077D01*
X144420746Y-66487437D01*
X144422446Y-66484608D01*
X144474674Y-66436518D01*
X144530451Y-66423500D01*
X148724274Y-66423500D01*
X148792395Y-66443502D01*
X148831707Y-66483665D01*
X148899987Y-66595088D01*
X149046250Y-66763938D01*
X149218126Y-66906632D01*
X149411000Y-67019338D01*
X149415825Y-67021180D01*
X149415826Y-67021181D01*
X149454159Y-67035819D01*
X149619692Y-67099030D01*
X149624760Y-67100061D01*
X149624763Y-67100062D01*
X149732017Y-67121883D01*
X149838597Y-67143567D01*
X149843772Y-67143757D01*
X149843774Y-67143757D01*
X150056673Y-67151564D01*
X150056677Y-67151564D01*
X150061837Y-67151753D01*
X150066957Y-67151097D01*
X150066959Y-67151097D01*
X150278288Y-67124025D01*
X150278289Y-67124025D01*
X150283416Y-67123368D01*
X150288366Y-67121883D01*
X150492429Y-67060661D01*
X150492434Y-67060659D01*
X150497384Y-67059174D01*
X150697994Y-66960896D01*
X150879860Y-66831173D01*
X150920967Y-66790210D01*
X150995901Y-66715537D01*
X151038096Y-66673489D01*
X151097594Y-66590689D01*
X151165435Y-66496277D01*
X151168453Y-66492077D01*
X151170746Y-66487437D01*
X151172446Y-66484608D01*
X151224674Y-66436518D01*
X151280451Y-66423500D01*
X154133518Y-66423500D01*
X154201639Y-66443502D01*
X154248132Y-66497158D01*
X154258236Y-66567432D01*
X154236206Y-66621705D01*
X154233414Y-66624679D01*
X154229595Y-66631626D01*
X154229594Y-66631627D01*
X154223652Y-66642434D01*
X154212801Y-66658953D01*
X154200386Y-66674959D01*
X154197241Y-66682228D01*
X154197238Y-66682232D01*
X154182826Y-66715537D01*
X154177609Y-66726187D01*
X154156305Y-66764940D01*
X154154334Y-66772615D01*
X154154334Y-66772616D01*
X154151267Y-66784562D01*
X154144863Y-66803266D01*
X154136819Y-66821855D01*
X154135580Y-66829678D01*
X154135577Y-66829688D01*
X154129901Y-66865524D01*
X154127495Y-66877144D01*
X154120773Y-66903327D01*
X154116500Y-66919970D01*
X154116500Y-66940224D01*
X154114949Y-66959934D01*
X154111780Y-66979943D01*
X154112526Y-66987835D01*
X154115941Y-67023961D01*
X154116500Y-67035819D01*
X154116500Y-73171233D01*
X154115973Y-73182416D01*
X154114298Y-73189909D01*
X154114547Y-73197835D01*
X154114547Y-73197836D01*
X154116438Y-73257986D01*
X154116500Y-73261945D01*
X154116500Y-73289856D01*
X154116997Y-73293790D01*
X154116997Y-73293791D01*
X154117005Y-73293856D01*
X154117938Y-73305693D01*
X154119327Y-73349889D01*
X154123282Y-73363501D01*
X154124978Y-73369339D01*
X154128987Y-73388700D01*
X154131526Y-73408797D01*
X154134445Y-73416168D01*
X154134445Y-73416170D01*
X154147804Y-73449912D01*
X154151649Y-73461142D01*
X154157527Y-73481373D01*
X154163982Y-73503593D01*
X154168015Y-73510412D01*
X154168017Y-73510417D01*
X154174293Y-73521028D01*
X154182988Y-73538776D01*
X154190448Y-73557617D01*
X154195110Y-73564033D01*
X154195110Y-73564034D01*
X154216436Y-73593387D01*
X154222952Y-73603307D01*
X154223910Y-73604926D01*
X154245458Y-73641362D01*
X154259779Y-73655683D01*
X154272620Y-73670717D01*
X154284528Y-73687107D01*
X154283035Y-73688192D01*
X154310561Y-73742598D01*
X154303274Y-73813219D01*
X154258963Y-73868690D01*
X154186660Y-73891500D01*
X151267101Y-73891500D01*
X151198980Y-73871498D01*
X151161309Y-73833940D01*
X151082822Y-73712617D01*
X151082820Y-73712614D01*
X151080014Y-73708277D01*
X151060751Y-73687107D01*
X150932798Y-73546488D01*
X150901746Y-73482642D01*
X150910141Y-73412143D01*
X150955317Y-73357375D01*
X150981761Y-73343706D01*
X151088297Y-73303767D01*
X151096705Y-73300615D01*
X151213261Y-73213261D01*
X151300615Y-73096705D01*
X151351745Y-72960316D01*
X151358500Y-72898134D01*
X151358500Y-71101866D01*
X151351745Y-71039684D01*
X151300615Y-70903295D01*
X151213261Y-70786739D01*
X151096705Y-70699385D01*
X150960316Y-70648255D01*
X150898134Y-70641500D01*
X149101866Y-70641500D01*
X149039684Y-70648255D01*
X148903295Y-70699385D01*
X148786739Y-70786739D01*
X148699385Y-70903295D01*
X148648255Y-71039684D01*
X148641500Y-71101866D01*
X148641500Y-72898134D01*
X148648255Y-72960316D01*
X148699385Y-73096705D01*
X148786739Y-73213261D01*
X148903295Y-73300615D01*
X148911704Y-73303767D01*
X148911705Y-73303768D01*
X149020451Y-73344535D01*
X149077216Y-73387176D01*
X149101916Y-73453738D01*
X149086709Y-73523087D01*
X149067316Y-73549568D01*
X148986120Y-73634535D01*
X148940629Y-73682138D01*
X148937715Y-73686410D01*
X148937714Y-73686411D01*
X148825095Y-73851504D01*
X148770184Y-73896507D01*
X148721007Y-73906500D01*
X144526805Y-73906500D01*
X144458684Y-73886498D01*
X144421013Y-73848940D01*
X144332822Y-73712617D01*
X144332820Y-73712614D01*
X144330014Y-73708277D01*
X144310751Y-73687107D01*
X144182798Y-73546488D01*
X144151746Y-73482642D01*
X144160141Y-73412143D01*
X144205317Y-73357375D01*
X144231761Y-73343706D01*
X144338297Y-73303767D01*
X144346705Y-73300615D01*
X144463261Y-73213261D01*
X144550615Y-73096705D01*
X144601745Y-72960316D01*
X144608500Y-72898134D01*
X144608500Y-71101866D01*
X144601745Y-71039684D01*
X144550615Y-70903295D01*
X144463261Y-70786739D01*
X144346705Y-70699385D01*
X144210316Y-70648255D01*
X144148134Y-70641500D01*
X142351866Y-70641500D01*
X142289684Y-70648255D01*
X142153295Y-70699385D01*
X142036739Y-70786739D01*
X141949385Y-70903295D01*
X141898255Y-71039684D01*
X141891500Y-71101866D01*
X141891500Y-72898134D01*
X141898255Y-72960316D01*
X141949385Y-73096705D01*
X142036739Y-73213261D01*
X142153295Y-73300615D01*
X142161704Y-73303767D01*
X142161705Y-73303768D01*
X142270451Y-73344535D01*
X142327216Y-73387176D01*
X142351916Y-73453738D01*
X142336709Y-73523087D01*
X142317316Y-73549568D01*
X142236120Y-73634535D01*
X142190629Y-73682138D01*
X142187715Y-73686410D01*
X142187714Y-73686411D01*
X142154385Y-73735270D01*
X142064743Y-73866680D01*
X142046259Y-73906500D01*
X141980133Y-74048958D01*
X141970688Y-74069305D01*
X141910989Y-74284570D01*
X141887251Y-74506695D01*
X141887548Y-74511848D01*
X141887548Y-74511851D01*
X141892337Y-74594908D01*
X141900110Y-74729715D01*
X141901247Y-74734761D01*
X141901248Y-74734767D01*
X141925304Y-74841508D01*
X141949222Y-74947639D01*
X142033266Y-75154616D01*
X142035965Y-75159020D01*
X142147291Y-75340688D01*
X142149987Y-75345088D01*
X142296250Y-75513938D01*
X142468126Y-75656632D01*
X142661000Y-75769338D01*
X142869692Y-75849030D01*
X142874760Y-75850061D01*
X142874763Y-75850062D01*
X142982017Y-75871883D01*
X143088597Y-75893567D01*
X143093772Y-75893757D01*
X143093774Y-75893757D01*
X143306673Y-75901564D01*
X143306677Y-75901564D01*
X143311837Y-75901753D01*
X143316957Y-75901097D01*
X143316959Y-75901097D01*
X143528288Y-75874025D01*
X143528289Y-75874025D01*
X143533416Y-75873368D01*
X143538366Y-75871883D01*
X143742429Y-75810661D01*
X143742434Y-75810659D01*
X143747384Y-75809174D01*
X143947994Y-75710896D01*
X144129860Y-75581173D01*
X144288096Y-75423489D01*
X144291361Y-75418946D01*
X144415435Y-75246277D01*
X144418453Y-75242077D01*
X144420746Y-75237437D01*
X144422446Y-75234608D01*
X144474674Y-75186518D01*
X144530451Y-75173500D01*
X148724274Y-75173500D01*
X148792395Y-75193502D01*
X148831707Y-75233665D01*
X148834693Y-75238537D01*
X148899987Y-75345088D01*
X149046250Y-75513938D01*
X149218126Y-75656632D01*
X149411000Y-75769338D01*
X149619692Y-75849030D01*
X149624760Y-75850061D01*
X149624763Y-75850062D01*
X149732017Y-75871883D01*
X149838597Y-75893567D01*
X149843772Y-75893757D01*
X149843774Y-75893757D01*
X150056673Y-75901564D01*
X150056677Y-75901564D01*
X150061837Y-75901753D01*
X150066957Y-75901097D01*
X150066959Y-75901097D01*
X150278288Y-75874025D01*
X150278289Y-75874025D01*
X150283416Y-75873368D01*
X150288366Y-75871883D01*
X150492429Y-75810661D01*
X150492434Y-75810659D01*
X150497384Y-75809174D01*
X150697994Y-75710896D01*
X150879860Y-75581173D01*
X151038096Y-75423489D01*
X151041361Y-75418946D01*
X151165435Y-75246277D01*
X151168453Y-75242077D01*
X151175079Y-75228671D01*
X151223194Y-75176465D01*
X151288035Y-75158500D01*
X154017496Y-75158500D01*
X154085617Y-75178502D01*
X154132110Y-75232158D01*
X154142214Y-75302432D01*
X154139213Y-75316324D01*
X154136819Y-75321855D01*
X154135579Y-75329683D01*
X154135577Y-75329690D01*
X154129901Y-75365524D01*
X154127495Y-75377144D01*
X154116500Y-75419970D01*
X154116500Y-75440224D01*
X154114949Y-75459934D01*
X154111780Y-75479943D01*
X154114994Y-75513938D01*
X154115941Y-75523961D01*
X154116500Y-75535819D01*
X154116500Y-81921233D01*
X154115973Y-81932416D01*
X154114298Y-81939909D01*
X154114547Y-81947835D01*
X154114547Y-81947836D01*
X154116438Y-82007986D01*
X154116500Y-82011945D01*
X154116500Y-82039856D01*
X154116997Y-82043790D01*
X154116997Y-82043791D01*
X154117005Y-82043856D01*
X154117938Y-82055693D01*
X154119327Y-82099889D01*
X154121557Y-82107564D01*
X154124978Y-82119339D01*
X154128987Y-82138700D01*
X154130235Y-82148575D01*
X154131526Y-82158797D01*
X154134445Y-82166168D01*
X154134445Y-82166170D01*
X154147804Y-82199912D01*
X154151649Y-82211142D01*
X154153710Y-82218237D01*
X154163982Y-82253593D01*
X154168015Y-82260412D01*
X154168017Y-82260417D01*
X154174293Y-82271028D01*
X154182988Y-82288776D01*
X154190448Y-82307617D01*
X154195110Y-82314033D01*
X154195110Y-82314034D01*
X154216436Y-82343387D01*
X154222952Y-82353307D01*
X154245458Y-82391362D01*
X154259779Y-82405683D01*
X154272619Y-82420716D01*
X154284528Y-82437107D01*
X154290633Y-82442158D01*
X154292597Y-82444249D01*
X154324647Y-82507601D01*
X154317358Y-82578222D01*
X154273046Y-82633692D01*
X154200745Y-82656500D01*
X151276805Y-82656500D01*
X151208684Y-82636498D01*
X151171013Y-82598940D01*
X151082822Y-82462617D01*
X151082820Y-82462614D01*
X151080014Y-82458277D01*
X151060405Y-82436727D01*
X150932798Y-82296488D01*
X150901746Y-82232642D01*
X150910141Y-82162143D01*
X150955317Y-82107375D01*
X150981761Y-82093706D01*
X151088297Y-82053767D01*
X151096705Y-82050615D01*
X151213261Y-81963261D01*
X151300615Y-81846705D01*
X151351745Y-81710316D01*
X151358500Y-81648134D01*
X151358500Y-79851866D01*
X151351745Y-79789684D01*
X151300615Y-79653295D01*
X151213261Y-79536739D01*
X151096705Y-79449385D01*
X150960316Y-79398255D01*
X150898134Y-79391500D01*
X149101866Y-79391500D01*
X149039684Y-79398255D01*
X148903295Y-79449385D01*
X148786739Y-79536739D01*
X148699385Y-79653295D01*
X148648255Y-79789684D01*
X148641500Y-79851866D01*
X148641500Y-81648134D01*
X148648255Y-81710316D01*
X148699385Y-81846705D01*
X148786739Y-81963261D01*
X148903295Y-82050615D01*
X148911704Y-82053767D01*
X148911705Y-82053768D01*
X149020451Y-82094535D01*
X149077216Y-82137176D01*
X149101916Y-82203738D01*
X149086709Y-82273087D01*
X149067316Y-82299568D01*
X148946432Y-82426066D01*
X148940629Y-82432138D01*
X148937715Y-82436410D01*
X148937714Y-82436411D01*
X148825095Y-82601504D01*
X148770184Y-82646507D01*
X148721007Y-82656500D01*
X144526805Y-82656500D01*
X144458684Y-82636498D01*
X144421013Y-82598940D01*
X144332822Y-82462617D01*
X144332820Y-82462614D01*
X144330014Y-82458277D01*
X144310405Y-82436727D01*
X144182798Y-82296488D01*
X144151746Y-82232642D01*
X144160141Y-82162143D01*
X144205317Y-82107375D01*
X144231761Y-82093706D01*
X144338297Y-82053767D01*
X144346705Y-82050615D01*
X144463261Y-81963261D01*
X144550615Y-81846705D01*
X144601745Y-81710316D01*
X144608500Y-81648134D01*
X144608500Y-79851866D01*
X144601745Y-79789684D01*
X144550615Y-79653295D01*
X144463261Y-79536739D01*
X144346705Y-79449385D01*
X144210316Y-79398255D01*
X144148134Y-79391500D01*
X142351866Y-79391500D01*
X142289684Y-79398255D01*
X142153295Y-79449385D01*
X142036739Y-79536739D01*
X141949385Y-79653295D01*
X141898255Y-79789684D01*
X141891500Y-79851866D01*
X141891500Y-81648134D01*
X141898255Y-81710316D01*
X141949385Y-81846705D01*
X142036739Y-81963261D01*
X142153295Y-82050615D01*
X142161704Y-82053767D01*
X142161705Y-82053768D01*
X142270451Y-82094535D01*
X142327216Y-82137176D01*
X142351916Y-82203738D01*
X142336709Y-82273087D01*
X142317316Y-82299568D01*
X142196432Y-82426066D01*
X142190629Y-82432138D01*
X142187715Y-82436410D01*
X142187714Y-82436411D01*
X142182367Y-82444249D01*
X142064743Y-82616680D01*
X141970688Y-82819305D01*
X141910989Y-83034570D01*
X141887251Y-83256695D01*
X141887548Y-83261848D01*
X141887548Y-83261851D01*
X141893011Y-83356590D01*
X141900110Y-83479715D01*
X141901247Y-83484761D01*
X141901248Y-83484767D01*
X141915449Y-83547778D01*
X141949222Y-83697639D01*
X142033266Y-83904616D01*
X142065374Y-83957011D01*
X142147291Y-84090688D01*
X142149987Y-84095088D01*
X142296250Y-84263938D01*
X142468126Y-84406632D01*
X142661000Y-84519338D01*
X142869692Y-84599030D01*
X142874760Y-84600061D01*
X142874763Y-84600062D01*
X142969862Y-84619410D01*
X143088597Y-84643567D01*
X143093772Y-84643757D01*
X143093774Y-84643757D01*
X143306673Y-84651564D01*
X143306677Y-84651564D01*
X143311837Y-84651753D01*
X143316957Y-84651097D01*
X143316959Y-84651097D01*
X143528288Y-84624025D01*
X143528289Y-84624025D01*
X143533416Y-84623368D01*
X143538366Y-84621883D01*
X143742429Y-84560661D01*
X143742434Y-84560659D01*
X143747384Y-84559174D01*
X143947994Y-84460896D01*
X144129860Y-84331173D01*
X144137122Y-84323937D01*
X144278053Y-84183497D01*
X144288096Y-84173489D01*
X144312681Y-84139276D01*
X144415435Y-83996277D01*
X144418453Y-83992077D01*
X144420746Y-83987437D01*
X144422446Y-83984608D01*
X144474674Y-83936518D01*
X144530451Y-83923500D01*
X148724274Y-83923500D01*
X148792395Y-83943502D01*
X148831707Y-83983665D01*
X148899987Y-84095088D01*
X149046250Y-84263938D01*
X149218126Y-84406632D01*
X149411000Y-84519338D01*
X149619692Y-84599030D01*
X149624760Y-84600061D01*
X149624763Y-84600062D01*
X149719862Y-84619410D01*
X149838597Y-84643567D01*
X149843772Y-84643757D01*
X149843774Y-84643757D01*
X150056673Y-84651564D01*
X150056677Y-84651564D01*
X150061837Y-84651753D01*
X150066957Y-84651097D01*
X150066959Y-84651097D01*
X150278288Y-84624025D01*
X150278289Y-84624025D01*
X150283416Y-84623368D01*
X150288366Y-84621883D01*
X150492429Y-84560661D01*
X150492434Y-84560659D01*
X150497384Y-84559174D01*
X150697994Y-84460896D01*
X150879860Y-84331173D01*
X150887122Y-84323937D01*
X151028053Y-84183497D01*
X151038096Y-84173489D01*
X151062681Y-84139276D01*
X151165435Y-83996277D01*
X151168453Y-83992077D01*
X151170746Y-83987437D01*
X151172446Y-83984608D01*
X151224674Y-83936518D01*
X151280451Y-83923500D01*
X155474274Y-83923500D01*
X155542395Y-83943502D01*
X155581707Y-83983665D01*
X155649987Y-84095088D01*
X155796250Y-84263938D01*
X155968126Y-84406632D01*
X156054070Y-84456853D01*
X156102794Y-84508491D01*
X156116500Y-84565641D01*
X156116500Y-88431692D01*
X156096498Y-88499813D01*
X156048683Y-88543453D01*
X156023607Y-88556507D01*
X156019474Y-88559610D01*
X156019471Y-88559612D01*
X155849100Y-88687530D01*
X155844965Y-88690635D01*
X155690629Y-88852138D01*
X155687715Y-88856410D01*
X155687714Y-88856411D01*
X155575095Y-89021504D01*
X155520184Y-89066507D01*
X155471007Y-89076500D01*
X151276805Y-89076500D01*
X151208684Y-89056498D01*
X151171013Y-89018940D01*
X151082822Y-88882617D01*
X151082820Y-88882614D01*
X151080014Y-88878277D01*
X150929670Y-88713051D01*
X150925619Y-88709852D01*
X150925615Y-88709848D01*
X150758414Y-88577800D01*
X150758410Y-88577798D01*
X150754359Y-88574598D01*
X150749831Y-88572098D01*
X150685777Y-88536739D01*
X150558789Y-88466638D01*
X150553920Y-88464914D01*
X150553916Y-88464912D01*
X150353087Y-88393795D01*
X150353083Y-88393794D01*
X150348212Y-88392069D01*
X150343119Y-88391162D01*
X150343116Y-88391161D01*
X150133373Y-88353800D01*
X150133367Y-88353799D01*
X150128284Y-88352894D01*
X150054452Y-88351992D01*
X149910081Y-88350228D01*
X149910079Y-88350228D01*
X149904911Y-88350165D01*
X149684091Y-88383955D01*
X149471756Y-88453357D01*
X149441443Y-88469137D01*
X149297975Y-88543822D01*
X149273607Y-88556507D01*
X149269474Y-88559610D01*
X149269471Y-88559612D01*
X149099100Y-88687530D01*
X149094965Y-88690635D01*
X148940629Y-88852138D01*
X148937715Y-88856410D01*
X148937714Y-88856411D01*
X148825095Y-89021504D01*
X148770184Y-89066507D01*
X148721007Y-89076500D01*
X148368767Y-89076500D01*
X148357584Y-89075973D01*
X148350091Y-89074298D01*
X148342165Y-89074547D01*
X148342164Y-89074547D01*
X148282014Y-89076438D01*
X148278055Y-89076500D01*
X148250144Y-89076500D01*
X148246210Y-89076997D01*
X148246209Y-89076997D01*
X148246144Y-89077005D01*
X148234307Y-89077938D01*
X148202049Y-89078952D01*
X148198030Y-89079078D01*
X148190111Y-89079327D01*
X148170657Y-89084979D01*
X148151300Y-89088987D01*
X148139070Y-89090532D01*
X148139069Y-89090532D01*
X148131203Y-89091526D01*
X148123832Y-89094445D01*
X148123830Y-89094445D01*
X148090088Y-89107804D01*
X148078858Y-89111649D01*
X148044017Y-89121771D01*
X148044016Y-89121771D01*
X148036407Y-89123982D01*
X148029588Y-89128015D01*
X148029583Y-89128017D01*
X148018972Y-89134293D01*
X148001224Y-89142988D01*
X147982383Y-89150448D01*
X147975967Y-89155110D01*
X147975966Y-89155110D01*
X147946613Y-89176436D01*
X147936693Y-89182952D01*
X147905465Y-89201420D01*
X147905462Y-89201422D01*
X147898638Y-89205458D01*
X147884317Y-89219779D01*
X147869284Y-89232619D01*
X147852893Y-89244528D01*
X147824702Y-89278605D01*
X147816712Y-89287384D01*
X145484500Y-91619595D01*
X145422188Y-91653621D01*
X145395405Y-91656500D01*
X144526805Y-91656500D01*
X144458684Y-91636498D01*
X144421013Y-91598940D01*
X144332822Y-91462617D01*
X144332820Y-91462614D01*
X144330014Y-91458277D01*
X144326532Y-91454450D01*
X144182798Y-91296488D01*
X144151746Y-91232642D01*
X144160141Y-91162143D01*
X144205317Y-91107375D01*
X144231761Y-91093706D01*
X144338297Y-91053767D01*
X144346705Y-91050615D01*
X144463261Y-90963261D01*
X144550615Y-90846705D01*
X144601745Y-90710316D01*
X144608500Y-90648134D01*
X144608500Y-88851866D01*
X144601745Y-88789684D01*
X144550615Y-88653295D01*
X144463261Y-88536739D01*
X144346705Y-88449385D01*
X144210316Y-88398255D01*
X144148134Y-88391500D01*
X142351866Y-88391500D01*
X142289684Y-88398255D01*
X142153295Y-88449385D01*
X142036739Y-88536739D01*
X141949385Y-88653295D01*
X141898255Y-88789684D01*
X141891500Y-88851866D01*
X141891500Y-90648134D01*
X141898255Y-90710316D01*
X141949385Y-90846705D01*
X142036739Y-90963261D01*
X142153295Y-91050615D01*
X142161704Y-91053767D01*
X142161705Y-91053768D01*
X142270451Y-91094535D01*
X142327216Y-91137176D01*
X142351916Y-91203738D01*
X142336709Y-91273087D01*
X142317316Y-91299568D01*
X142190629Y-91432138D01*
X142064743Y-91616680D01*
X141970688Y-91819305D01*
X141910989Y-92034570D01*
X141887251Y-92256695D01*
X141887548Y-92261848D01*
X141887548Y-92261851D01*
X141896940Y-92424730D01*
X141900110Y-92479715D01*
X141901247Y-92484761D01*
X141901248Y-92484767D01*
X141925304Y-92591508D01*
X141949222Y-92697639D01*
X142009014Y-92844890D01*
X142026662Y-92888351D01*
X142033266Y-92904616D01*
X142149987Y-93095088D01*
X142296250Y-93263938D01*
X142468126Y-93406632D01*
X142472583Y-93409237D01*
X142476828Y-93412209D01*
X142476077Y-93413282D01*
X142520589Y-93460452D01*
X142533664Y-93530235D01*
X142506935Y-93596008D01*
X142497393Y-93606702D01*
X142274500Y-93829595D01*
X142212188Y-93863621D01*
X142185405Y-93866500D01*
X134527480Y-93866500D01*
X134459359Y-93846498D01*
X134412866Y-93792842D01*
X134402762Y-93722568D01*
X134413287Y-93687246D01*
X134416117Y-93681178D01*
X134416118Y-93681176D01*
X134418440Y-93676196D01*
X134429881Y-93633500D01*
X134451245Y-93553767D01*
X134475978Y-93461463D01*
X134495353Y-93240000D01*
X134475978Y-93018537D01*
X134418440Y-92803804D01*
X134407443Y-92780221D01*
X134326814Y-92607311D01*
X134326811Y-92607306D01*
X134324488Y-92602324D01*
X134242174Y-92484767D01*
X134200136Y-92424730D01*
X134200134Y-92424727D01*
X134196977Y-92420219D01*
X134039781Y-92263023D01*
X134035273Y-92259866D01*
X134035270Y-92259864D01*
X133959505Y-92206813D01*
X133857677Y-92135512D01*
X133852695Y-92133189D01*
X133852690Y-92133186D01*
X133747035Y-92083919D01*
X133693750Y-92037002D01*
X133674289Y-91968725D01*
X133694831Y-91900765D01*
X133747035Y-91855529D01*
X133852445Y-91806376D01*
X133861931Y-91800898D01*
X133905764Y-91770207D01*
X133914139Y-91759729D01*
X133907071Y-91746281D01*
X133232812Y-91072022D01*
X133218868Y-91064408D01*
X133217035Y-91064539D01*
X133210420Y-91068790D01*
X132532207Y-91747003D01*
X132525777Y-91758777D01*
X132535074Y-91770793D01*
X132578069Y-91800898D01*
X132587555Y-91806376D01*
X132692965Y-91855529D01*
X132746250Y-91902446D01*
X132765711Y-91970723D01*
X132745169Y-92038683D01*
X132692965Y-92083919D01*
X132587311Y-92133186D01*
X132587306Y-92133189D01*
X132582324Y-92135512D01*
X132577817Y-92138668D01*
X132577815Y-92138669D01*
X132404730Y-92259864D01*
X132404727Y-92259866D01*
X132400219Y-92263023D01*
X132243023Y-92420219D01*
X132239866Y-92424727D01*
X132239864Y-92424730D01*
X132197826Y-92484767D01*
X132115512Y-92602324D01*
X132113189Y-92607306D01*
X132113186Y-92607311D01*
X132032557Y-92780221D01*
X132021560Y-92803804D01*
X131964022Y-93018537D01*
X131944647Y-93240000D01*
X131964022Y-93461463D01*
X131988755Y-93553767D01*
X132010120Y-93633500D01*
X132021560Y-93676196D01*
X132023882Y-93681176D01*
X132023883Y-93681178D01*
X132026713Y-93687246D01*
X132037376Y-93757438D01*
X132008399Y-93822251D01*
X131948980Y-93861110D01*
X131912520Y-93866500D01*
X106854594Y-93866500D01*
X106786473Y-93846498D01*
X106765499Y-93829595D01*
X106558126Y-93622222D01*
X106524100Y-93559910D01*
X106525514Y-93500516D01*
X106534554Y-93466777D01*
X106534554Y-93466776D01*
X106535978Y-93461463D01*
X106555353Y-93240000D01*
X106535978Y-93018537D01*
X106478440Y-92803804D01*
X106467443Y-92780221D01*
X106386814Y-92607311D01*
X106386811Y-92607306D01*
X106384488Y-92602324D01*
X106302174Y-92484767D01*
X106260136Y-92424730D01*
X106260134Y-92424727D01*
X106256977Y-92420219D01*
X106099781Y-92263023D01*
X106095273Y-92259866D01*
X106095270Y-92259864D01*
X106019505Y-92206813D01*
X105917677Y-92135512D01*
X105912695Y-92133189D01*
X105912690Y-92133186D01*
X105807035Y-92083919D01*
X105753750Y-92037002D01*
X105734289Y-91968725D01*
X105754831Y-91900765D01*
X105807035Y-91855529D01*
X105912445Y-91806376D01*
X105921931Y-91800898D01*
X105965764Y-91770207D01*
X105974139Y-91759729D01*
X105967071Y-91746281D01*
X105292812Y-91072022D01*
X105278868Y-91064408D01*
X105277035Y-91064539D01*
X105270420Y-91068790D01*
X104592207Y-91747003D01*
X104585777Y-91758777D01*
X104595074Y-91770793D01*
X104638069Y-91800898D01*
X104647555Y-91806376D01*
X104752965Y-91855529D01*
X104806250Y-91902446D01*
X104825711Y-91970723D01*
X104805169Y-92038683D01*
X104752965Y-92083919D01*
X104647311Y-92133186D01*
X104647306Y-92133189D01*
X104642324Y-92135512D01*
X104637817Y-92138668D01*
X104637815Y-92138669D01*
X104464730Y-92259864D01*
X104464727Y-92259866D01*
X104460219Y-92263023D01*
X104303023Y-92420219D01*
X104299866Y-92424727D01*
X104299864Y-92424730D01*
X104257826Y-92484767D01*
X104175512Y-92602324D01*
X104173189Y-92607306D01*
X104173186Y-92607311D01*
X104092557Y-92780221D01*
X104081560Y-92803804D01*
X104024022Y-93018537D01*
X104004647Y-93240000D01*
X102008000Y-93240000D01*
X102008000Y-90705475D01*
X104005628Y-90705475D01*
X104024038Y-90915896D01*
X104025941Y-90926691D01*
X104080609Y-91130715D01*
X104084355Y-91141007D01*
X104173623Y-91332441D01*
X104179103Y-91341932D01*
X104209794Y-91385765D01*
X104220271Y-91394140D01*
X104233718Y-91387072D01*
X104907978Y-90712812D01*
X104914356Y-90701132D01*
X105644408Y-90701132D01*
X105644539Y-90702965D01*
X105648790Y-90709580D01*
X106327003Y-91387793D01*
X106338777Y-91394223D01*
X106350793Y-91384926D01*
X106380897Y-91341932D01*
X106386377Y-91332441D01*
X106475645Y-91141007D01*
X106479391Y-91130715D01*
X106534059Y-90926691D01*
X106535962Y-90915896D01*
X106554372Y-90705475D01*
X131945628Y-90705475D01*
X131964038Y-90915896D01*
X131965941Y-90926691D01*
X132020609Y-91130715D01*
X132024355Y-91141007D01*
X132113623Y-91332441D01*
X132119103Y-91341932D01*
X132149794Y-91385765D01*
X132160271Y-91394140D01*
X132173718Y-91387072D01*
X132847978Y-90712812D01*
X132854356Y-90701132D01*
X133584408Y-90701132D01*
X133584539Y-90702965D01*
X133588790Y-90709580D01*
X134267003Y-91387793D01*
X134278777Y-91394223D01*
X134290793Y-91384926D01*
X134320897Y-91341932D01*
X134326377Y-91332441D01*
X134415645Y-91141007D01*
X134419391Y-91130715D01*
X134474059Y-90926691D01*
X134475962Y-90915896D01*
X134494372Y-90705475D01*
X134494372Y-90694525D01*
X134475962Y-90484104D01*
X134474059Y-90473309D01*
X134419391Y-90269285D01*
X134415645Y-90258993D01*
X134326377Y-90067559D01*
X134320897Y-90058068D01*
X134290206Y-90014235D01*
X134279729Y-90005860D01*
X134266282Y-90012928D01*
X133592022Y-90687188D01*
X133584408Y-90701132D01*
X132854356Y-90701132D01*
X132855592Y-90698868D01*
X132855461Y-90697035D01*
X132851210Y-90690420D01*
X132172997Y-90012207D01*
X132161223Y-90005777D01*
X132149207Y-90015074D01*
X132119103Y-90058068D01*
X132113623Y-90067559D01*
X132024355Y-90258993D01*
X132020609Y-90269285D01*
X131965941Y-90473309D01*
X131964038Y-90484104D01*
X131945628Y-90694525D01*
X131945628Y-90705475D01*
X106554372Y-90705475D01*
X106554372Y-90694525D01*
X106535962Y-90484104D01*
X106534059Y-90473309D01*
X106479391Y-90269285D01*
X106475645Y-90258993D01*
X106386377Y-90067559D01*
X106380897Y-90058068D01*
X106350206Y-90014235D01*
X106339729Y-90005860D01*
X106326282Y-90012928D01*
X105652022Y-90687188D01*
X105644408Y-90701132D01*
X104914356Y-90701132D01*
X104915592Y-90698868D01*
X104915461Y-90697035D01*
X104911210Y-90690420D01*
X104232997Y-90012207D01*
X104221223Y-90005777D01*
X104209207Y-90015074D01*
X104179103Y-90058068D01*
X104173623Y-90067559D01*
X104084355Y-90258993D01*
X104080609Y-90269285D01*
X104025941Y-90473309D01*
X104024038Y-90484104D01*
X104005628Y-90694525D01*
X104005628Y-90705475D01*
X102008000Y-90705475D01*
X102008000Y-88160000D01*
X104004647Y-88160000D01*
X104024022Y-88381463D01*
X104081560Y-88596196D01*
X104083882Y-88601177D01*
X104083883Y-88601178D01*
X104173186Y-88792689D01*
X104173189Y-88792694D01*
X104175512Y-88797676D01*
X104178668Y-88802183D01*
X104178669Y-88802185D01*
X104283781Y-88952300D01*
X104303023Y-88979781D01*
X104460219Y-89136977D01*
X104464727Y-89140134D01*
X104464730Y-89140136D01*
X104516572Y-89176436D01*
X104642323Y-89264488D01*
X104647305Y-89266811D01*
X104647310Y-89266814D01*
X104752965Y-89316081D01*
X104806250Y-89362998D01*
X104825711Y-89431275D01*
X104805169Y-89499235D01*
X104752965Y-89544471D01*
X104647559Y-89593623D01*
X104638068Y-89599103D01*
X104594235Y-89629794D01*
X104585860Y-89640271D01*
X104592928Y-89653718D01*
X105267188Y-90327978D01*
X105281132Y-90335592D01*
X105282965Y-90335461D01*
X105289580Y-90331210D01*
X105967793Y-89652997D01*
X105974223Y-89641223D01*
X105964926Y-89629207D01*
X105921931Y-89599102D01*
X105912445Y-89593624D01*
X105807035Y-89544471D01*
X105753750Y-89497554D01*
X105734289Y-89429277D01*
X105754831Y-89361317D01*
X105807035Y-89316081D01*
X105912690Y-89266814D01*
X105912695Y-89266811D01*
X105917677Y-89264488D01*
X106043428Y-89176436D01*
X106095270Y-89140136D01*
X106095273Y-89140134D01*
X106099781Y-89136977D01*
X106256977Y-88979781D01*
X106276220Y-88952300D01*
X106381331Y-88802185D01*
X106381332Y-88802183D01*
X106384488Y-88797676D01*
X106386811Y-88792694D01*
X106386814Y-88792689D01*
X106476117Y-88601178D01*
X106476118Y-88601177D01*
X106478440Y-88596196D01*
X106535978Y-88381463D01*
X106555353Y-88160000D01*
X131944647Y-88160000D01*
X131964022Y-88381463D01*
X132021560Y-88596196D01*
X132023882Y-88601177D01*
X132023883Y-88601178D01*
X132113186Y-88792689D01*
X132113189Y-88792694D01*
X132115512Y-88797676D01*
X132118668Y-88802183D01*
X132118669Y-88802185D01*
X132223781Y-88952300D01*
X132243023Y-88979781D01*
X132400219Y-89136977D01*
X132404727Y-89140134D01*
X132404730Y-89140136D01*
X132456572Y-89176436D01*
X132582323Y-89264488D01*
X132587305Y-89266811D01*
X132587310Y-89266814D01*
X132692965Y-89316081D01*
X132746250Y-89362998D01*
X132765711Y-89431275D01*
X132745169Y-89499235D01*
X132692965Y-89544471D01*
X132587559Y-89593623D01*
X132578068Y-89599103D01*
X132534235Y-89629794D01*
X132525860Y-89640271D01*
X132532928Y-89653718D01*
X133207188Y-90327978D01*
X133221132Y-90335592D01*
X133222965Y-90335461D01*
X133229580Y-90331210D01*
X133907793Y-89652997D01*
X133914223Y-89641223D01*
X133904926Y-89629207D01*
X133861931Y-89599102D01*
X133852445Y-89593624D01*
X133747035Y-89544471D01*
X133693750Y-89497554D01*
X133674289Y-89429277D01*
X133694831Y-89361317D01*
X133747035Y-89316081D01*
X133852690Y-89266814D01*
X133852695Y-89266811D01*
X133857677Y-89264488D01*
X133983428Y-89176436D01*
X134035270Y-89140136D01*
X134035273Y-89140134D01*
X134039781Y-89136977D01*
X134196977Y-88979781D01*
X134216220Y-88952300D01*
X134321331Y-88802185D01*
X134321332Y-88802183D01*
X134324488Y-88797676D01*
X134326811Y-88792694D01*
X134326814Y-88792689D01*
X134416117Y-88601178D01*
X134416118Y-88601177D01*
X134418440Y-88596196D01*
X134475978Y-88381463D01*
X134495353Y-88160000D01*
X134475978Y-87938537D01*
X134418440Y-87723804D01*
X134415079Y-87716597D01*
X134326814Y-87527311D01*
X134326811Y-87527306D01*
X134324488Y-87522324D01*
X134196977Y-87340219D01*
X134039781Y-87183023D01*
X134035273Y-87179866D01*
X134035270Y-87179864D01*
X133959505Y-87126813D01*
X133857677Y-87055512D01*
X133852695Y-87053189D01*
X133852690Y-87053186D01*
X133747627Y-87004195D01*
X133694342Y-86957278D01*
X133674881Y-86889001D01*
X133695423Y-86821041D01*
X133747627Y-86775805D01*
X133852690Y-86726814D01*
X133852695Y-86726811D01*
X133857677Y-86724488D01*
X133967767Y-86647402D01*
X134035270Y-86600136D01*
X134035273Y-86600134D01*
X134039781Y-86596977D01*
X134196977Y-86439781D01*
X134208010Y-86424025D01*
X134321331Y-86262185D01*
X134321332Y-86262183D01*
X134324488Y-86257676D01*
X134326811Y-86252694D01*
X134326814Y-86252689D01*
X134416117Y-86061178D01*
X134416118Y-86061177D01*
X134418440Y-86056196D01*
X134475978Y-85841463D01*
X134495353Y-85620000D01*
X134475978Y-85398537D01*
X134418440Y-85183804D01*
X134350440Y-85037977D01*
X134326814Y-84987311D01*
X134326811Y-84987306D01*
X134324488Y-84982324D01*
X134321331Y-84977815D01*
X134200136Y-84804730D01*
X134200134Y-84804727D01*
X134196977Y-84800219D01*
X134039781Y-84643023D01*
X134035273Y-84639866D01*
X134035270Y-84639864D01*
X133936103Y-84570427D01*
X133857677Y-84515512D01*
X133852695Y-84513189D01*
X133852690Y-84513186D01*
X133747627Y-84464195D01*
X133694342Y-84417278D01*
X133674881Y-84349001D01*
X133695423Y-84281041D01*
X133747627Y-84235805D01*
X133852690Y-84186814D01*
X133852695Y-84186811D01*
X133857677Y-84184488D01*
X133972221Y-84104283D01*
X134035270Y-84060136D01*
X134035273Y-84060134D01*
X134039781Y-84056977D01*
X134196977Y-83899781D01*
X134216220Y-83872300D01*
X134321331Y-83722185D01*
X134321332Y-83722183D01*
X134324488Y-83717676D01*
X134326811Y-83712694D01*
X134326814Y-83712689D01*
X134416117Y-83521178D01*
X134416118Y-83521177D01*
X134418440Y-83516196D01*
X134426862Y-83484767D01*
X134437503Y-83445051D01*
X134475978Y-83301463D01*
X134495353Y-83080000D01*
X134475978Y-82858537D01*
X134421842Y-82656500D01*
X134419863Y-82649114D01*
X134419862Y-82649112D01*
X134418440Y-82643804D01*
X134403912Y-82612649D01*
X134326814Y-82447311D01*
X134326811Y-82447306D01*
X134324488Y-82442324D01*
X134316345Y-82430694D01*
X134200136Y-82264730D01*
X134200134Y-82264727D01*
X134196977Y-82260219D01*
X134039781Y-82103023D01*
X134035273Y-82099866D01*
X134035270Y-82099864D01*
X133943908Y-82035892D01*
X133857677Y-81975512D01*
X133852695Y-81973189D01*
X133852690Y-81973186D01*
X133747627Y-81924195D01*
X133694342Y-81877278D01*
X133674881Y-81809001D01*
X133695423Y-81741041D01*
X133747627Y-81695805D01*
X133852690Y-81646814D01*
X133852695Y-81646811D01*
X133857677Y-81644488D01*
X133972221Y-81564283D01*
X134035270Y-81520136D01*
X134035273Y-81520134D01*
X134039781Y-81516977D01*
X134196977Y-81359781D01*
X134216220Y-81332300D01*
X134321331Y-81182185D01*
X134321332Y-81182183D01*
X134324488Y-81177676D01*
X134326811Y-81172694D01*
X134326814Y-81172689D01*
X134416117Y-80981178D01*
X134416118Y-80981177D01*
X134418440Y-80976196D01*
X134475978Y-80761463D01*
X134495353Y-80540000D01*
X134475978Y-80318537D01*
X134418440Y-80103804D01*
X134350440Y-79957977D01*
X134326814Y-79907311D01*
X134326811Y-79907306D01*
X134324488Y-79902324D01*
X134321331Y-79897815D01*
X134200136Y-79724730D01*
X134200134Y-79724727D01*
X134196977Y-79720219D01*
X134039781Y-79563023D01*
X134035273Y-79559866D01*
X134035270Y-79559864D01*
X133950519Y-79500521D01*
X133857677Y-79435512D01*
X133852695Y-79433189D01*
X133852690Y-79433186D01*
X133747627Y-79384195D01*
X133694342Y-79337278D01*
X133674881Y-79269001D01*
X133695423Y-79201041D01*
X133747627Y-79155805D01*
X133852690Y-79106814D01*
X133852695Y-79106811D01*
X133857677Y-79104488D01*
X133972221Y-79024283D01*
X134035270Y-78980136D01*
X134035273Y-78980134D01*
X134039781Y-78976977D01*
X134196977Y-78819781D01*
X134216220Y-78792300D01*
X134321331Y-78642185D01*
X134321332Y-78642183D01*
X134324488Y-78637676D01*
X134326811Y-78632694D01*
X134326814Y-78632689D01*
X134416117Y-78441178D01*
X134416118Y-78441177D01*
X134418440Y-78436196D01*
X134475978Y-78221463D01*
X134495353Y-78000000D01*
X134475978Y-77778537D01*
X134418440Y-77563804D01*
X134415079Y-77556597D01*
X134326814Y-77367311D01*
X134326811Y-77367306D01*
X134324488Y-77362324D01*
X134196977Y-77180219D01*
X134039781Y-77023023D01*
X134035273Y-77019866D01*
X134035270Y-77019864D01*
X133959505Y-76966813D01*
X133857677Y-76895512D01*
X133852695Y-76893189D01*
X133852690Y-76893186D01*
X133747627Y-76844195D01*
X133694342Y-76797278D01*
X133674881Y-76729001D01*
X133695423Y-76661041D01*
X133747627Y-76615805D01*
X133852690Y-76566814D01*
X133852695Y-76566811D01*
X133857677Y-76564488D01*
X133972221Y-76484283D01*
X134035270Y-76440136D01*
X134035273Y-76440134D01*
X134039781Y-76436977D01*
X134196977Y-76279781D01*
X134216220Y-76252300D01*
X134321331Y-76102185D01*
X134321332Y-76102183D01*
X134324488Y-76097676D01*
X134326811Y-76092694D01*
X134326814Y-76092689D01*
X134416117Y-75901178D01*
X134416118Y-75901177D01*
X134418440Y-75896196D01*
X134475978Y-75681463D01*
X134495353Y-75460000D01*
X134475978Y-75238537D01*
X134418440Y-75023804D01*
X134415079Y-75016597D01*
X134326814Y-74827311D01*
X134326811Y-74827306D01*
X134324488Y-74822324D01*
X134196977Y-74640219D01*
X134039781Y-74483023D01*
X134035273Y-74479866D01*
X134035270Y-74479864D01*
X133959505Y-74426813D01*
X133857677Y-74355512D01*
X133852695Y-74353189D01*
X133852690Y-74353186D01*
X133747035Y-74303919D01*
X133693750Y-74257002D01*
X133674289Y-74188725D01*
X133694831Y-74120765D01*
X133747035Y-74075529D01*
X133852445Y-74026376D01*
X133861931Y-74020898D01*
X133905764Y-73990207D01*
X133914139Y-73979729D01*
X133907071Y-73966281D01*
X133232812Y-73292022D01*
X133218868Y-73284408D01*
X133217035Y-73284539D01*
X133210420Y-73288790D01*
X132532207Y-73967003D01*
X132525777Y-73978777D01*
X132535074Y-73990793D01*
X132578069Y-74020898D01*
X132587555Y-74026376D01*
X132692965Y-74075529D01*
X132746250Y-74122446D01*
X132765711Y-74190723D01*
X132745169Y-74258683D01*
X132692965Y-74303919D01*
X132587311Y-74353186D01*
X132587306Y-74353189D01*
X132582324Y-74355512D01*
X132577817Y-74358668D01*
X132577815Y-74358669D01*
X132404730Y-74479864D01*
X132404727Y-74479866D01*
X132400219Y-74483023D01*
X132243023Y-74640219D01*
X132115512Y-74822324D01*
X132113189Y-74827306D01*
X132113186Y-74827311D01*
X132024921Y-75016597D01*
X132021560Y-75023804D01*
X131964022Y-75238537D01*
X131944647Y-75460000D01*
X131964022Y-75681463D01*
X132021560Y-75896196D01*
X132023882Y-75901177D01*
X132023883Y-75901178D01*
X132113186Y-76092689D01*
X132113189Y-76092694D01*
X132115512Y-76097676D01*
X132118668Y-76102183D01*
X132118669Y-76102185D01*
X132223781Y-76252300D01*
X132243023Y-76279781D01*
X132400219Y-76436977D01*
X132404727Y-76440134D01*
X132404730Y-76440136D01*
X132467779Y-76484283D01*
X132582323Y-76564488D01*
X132587305Y-76566811D01*
X132587310Y-76566814D01*
X132692373Y-76615805D01*
X132745658Y-76662722D01*
X132765119Y-76730999D01*
X132744577Y-76798959D01*
X132692373Y-76844195D01*
X132587311Y-76893186D01*
X132587306Y-76893189D01*
X132582324Y-76895512D01*
X132577817Y-76898668D01*
X132577815Y-76898669D01*
X132404730Y-77019864D01*
X132404727Y-77019866D01*
X132400219Y-77023023D01*
X132243023Y-77180219D01*
X132115512Y-77362324D01*
X132113189Y-77367306D01*
X132113186Y-77367311D01*
X132024921Y-77556597D01*
X132021560Y-77563804D01*
X131964022Y-77778537D01*
X131944647Y-78000000D01*
X131964022Y-78221463D01*
X132021560Y-78436196D01*
X132023882Y-78441177D01*
X132023883Y-78441178D01*
X132113186Y-78632689D01*
X132113189Y-78632694D01*
X132115512Y-78637676D01*
X132118668Y-78642183D01*
X132118669Y-78642185D01*
X132223781Y-78792300D01*
X132243023Y-78819781D01*
X132400219Y-78976977D01*
X132404727Y-78980134D01*
X132404730Y-78980136D01*
X132467779Y-79024283D01*
X132582323Y-79104488D01*
X132587305Y-79106811D01*
X132587310Y-79106814D01*
X132692373Y-79155805D01*
X132745658Y-79202722D01*
X132765119Y-79270999D01*
X132744577Y-79338959D01*
X132692373Y-79384195D01*
X132587311Y-79433186D01*
X132587306Y-79433189D01*
X132582324Y-79435512D01*
X132577817Y-79438668D01*
X132577815Y-79438669D01*
X132404730Y-79559864D01*
X132404727Y-79559866D01*
X132400219Y-79563023D01*
X132243023Y-79720219D01*
X132239866Y-79724727D01*
X132239864Y-79724730D01*
X132118669Y-79897815D01*
X132115512Y-79902324D01*
X132113189Y-79907306D01*
X132113186Y-79907311D01*
X132089560Y-79957977D01*
X132021560Y-80103804D01*
X131964022Y-80318537D01*
X131944647Y-80540000D01*
X131964022Y-80761463D01*
X132021560Y-80976196D01*
X132023882Y-80981177D01*
X132023883Y-80981178D01*
X132113186Y-81172689D01*
X132113189Y-81172694D01*
X132115512Y-81177676D01*
X132118668Y-81182183D01*
X132118669Y-81182185D01*
X132223781Y-81332300D01*
X132243023Y-81359781D01*
X132400219Y-81516977D01*
X132404727Y-81520134D01*
X132404730Y-81520136D01*
X132467779Y-81564283D01*
X132582323Y-81644488D01*
X132587305Y-81646811D01*
X132587310Y-81646814D01*
X132692373Y-81695805D01*
X132745658Y-81742722D01*
X132765119Y-81810999D01*
X132744577Y-81878959D01*
X132692373Y-81924195D01*
X132587311Y-81973186D01*
X132587306Y-81973189D01*
X132582324Y-81975512D01*
X132577817Y-81978668D01*
X132577815Y-81978669D01*
X132404730Y-82099864D01*
X132404727Y-82099866D01*
X132400219Y-82103023D01*
X132243023Y-82260219D01*
X132239866Y-82264727D01*
X132239864Y-82264730D01*
X132123655Y-82430694D01*
X132115512Y-82442324D01*
X132113189Y-82447306D01*
X132113186Y-82447311D01*
X132036088Y-82612649D01*
X132021560Y-82643804D01*
X132020138Y-82649112D01*
X132020137Y-82649114D01*
X132018158Y-82656500D01*
X131964022Y-82858537D01*
X131944647Y-83080000D01*
X131964022Y-83301463D01*
X132002497Y-83445051D01*
X132013139Y-83484767D01*
X132021560Y-83516196D01*
X132023882Y-83521177D01*
X132023883Y-83521178D01*
X132113186Y-83712689D01*
X132113189Y-83712694D01*
X132115512Y-83717676D01*
X132118668Y-83722183D01*
X132118669Y-83722185D01*
X132223781Y-83872300D01*
X132243023Y-83899781D01*
X132400219Y-84056977D01*
X132404727Y-84060134D01*
X132404730Y-84060136D01*
X132467779Y-84104283D01*
X132582323Y-84184488D01*
X132587305Y-84186811D01*
X132587310Y-84186814D01*
X132692373Y-84235805D01*
X132745658Y-84282722D01*
X132765119Y-84350999D01*
X132744577Y-84418959D01*
X132692373Y-84464195D01*
X132587311Y-84513186D01*
X132587306Y-84513189D01*
X132582324Y-84515512D01*
X132577817Y-84518668D01*
X132577815Y-84518669D01*
X132404730Y-84639864D01*
X132404727Y-84639866D01*
X132400219Y-84643023D01*
X132243023Y-84800219D01*
X132239866Y-84804727D01*
X132239864Y-84804730D01*
X132118669Y-84977815D01*
X132115512Y-84982324D01*
X132113189Y-84987306D01*
X132113186Y-84987311D01*
X132089560Y-85037977D01*
X132021560Y-85183804D01*
X131964022Y-85398537D01*
X131944647Y-85620000D01*
X131964022Y-85841463D01*
X132021560Y-86056196D01*
X132023882Y-86061177D01*
X132023883Y-86061178D01*
X132113186Y-86252689D01*
X132113189Y-86252694D01*
X132115512Y-86257676D01*
X132118668Y-86262183D01*
X132118669Y-86262185D01*
X132231991Y-86424025D01*
X132243023Y-86439781D01*
X132400219Y-86596977D01*
X132404727Y-86600134D01*
X132404730Y-86600136D01*
X132472233Y-86647402D01*
X132582323Y-86724488D01*
X132587305Y-86726811D01*
X132587310Y-86726814D01*
X132692373Y-86775805D01*
X132745658Y-86822722D01*
X132765119Y-86890999D01*
X132744577Y-86958959D01*
X132692373Y-87004195D01*
X132587311Y-87053186D01*
X132587306Y-87053189D01*
X132582324Y-87055512D01*
X132577817Y-87058668D01*
X132577815Y-87058669D01*
X132404730Y-87179864D01*
X132404727Y-87179866D01*
X132400219Y-87183023D01*
X132243023Y-87340219D01*
X132115512Y-87522324D01*
X132113189Y-87527306D01*
X132113186Y-87527311D01*
X132024921Y-87716597D01*
X132021560Y-87723804D01*
X131964022Y-87938537D01*
X131944647Y-88160000D01*
X106555353Y-88160000D01*
X106535978Y-87938537D01*
X106478440Y-87723804D01*
X106475079Y-87716597D01*
X106386814Y-87527311D01*
X106386811Y-87527306D01*
X106384488Y-87522324D01*
X106256977Y-87340219D01*
X106099781Y-87183023D01*
X106095273Y-87179866D01*
X106095270Y-87179864D01*
X106019505Y-87126813D01*
X105917677Y-87055512D01*
X105912695Y-87053189D01*
X105912690Y-87053186D01*
X105807627Y-87004195D01*
X105754342Y-86957278D01*
X105734881Y-86889001D01*
X105755423Y-86821041D01*
X105807627Y-86775805D01*
X105912690Y-86726814D01*
X105912695Y-86726811D01*
X105917677Y-86724488D01*
X106027767Y-86647402D01*
X106095270Y-86600136D01*
X106095273Y-86600134D01*
X106099781Y-86596977D01*
X106256977Y-86439781D01*
X106268010Y-86424025D01*
X106381331Y-86262185D01*
X106381332Y-86262183D01*
X106384488Y-86257676D01*
X106386811Y-86252694D01*
X106386814Y-86252689D01*
X106476117Y-86061178D01*
X106476118Y-86061177D01*
X106478440Y-86056196D01*
X106535978Y-85841463D01*
X106555353Y-85620000D01*
X106535978Y-85398537D01*
X106478440Y-85183804D01*
X106410440Y-85037977D01*
X106386814Y-84987311D01*
X106386811Y-84987306D01*
X106384488Y-84982324D01*
X106381331Y-84977815D01*
X106260136Y-84804730D01*
X106260134Y-84804727D01*
X106256977Y-84800219D01*
X106099781Y-84643023D01*
X106095273Y-84639866D01*
X106095270Y-84639864D01*
X105996103Y-84570427D01*
X105917677Y-84515512D01*
X105912695Y-84513189D01*
X105912690Y-84513186D01*
X105807627Y-84464195D01*
X105754342Y-84417278D01*
X105734881Y-84349001D01*
X105755423Y-84281041D01*
X105807627Y-84235805D01*
X105912690Y-84186814D01*
X105912695Y-84186811D01*
X105917677Y-84184488D01*
X106032221Y-84104283D01*
X106095270Y-84060136D01*
X106095273Y-84060134D01*
X106099781Y-84056977D01*
X106256977Y-83899781D01*
X106276220Y-83872300D01*
X106381331Y-83722185D01*
X106381332Y-83722183D01*
X106384488Y-83717676D01*
X106386811Y-83712694D01*
X106386814Y-83712689D01*
X106476117Y-83521178D01*
X106476118Y-83521177D01*
X106478440Y-83516196D01*
X106486862Y-83484767D01*
X106497503Y-83445051D01*
X106535978Y-83301463D01*
X106555353Y-83080000D01*
X106535978Y-82858537D01*
X106481842Y-82656500D01*
X106479863Y-82649114D01*
X106479862Y-82649112D01*
X106478440Y-82643804D01*
X106463912Y-82612649D01*
X106386814Y-82447311D01*
X106386811Y-82447306D01*
X106384488Y-82442324D01*
X106376345Y-82430694D01*
X106260136Y-82264730D01*
X106260134Y-82264727D01*
X106256977Y-82260219D01*
X106099781Y-82103023D01*
X106095273Y-82099866D01*
X106095270Y-82099864D01*
X106003908Y-82035892D01*
X105917677Y-81975512D01*
X105912695Y-81973189D01*
X105912690Y-81973186D01*
X105807035Y-81923919D01*
X105753750Y-81877002D01*
X105734289Y-81808725D01*
X105754831Y-81740765D01*
X105807035Y-81695529D01*
X105912445Y-81646376D01*
X105921931Y-81640898D01*
X105965764Y-81610207D01*
X105974139Y-81599729D01*
X105967071Y-81586281D01*
X105292812Y-80912022D01*
X105278868Y-80904408D01*
X105277035Y-80904539D01*
X105270420Y-80908790D01*
X104592207Y-81587003D01*
X104585777Y-81598777D01*
X104595074Y-81610793D01*
X104638069Y-81640898D01*
X104647555Y-81646376D01*
X104752965Y-81695529D01*
X104806250Y-81742446D01*
X104825711Y-81810723D01*
X104805169Y-81878683D01*
X104752965Y-81923919D01*
X104647311Y-81973186D01*
X104647306Y-81973189D01*
X104642324Y-81975512D01*
X104637817Y-81978668D01*
X104637815Y-81978669D01*
X104464730Y-82099864D01*
X104464727Y-82099866D01*
X104460219Y-82103023D01*
X104303023Y-82260219D01*
X104299866Y-82264727D01*
X104299864Y-82264730D01*
X104183655Y-82430694D01*
X104175512Y-82442324D01*
X104173189Y-82447306D01*
X104173186Y-82447311D01*
X104096088Y-82612649D01*
X104081560Y-82643804D01*
X104080138Y-82649112D01*
X104080137Y-82649114D01*
X104078158Y-82656500D01*
X104024022Y-82858537D01*
X104004647Y-83080000D01*
X104024022Y-83301463D01*
X104062497Y-83445051D01*
X104073139Y-83484767D01*
X104081560Y-83516196D01*
X104083882Y-83521177D01*
X104083883Y-83521178D01*
X104173186Y-83712689D01*
X104173189Y-83712694D01*
X104175512Y-83717676D01*
X104178668Y-83722183D01*
X104178669Y-83722185D01*
X104283781Y-83872300D01*
X104303023Y-83899781D01*
X104460219Y-84056977D01*
X104464727Y-84060134D01*
X104464730Y-84060136D01*
X104527779Y-84104283D01*
X104642323Y-84184488D01*
X104647305Y-84186811D01*
X104647310Y-84186814D01*
X104752373Y-84235805D01*
X104805658Y-84282722D01*
X104825119Y-84350999D01*
X104804577Y-84418959D01*
X104752373Y-84464195D01*
X104647311Y-84513186D01*
X104647306Y-84513189D01*
X104642324Y-84515512D01*
X104637817Y-84518668D01*
X104637815Y-84518669D01*
X104464730Y-84639864D01*
X104464727Y-84639866D01*
X104460219Y-84643023D01*
X104303023Y-84800219D01*
X104299866Y-84804727D01*
X104299864Y-84804730D01*
X104178669Y-84977815D01*
X104175512Y-84982324D01*
X104173189Y-84987306D01*
X104173186Y-84987311D01*
X104149560Y-85037977D01*
X104081560Y-85183804D01*
X104024022Y-85398537D01*
X104004647Y-85620000D01*
X104024022Y-85841463D01*
X104081560Y-86056196D01*
X104083882Y-86061177D01*
X104083883Y-86061178D01*
X104173186Y-86252689D01*
X104173189Y-86252694D01*
X104175512Y-86257676D01*
X104178668Y-86262183D01*
X104178669Y-86262185D01*
X104291991Y-86424025D01*
X104303023Y-86439781D01*
X104460219Y-86596977D01*
X104464727Y-86600134D01*
X104464730Y-86600136D01*
X104532233Y-86647402D01*
X104642323Y-86724488D01*
X104647305Y-86726811D01*
X104647310Y-86726814D01*
X104752373Y-86775805D01*
X104805658Y-86822722D01*
X104825119Y-86890999D01*
X104804577Y-86958959D01*
X104752373Y-87004195D01*
X104647311Y-87053186D01*
X104647306Y-87053189D01*
X104642324Y-87055512D01*
X104637817Y-87058668D01*
X104637815Y-87058669D01*
X104464730Y-87179864D01*
X104464727Y-87179866D01*
X104460219Y-87183023D01*
X104303023Y-87340219D01*
X104175512Y-87522324D01*
X104173189Y-87527306D01*
X104173186Y-87527311D01*
X104084921Y-87716597D01*
X104081560Y-87723804D01*
X104024022Y-87938537D01*
X104004647Y-88160000D01*
X102008000Y-88160000D01*
X102008000Y-80545475D01*
X104005628Y-80545475D01*
X104024038Y-80755896D01*
X104025941Y-80766691D01*
X104080609Y-80970715D01*
X104084355Y-80981007D01*
X104173623Y-81172441D01*
X104179103Y-81181932D01*
X104209794Y-81225765D01*
X104220271Y-81234140D01*
X104233718Y-81227072D01*
X104907978Y-80552812D01*
X104914356Y-80541132D01*
X105644408Y-80541132D01*
X105644539Y-80542965D01*
X105648790Y-80549580D01*
X106327003Y-81227793D01*
X106338777Y-81234223D01*
X106350793Y-81224926D01*
X106380897Y-81181932D01*
X106386377Y-81172441D01*
X106475645Y-80981007D01*
X106479391Y-80970715D01*
X106534059Y-80766691D01*
X106535962Y-80755896D01*
X106554372Y-80545475D01*
X106554372Y-80534525D01*
X106535962Y-80324104D01*
X106534059Y-80313309D01*
X106479391Y-80109285D01*
X106475645Y-80098993D01*
X106386377Y-79907559D01*
X106380897Y-79898068D01*
X106350206Y-79854235D01*
X106339729Y-79845860D01*
X106326282Y-79852928D01*
X105652022Y-80527188D01*
X105644408Y-80541132D01*
X104914356Y-80541132D01*
X104915592Y-80538868D01*
X104915461Y-80537035D01*
X104911210Y-80530420D01*
X104232997Y-79852207D01*
X104221223Y-79845777D01*
X104209207Y-79855074D01*
X104179103Y-79898068D01*
X104173623Y-79907559D01*
X104084355Y-80098993D01*
X104080609Y-80109285D01*
X104025941Y-80313309D01*
X104024038Y-80324104D01*
X104005628Y-80534525D01*
X104005628Y-80545475D01*
X102008000Y-80545475D01*
X102008000Y-78000000D01*
X104004647Y-78000000D01*
X104024022Y-78221463D01*
X104081560Y-78436196D01*
X104083882Y-78441177D01*
X104083883Y-78441178D01*
X104173186Y-78632689D01*
X104173189Y-78632694D01*
X104175512Y-78637676D01*
X104178668Y-78642183D01*
X104178669Y-78642185D01*
X104283781Y-78792300D01*
X104303023Y-78819781D01*
X104460219Y-78976977D01*
X104464727Y-78980134D01*
X104464730Y-78980136D01*
X104527779Y-79024283D01*
X104642323Y-79104488D01*
X104647305Y-79106811D01*
X104647310Y-79106814D01*
X104752965Y-79156081D01*
X104806250Y-79202998D01*
X104825711Y-79271275D01*
X104805169Y-79339235D01*
X104752965Y-79384471D01*
X104647559Y-79433623D01*
X104638068Y-79439103D01*
X104594235Y-79469794D01*
X104585860Y-79480271D01*
X104592928Y-79493718D01*
X105267188Y-80167978D01*
X105281132Y-80175592D01*
X105282965Y-80175461D01*
X105289580Y-80171210D01*
X105967793Y-79492997D01*
X105974223Y-79481223D01*
X105964926Y-79469207D01*
X105921931Y-79439102D01*
X105912445Y-79433624D01*
X105807035Y-79384471D01*
X105753750Y-79337554D01*
X105734289Y-79269277D01*
X105754831Y-79201317D01*
X105807035Y-79156081D01*
X105912690Y-79106814D01*
X105912695Y-79106811D01*
X105917677Y-79104488D01*
X106032221Y-79024283D01*
X106095270Y-78980136D01*
X106095273Y-78980134D01*
X106099781Y-78976977D01*
X106256977Y-78819781D01*
X106276220Y-78792300D01*
X106381331Y-78642185D01*
X106381332Y-78642183D01*
X106384488Y-78637676D01*
X106386811Y-78632694D01*
X106386814Y-78632689D01*
X106476117Y-78441178D01*
X106476118Y-78441177D01*
X106478440Y-78436196D01*
X106535978Y-78221463D01*
X106555353Y-78000000D01*
X106535978Y-77778537D01*
X106478440Y-77563804D01*
X106475079Y-77556597D01*
X106386814Y-77367311D01*
X106386811Y-77367306D01*
X106384488Y-77362324D01*
X106256977Y-77180219D01*
X106099781Y-77023023D01*
X106095273Y-77019866D01*
X106095270Y-77019864D01*
X106019505Y-76966813D01*
X105917677Y-76895512D01*
X105912695Y-76893189D01*
X105912690Y-76893186D01*
X105807627Y-76844195D01*
X105754342Y-76797278D01*
X105734881Y-76729001D01*
X105755423Y-76661041D01*
X105807627Y-76615805D01*
X105912690Y-76566814D01*
X105912695Y-76566811D01*
X105917677Y-76564488D01*
X106032221Y-76484283D01*
X106095270Y-76440136D01*
X106095273Y-76440134D01*
X106099781Y-76436977D01*
X106256977Y-76279781D01*
X106276220Y-76252300D01*
X106381331Y-76102185D01*
X106381332Y-76102183D01*
X106384488Y-76097676D01*
X106386811Y-76092694D01*
X106386814Y-76092689D01*
X106476117Y-75901178D01*
X106476118Y-75901177D01*
X106478440Y-75896196D01*
X106535978Y-75681463D01*
X106555353Y-75460000D01*
X106535978Y-75238537D01*
X106478440Y-75023804D01*
X106475079Y-75016597D01*
X106386814Y-74827311D01*
X106386811Y-74827306D01*
X106384488Y-74822324D01*
X106256977Y-74640219D01*
X106099781Y-74483023D01*
X106095273Y-74479866D01*
X106095270Y-74479864D01*
X106019505Y-74426813D01*
X105917677Y-74355512D01*
X105912695Y-74353189D01*
X105912690Y-74353186D01*
X105807627Y-74304195D01*
X105754342Y-74257278D01*
X105734881Y-74189001D01*
X105755423Y-74121041D01*
X105807627Y-74075805D01*
X105912690Y-74026814D01*
X105912695Y-74026811D01*
X105917677Y-74024488D01*
X106032221Y-73944283D01*
X106095270Y-73900136D01*
X106095273Y-73900134D01*
X106099781Y-73896977D01*
X106256977Y-73739781D01*
X106275998Y-73712617D01*
X106381331Y-73562185D01*
X106381332Y-73562183D01*
X106384488Y-73557676D01*
X106386811Y-73552694D01*
X106386814Y-73552689D01*
X106476117Y-73361178D01*
X106476118Y-73361177D01*
X106478440Y-73356196D01*
X106480578Y-73348219D01*
X106504320Y-73259612D01*
X106535978Y-73141463D01*
X106554874Y-72925475D01*
X131945628Y-72925475D01*
X131964038Y-73135896D01*
X131965941Y-73146691D01*
X132020609Y-73350715D01*
X132024355Y-73361007D01*
X132113623Y-73552441D01*
X132119103Y-73561932D01*
X132149794Y-73605765D01*
X132160271Y-73614140D01*
X132173718Y-73607072D01*
X132847978Y-72932812D01*
X132854356Y-72921132D01*
X133584408Y-72921132D01*
X133584539Y-72922965D01*
X133588790Y-72929580D01*
X134267003Y-73607793D01*
X134278777Y-73614223D01*
X134290793Y-73604926D01*
X134320897Y-73561932D01*
X134326377Y-73552441D01*
X134415645Y-73361007D01*
X134419391Y-73350715D01*
X134474059Y-73146691D01*
X134475962Y-73135896D01*
X134494372Y-72925475D01*
X134494372Y-72914525D01*
X134475962Y-72704104D01*
X134474059Y-72693309D01*
X134419391Y-72489285D01*
X134415645Y-72478993D01*
X134326377Y-72287559D01*
X134320897Y-72278068D01*
X134290206Y-72234235D01*
X134279729Y-72225860D01*
X134266282Y-72232928D01*
X133592022Y-72907188D01*
X133584408Y-72921132D01*
X132854356Y-72921132D01*
X132855592Y-72918868D01*
X132855461Y-72917035D01*
X132851210Y-72910420D01*
X132172997Y-72232207D01*
X132161223Y-72225777D01*
X132149207Y-72235074D01*
X132119103Y-72278068D01*
X132113623Y-72287559D01*
X132024355Y-72478993D01*
X132020609Y-72489285D01*
X131965941Y-72693309D01*
X131964038Y-72704104D01*
X131945628Y-72914525D01*
X131945628Y-72925475D01*
X106554874Y-72925475D01*
X106555353Y-72920000D01*
X106535978Y-72698537D01*
X106478440Y-72483804D01*
X106471573Y-72469077D01*
X106386814Y-72287311D01*
X106386811Y-72287306D01*
X106384488Y-72282324D01*
X106381331Y-72277815D01*
X106260136Y-72104730D01*
X106260134Y-72104727D01*
X106256977Y-72100219D01*
X106099781Y-71943023D01*
X106095273Y-71939866D01*
X106095270Y-71939864D01*
X106019505Y-71886813D01*
X105917677Y-71815512D01*
X105912695Y-71813189D01*
X105912690Y-71813186D01*
X105807627Y-71764195D01*
X105754342Y-71717278D01*
X105734881Y-71649001D01*
X105755423Y-71581041D01*
X105807627Y-71535805D01*
X105912690Y-71486814D01*
X105912695Y-71486811D01*
X105917677Y-71484488D01*
X106032221Y-71404283D01*
X106095270Y-71360136D01*
X106095273Y-71360134D01*
X106099781Y-71356977D01*
X106256977Y-71199781D01*
X106276220Y-71172300D01*
X106381331Y-71022185D01*
X106381332Y-71022183D01*
X106384488Y-71017676D01*
X106386811Y-71012694D01*
X106386814Y-71012689D01*
X106476117Y-70821178D01*
X106476118Y-70821177D01*
X106478440Y-70816196D01*
X106480578Y-70808219D01*
X106510584Y-70696233D01*
X106535978Y-70601463D01*
X106555353Y-70380000D01*
X131944647Y-70380000D01*
X131964022Y-70601463D01*
X131989416Y-70696233D01*
X132019423Y-70808219D01*
X132021560Y-70816196D01*
X132023882Y-70821177D01*
X132023883Y-70821178D01*
X132113186Y-71012689D01*
X132113189Y-71012694D01*
X132115512Y-71017676D01*
X132118668Y-71022183D01*
X132118669Y-71022185D01*
X132223781Y-71172300D01*
X132243023Y-71199781D01*
X132400219Y-71356977D01*
X132404727Y-71360134D01*
X132404730Y-71360136D01*
X132467779Y-71404283D01*
X132582323Y-71484488D01*
X132587305Y-71486811D01*
X132587310Y-71486814D01*
X132692965Y-71536081D01*
X132746250Y-71582998D01*
X132765711Y-71651275D01*
X132745169Y-71719235D01*
X132692965Y-71764471D01*
X132587559Y-71813623D01*
X132578068Y-71819103D01*
X132534235Y-71849794D01*
X132525860Y-71860271D01*
X132532928Y-71873718D01*
X133207188Y-72547978D01*
X133221132Y-72555592D01*
X133222965Y-72555461D01*
X133229580Y-72551210D01*
X133907793Y-71872997D01*
X133914223Y-71861223D01*
X133904926Y-71849207D01*
X133861931Y-71819102D01*
X133852445Y-71813624D01*
X133747035Y-71764471D01*
X133693750Y-71717554D01*
X133674289Y-71649277D01*
X133694831Y-71581317D01*
X133747035Y-71536081D01*
X133852690Y-71486814D01*
X133852695Y-71486811D01*
X133857677Y-71484488D01*
X133972221Y-71404283D01*
X134035270Y-71360136D01*
X134035273Y-71360134D01*
X134039781Y-71356977D01*
X134196977Y-71199781D01*
X134216220Y-71172300D01*
X134321331Y-71022185D01*
X134321332Y-71022183D01*
X134324488Y-71017676D01*
X134326811Y-71012694D01*
X134326814Y-71012689D01*
X134416117Y-70821178D01*
X134416118Y-70821177D01*
X134418440Y-70816196D01*
X134420578Y-70808219D01*
X134450584Y-70696233D01*
X134475978Y-70601463D01*
X134495353Y-70380000D01*
X134475978Y-70158537D01*
X134418440Y-69943804D01*
X134415079Y-69936597D01*
X134326814Y-69747311D01*
X134326811Y-69747306D01*
X134324488Y-69742324D01*
X134196977Y-69560219D01*
X134039781Y-69403023D01*
X134035273Y-69399866D01*
X134035270Y-69399864D01*
X133959505Y-69346813D01*
X133857677Y-69275512D01*
X133852695Y-69273189D01*
X133852690Y-69273186D01*
X133747627Y-69224195D01*
X133694342Y-69177278D01*
X133674881Y-69109001D01*
X133695423Y-69041041D01*
X133747627Y-68995805D01*
X133852690Y-68946814D01*
X133852695Y-68946811D01*
X133857677Y-68944488D01*
X133972221Y-68864283D01*
X134035270Y-68820136D01*
X134035273Y-68820134D01*
X134039781Y-68816977D01*
X134196977Y-68659781D01*
X134216220Y-68632300D01*
X134321331Y-68482185D01*
X134321332Y-68482183D01*
X134324488Y-68477676D01*
X134326811Y-68472694D01*
X134326814Y-68472689D01*
X134416117Y-68281178D01*
X134416118Y-68281177D01*
X134418440Y-68276196D01*
X134475978Y-68061463D01*
X134495353Y-67840000D01*
X134475978Y-67618537D01*
X134418440Y-67403804D01*
X134352504Y-67262404D01*
X134326814Y-67207311D01*
X134326811Y-67207306D01*
X134324488Y-67202324D01*
X134222658Y-67056895D01*
X134200136Y-67024730D01*
X134200134Y-67024727D01*
X134196977Y-67020219D01*
X134039781Y-66863023D01*
X134035273Y-66859866D01*
X134035270Y-66859864D01*
X133941443Y-66794166D01*
X133857677Y-66735512D01*
X133852695Y-66733189D01*
X133852690Y-66733186D01*
X133747627Y-66684195D01*
X133694342Y-66637278D01*
X133674881Y-66569001D01*
X133695423Y-66501041D01*
X133747627Y-66455805D01*
X133852690Y-66406814D01*
X133852695Y-66406811D01*
X133857677Y-66404488D01*
X134014696Y-66294542D01*
X134035270Y-66280136D01*
X134035273Y-66280134D01*
X134039781Y-66276977D01*
X134196977Y-66119781D01*
X134216220Y-66092300D01*
X134321331Y-65942185D01*
X134321332Y-65942183D01*
X134324488Y-65937676D01*
X134326811Y-65932694D01*
X134326814Y-65932689D01*
X134416117Y-65741178D01*
X134416118Y-65741177D01*
X134418440Y-65736196D01*
X134475978Y-65521463D01*
X134495353Y-65300000D01*
X134475978Y-65078537D01*
X134418440Y-64863804D01*
X134376138Y-64773087D01*
X134326814Y-64667311D01*
X134326811Y-64667306D01*
X134324488Y-64662324D01*
X134286800Y-64608500D01*
X134200136Y-64484730D01*
X134200134Y-64484727D01*
X134196977Y-64480219D01*
X134039781Y-64323023D01*
X134035273Y-64319866D01*
X134035270Y-64319864D01*
X133959505Y-64266813D01*
X133857677Y-64195512D01*
X133852695Y-64193189D01*
X133852690Y-64193186D01*
X133756074Y-64148134D01*
X133747627Y-64144195D01*
X133694342Y-64097278D01*
X133674881Y-64029001D01*
X133695423Y-63961041D01*
X133747627Y-63915805D01*
X133852690Y-63866814D01*
X133852695Y-63866811D01*
X133857677Y-63864488D01*
X133972221Y-63784283D01*
X134035270Y-63740136D01*
X134035273Y-63740134D01*
X134039781Y-63736977D01*
X134196977Y-63579781D01*
X134216220Y-63552300D01*
X134321331Y-63402185D01*
X134321332Y-63402183D01*
X134324488Y-63397676D01*
X134326811Y-63392694D01*
X134326814Y-63392689D01*
X134416117Y-63201178D01*
X134416118Y-63201177D01*
X134418440Y-63196196D01*
X134420323Y-63189171D01*
X134474554Y-62986776D01*
X134475978Y-62981463D01*
X134495353Y-62760000D01*
X134475978Y-62538537D01*
X134418440Y-62323804D01*
X134402530Y-62289684D01*
X134326814Y-62127311D01*
X134326811Y-62127306D01*
X134324488Y-62122324D01*
X134317046Y-62111695D01*
X134200136Y-61944730D01*
X134200134Y-61944727D01*
X134196977Y-61940219D01*
X134039781Y-61783023D01*
X134035273Y-61779866D01*
X134035270Y-61779864D01*
X133936522Y-61710720D01*
X133857677Y-61655512D01*
X133852695Y-61653189D01*
X133852690Y-61653186D01*
X133747627Y-61604195D01*
X133694342Y-61557278D01*
X133674881Y-61489001D01*
X133695423Y-61421041D01*
X133747627Y-61375805D01*
X133852690Y-61326814D01*
X133852695Y-61326811D01*
X133857677Y-61324488D01*
X133972221Y-61244283D01*
X134035270Y-61200136D01*
X134035273Y-61200134D01*
X134039781Y-61196977D01*
X134196977Y-61039781D01*
X134215870Y-61012800D01*
X134321331Y-60862185D01*
X134321332Y-60862183D01*
X134324488Y-60857676D01*
X134326811Y-60852694D01*
X134326814Y-60852689D01*
X134416117Y-60661178D01*
X134416118Y-60661177D01*
X134418440Y-60656196D01*
X134475978Y-60441463D01*
X134495353Y-60220000D01*
X134475978Y-59998537D01*
X134418440Y-59783804D01*
X134415079Y-59776597D01*
X134326814Y-59587311D01*
X134326811Y-59587306D01*
X134324488Y-59582324D01*
X134196977Y-59400219D01*
X134039781Y-59243023D01*
X134035273Y-59239866D01*
X134035270Y-59239864D01*
X133936743Y-59170875D01*
X133857677Y-59115512D01*
X133852695Y-59113189D01*
X133852690Y-59113186D01*
X133747627Y-59064195D01*
X133694342Y-59017278D01*
X133674881Y-58949001D01*
X133695423Y-58881041D01*
X133747627Y-58835805D01*
X133852690Y-58786814D01*
X133852695Y-58786811D01*
X133857677Y-58784488D01*
X133983335Y-58696501D01*
X134035270Y-58660136D01*
X134035273Y-58660134D01*
X134039781Y-58656977D01*
X134196977Y-58499781D01*
X134219567Y-58467520D01*
X134321331Y-58322185D01*
X134321332Y-58322183D01*
X134324488Y-58317676D01*
X134326811Y-58312694D01*
X134326814Y-58312689D01*
X134416117Y-58121178D01*
X134416118Y-58121177D01*
X134418440Y-58116196D01*
X134475978Y-57901463D01*
X134495353Y-57680000D01*
X134475978Y-57458537D01*
X134418440Y-57243804D01*
X134407618Y-57220596D01*
X134326814Y-57047311D01*
X134326811Y-57047306D01*
X134324488Y-57042324D01*
X134316572Y-57031019D01*
X134200136Y-56864730D01*
X134200134Y-56864727D01*
X134196977Y-56860219D01*
X134039781Y-56703023D01*
X134035273Y-56699866D01*
X134035270Y-56699864D01*
X133932005Y-56627557D01*
X133857677Y-56575512D01*
X133852695Y-56573189D01*
X133852690Y-56573186D01*
X133661178Y-56483883D01*
X133661177Y-56483882D01*
X133656196Y-56481560D01*
X133650888Y-56480138D01*
X133650886Y-56480137D01*
X133545202Y-56451819D01*
X133441463Y-56424022D01*
X133220000Y-56404647D01*
X132998537Y-56424022D01*
X132894798Y-56451819D01*
X132789114Y-56480137D01*
X132789112Y-56480138D01*
X132783804Y-56481560D01*
X132778823Y-56483882D01*
X132778822Y-56483883D01*
X132587311Y-56573186D01*
X132587306Y-56573189D01*
X132582324Y-56575512D01*
X132577817Y-56578668D01*
X132577815Y-56578669D01*
X132404730Y-56699864D01*
X132404727Y-56699866D01*
X132400219Y-56703023D01*
X132243023Y-56860219D01*
X132239866Y-56864727D01*
X132239864Y-56864730D01*
X132123428Y-57031019D01*
X132115512Y-57042324D01*
X132113189Y-57047306D01*
X132113186Y-57047311D01*
X132032382Y-57220596D01*
X132021560Y-57243804D01*
X131964022Y-57458537D01*
X131944647Y-57680000D01*
X131964022Y-57901463D01*
X132021560Y-58116196D01*
X132023882Y-58121177D01*
X132023883Y-58121178D01*
X132113186Y-58312689D01*
X132113189Y-58312694D01*
X132115512Y-58317676D01*
X132118668Y-58322183D01*
X132118669Y-58322185D01*
X132220434Y-58467520D01*
X132243023Y-58499781D01*
X132400219Y-58656977D01*
X132404727Y-58660134D01*
X132404730Y-58660136D01*
X132456665Y-58696501D01*
X132582323Y-58784488D01*
X132587305Y-58786811D01*
X132587310Y-58786814D01*
X132692373Y-58835805D01*
X132745658Y-58882722D01*
X132765119Y-58950999D01*
X132744577Y-59018959D01*
X132692373Y-59064195D01*
X132587311Y-59113186D01*
X132587306Y-59113189D01*
X132582324Y-59115512D01*
X132577817Y-59118668D01*
X132577815Y-59118669D01*
X132404730Y-59239864D01*
X132404727Y-59239866D01*
X132400219Y-59243023D01*
X132243023Y-59400219D01*
X132115512Y-59582324D01*
X132113189Y-59587306D01*
X132113186Y-59587311D01*
X132024921Y-59776597D01*
X132021560Y-59783804D01*
X131964022Y-59998537D01*
X131944647Y-60220000D01*
X131964022Y-60441463D01*
X132021560Y-60656196D01*
X132023882Y-60661177D01*
X132023883Y-60661178D01*
X132113186Y-60852689D01*
X132113189Y-60852694D01*
X132115512Y-60857676D01*
X132118668Y-60862183D01*
X132118669Y-60862185D01*
X132224131Y-61012800D01*
X132243023Y-61039781D01*
X132400219Y-61196977D01*
X132404727Y-61200134D01*
X132404730Y-61200136D01*
X132467779Y-61244283D01*
X132582323Y-61324488D01*
X132587305Y-61326811D01*
X132587310Y-61326814D01*
X132692373Y-61375805D01*
X132745658Y-61422722D01*
X132765119Y-61490999D01*
X132744577Y-61558959D01*
X132692373Y-61604195D01*
X132587311Y-61653186D01*
X132587306Y-61653189D01*
X132582324Y-61655512D01*
X132577817Y-61658668D01*
X132577815Y-61658669D01*
X132404730Y-61779864D01*
X132404727Y-61779866D01*
X132400219Y-61783023D01*
X132243023Y-61940219D01*
X132239866Y-61944727D01*
X132239864Y-61944730D01*
X132122954Y-62111695D01*
X132115512Y-62122324D01*
X132113189Y-62127306D01*
X132113186Y-62127311D01*
X132037470Y-62289684D01*
X132021560Y-62323804D01*
X131964022Y-62538537D01*
X131944647Y-62760000D01*
X131964022Y-62981463D01*
X131965446Y-62986776D01*
X132019678Y-63189171D01*
X132021560Y-63196196D01*
X132023882Y-63201177D01*
X132023883Y-63201178D01*
X132113186Y-63392689D01*
X132113189Y-63392694D01*
X132115512Y-63397676D01*
X132118668Y-63402183D01*
X132118669Y-63402185D01*
X132223781Y-63552300D01*
X132243023Y-63579781D01*
X132400219Y-63736977D01*
X132404727Y-63740134D01*
X132404730Y-63740136D01*
X132467779Y-63784283D01*
X132582323Y-63864488D01*
X132587305Y-63866811D01*
X132587310Y-63866814D01*
X132692373Y-63915805D01*
X132745658Y-63962722D01*
X132765119Y-64030999D01*
X132744577Y-64098959D01*
X132692373Y-64144195D01*
X132587311Y-64193186D01*
X132587306Y-64193189D01*
X132582324Y-64195512D01*
X132577817Y-64198668D01*
X132577815Y-64198669D01*
X132404730Y-64319864D01*
X132404727Y-64319866D01*
X132400219Y-64323023D01*
X132243023Y-64480219D01*
X132239866Y-64484727D01*
X132239864Y-64484730D01*
X132153200Y-64608500D01*
X132115512Y-64662324D01*
X132113189Y-64667306D01*
X132113186Y-64667311D01*
X132063862Y-64773087D01*
X132021560Y-64863804D01*
X131964022Y-65078537D01*
X131944647Y-65300000D01*
X131964022Y-65521463D01*
X132021560Y-65736196D01*
X132023882Y-65741177D01*
X132023883Y-65741178D01*
X132113186Y-65932689D01*
X132113189Y-65932694D01*
X132115512Y-65937676D01*
X132118668Y-65942183D01*
X132118669Y-65942185D01*
X132223781Y-66092300D01*
X132243023Y-66119781D01*
X132400219Y-66276977D01*
X132404727Y-66280134D01*
X132404730Y-66280136D01*
X132425304Y-66294542D01*
X132582323Y-66404488D01*
X132587305Y-66406811D01*
X132587310Y-66406814D01*
X132692373Y-66455805D01*
X132745658Y-66502722D01*
X132765119Y-66570999D01*
X132744577Y-66638959D01*
X132692373Y-66684195D01*
X132587311Y-66733186D01*
X132587306Y-66733189D01*
X132582324Y-66735512D01*
X132577817Y-66738668D01*
X132577815Y-66738669D01*
X132404730Y-66859864D01*
X132404727Y-66859866D01*
X132400219Y-66863023D01*
X132243023Y-67020219D01*
X132239866Y-67024727D01*
X132239864Y-67024730D01*
X132217342Y-67056895D01*
X132115512Y-67202324D01*
X132113189Y-67207306D01*
X132113186Y-67207311D01*
X132087496Y-67262404D01*
X132021560Y-67403804D01*
X131964022Y-67618537D01*
X131944647Y-67840000D01*
X131964022Y-68061463D01*
X132021560Y-68276196D01*
X132023882Y-68281177D01*
X132023883Y-68281178D01*
X132113186Y-68472689D01*
X132113189Y-68472694D01*
X132115512Y-68477676D01*
X132118668Y-68482183D01*
X132118669Y-68482185D01*
X132223781Y-68632300D01*
X132243023Y-68659781D01*
X132400219Y-68816977D01*
X132404727Y-68820134D01*
X132404730Y-68820136D01*
X132467779Y-68864283D01*
X132582323Y-68944488D01*
X132587305Y-68946811D01*
X132587310Y-68946814D01*
X132692373Y-68995805D01*
X132745658Y-69042722D01*
X132765119Y-69110999D01*
X132744577Y-69178959D01*
X132692373Y-69224195D01*
X132587311Y-69273186D01*
X132587306Y-69273189D01*
X132582324Y-69275512D01*
X132577817Y-69278668D01*
X132577815Y-69278669D01*
X132404730Y-69399864D01*
X132404727Y-69399866D01*
X132400219Y-69403023D01*
X132243023Y-69560219D01*
X132115512Y-69742324D01*
X132113189Y-69747306D01*
X132113186Y-69747311D01*
X132024921Y-69936597D01*
X132021560Y-69943804D01*
X131964022Y-70158537D01*
X131944647Y-70380000D01*
X106555353Y-70380000D01*
X106535978Y-70158537D01*
X106478440Y-69943804D01*
X106475079Y-69936597D01*
X106386814Y-69747311D01*
X106386811Y-69747306D01*
X106384488Y-69742324D01*
X106256977Y-69560219D01*
X106099781Y-69403023D01*
X106095273Y-69399866D01*
X106095270Y-69399864D01*
X106019505Y-69346813D01*
X105917677Y-69275512D01*
X105912695Y-69273189D01*
X105912690Y-69273186D01*
X105807627Y-69224195D01*
X105754342Y-69177278D01*
X105734881Y-69109001D01*
X105755423Y-69041041D01*
X105807627Y-68995805D01*
X105912690Y-68946814D01*
X105912695Y-68946811D01*
X105917677Y-68944488D01*
X106032221Y-68864283D01*
X106095270Y-68820136D01*
X106095273Y-68820134D01*
X106099781Y-68816977D01*
X106256977Y-68659781D01*
X106276220Y-68632300D01*
X106381331Y-68482185D01*
X106381332Y-68482183D01*
X106384488Y-68477676D01*
X106386811Y-68472694D01*
X106386814Y-68472689D01*
X106476117Y-68281178D01*
X106476118Y-68281177D01*
X106478440Y-68276196D01*
X106535978Y-68061463D01*
X106555353Y-67840000D01*
X106535978Y-67618537D01*
X106478440Y-67403804D01*
X106412504Y-67262404D01*
X106386814Y-67207311D01*
X106386811Y-67207306D01*
X106384488Y-67202324D01*
X106282658Y-67056895D01*
X106260136Y-67024730D01*
X106260134Y-67024727D01*
X106256977Y-67020219D01*
X106099781Y-66863023D01*
X106095273Y-66859866D01*
X106095270Y-66859864D01*
X106001443Y-66794166D01*
X105917677Y-66735512D01*
X105912695Y-66733189D01*
X105912690Y-66733186D01*
X105807627Y-66684195D01*
X105754342Y-66637278D01*
X105734881Y-66569001D01*
X105755423Y-66501041D01*
X105807627Y-66455805D01*
X105912690Y-66406814D01*
X105912695Y-66406811D01*
X105917677Y-66404488D01*
X106074696Y-66294542D01*
X106095270Y-66280136D01*
X106095273Y-66280134D01*
X106099781Y-66276977D01*
X106256977Y-66119781D01*
X106276220Y-66092300D01*
X106381331Y-65942185D01*
X106381332Y-65942183D01*
X106384488Y-65937676D01*
X106386811Y-65932694D01*
X106386814Y-65932689D01*
X106476117Y-65741178D01*
X106476118Y-65741177D01*
X106478440Y-65736196D01*
X106535978Y-65521463D01*
X106555353Y-65300000D01*
X106535978Y-65078537D01*
X106478440Y-64863804D01*
X106436138Y-64773087D01*
X106386814Y-64667311D01*
X106386811Y-64667306D01*
X106384488Y-64662324D01*
X106346800Y-64608500D01*
X106260136Y-64484730D01*
X106260134Y-64484727D01*
X106256977Y-64480219D01*
X106099781Y-64323023D01*
X106095273Y-64319866D01*
X106095270Y-64319864D01*
X106019505Y-64266813D01*
X105917677Y-64195512D01*
X105912695Y-64193189D01*
X105912690Y-64193186D01*
X105816074Y-64148134D01*
X105807627Y-64144195D01*
X105754342Y-64097278D01*
X105734881Y-64029001D01*
X105755423Y-63961041D01*
X105807627Y-63915805D01*
X105912690Y-63866814D01*
X105912695Y-63866811D01*
X105917677Y-63864488D01*
X106032221Y-63784283D01*
X106095270Y-63740136D01*
X106095273Y-63740134D01*
X106099781Y-63736977D01*
X106256977Y-63579781D01*
X106276220Y-63552300D01*
X106381331Y-63402185D01*
X106381332Y-63402183D01*
X106384488Y-63397676D01*
X106386811Y-63392694D01*
X106386814Y-63392689D01*
X106476117Y-63201178D01*
X106476118Y-63201177D01*
X106478440Y-63196196D01*
X106480323Y-63189171D01*
X106534554Y-62986776D01*
X106535978Y-62981463D01*
X106555353Y-62760000D01*
X106535978Y-62538537D01*
X106478440Y-62323804D01*
X106462530Y-62289684D01*
X106386814Y-62127311D01*
X106386811Y-62127306D01*
X106384488Y-62122324D01*
X106377046Y-62111695D01*
X106260136Y-61944730D01*
X106260134Y-61944727D01*
X106256977Y-61940219D01*
X106099781Y-61783023D01*
X106095273Y-61779866D01*
X106095270Y-61779864D01*
X105996522Y-61710720D01*
X105917677Y-61655512D01*
X105912695Y-61653189D01*
X105912690Y-61653186D01*
X105807627Y-61604195D01*
X105754342Y-61557278D01*
X105734881Y-61489001D01*
X105755423Y-61421041D01*
X105807627Y-61375805D01*
X105912690Y-61326814D01*
X105912695Y-61326811D01*
X105917677Y-61324488D01*
X106032221Y-61244283D01*
X106095270Y-61200136D01*
X106095273Y-61200134D01*
X106099781Y-61196977D01*
X106256977Y-61039781D01*
X106275870Y-61012800D01*
X106381331Y-60862185D01*
X106381332Y-60862183D01*
X106384488Y-60857676D01*
X106386811Y-60852694D01*
X106386814Y-60852689D01*
X106476117Y-60661178D01*
X106476118Y-60661177D01*
X106478440Y-60656196D01*
X106535978Y-60441463D01*
X106555353Y-60220000D01*
X106535978Y-59998537D01*
X106478440Y-59783804D01*
X106475079Y-59776597D01*
X106386814Y-59587311D01*
X106386811Y-59587306D01*
X106384488Y-59582324D01*
X106256977Y-59400219D01*
X106099781Y-59243023D01*
X106095273Y-59239866D01*
X106095270Y-59239864D01*
X105996743Y-59170875D01*
X105917677Y-59115512D01*
X105912695Y-59113189D01*
X105912690Y-59113186D01*
X105807627Y-59064195D01*
X105754342Y-59017278D01*
X105734881Y-58949001D01*
X105755423Y-58881041D01*
X105807627Y-58835805D01*
X105912690Y-58786814D01*
X105912695Y-58786811D01*
X105917677Y-58784488D01*
X106043335Y-58696501D01*
X106095270Y-58660136D01*
X106095273Y-58660134D01*
X106099781Y-58656977D01*
X106256977Y-58499781D01*
X106279567Y-58467520D01*
X106381331Y-58322185D01*
X106381332Y-58322183D01*
X106384488Y-58317676D01*
X106386811Y-58312694D01*
X106386814Y-58312689D01*
X106476117Y-58121178D01*
X106476118Y-58121177D01*
X106478440Y-58116196D01*
X106535978Y-57901463D01*
X106555353Y-57680000D01*
X106535978Y-57458537D01*
X106478440Y-57243804D01*
X106467618Y-57220596D01*
X106386814Y-57047311D01*
X106386811Y-57047306D01*
X106384488Y-57042324D01*
X106376572Y-57031019D01*
X106260136Y-56864730D01*
X106260134Y-56864727D01*
X106256977Y-56860219D01*
X106099781Y-56703023D01*
X106095273Y-56699866D01*
X106095270Y-56699864D01*
X105992005Y-56627557D01*
X105917677Y-56575512D01*
X105912695Y-56573189D01*
X105912690Y-56573186D01*
X105721178Y-56483883D01*
X105721177Y-56483882D01*
X105716196Y-56481560D01*
X105710888Y-56480138D01*
X105710886Y-56480137D01*
X105605202Y-56451819D01*
X105501463Y-56424022D01*
X105280000Y-56404647D01*
X105058537Y-56424022D01*
X104954798Y-56451819D01*
X104849114Y-56480137D01*
X104849112Y-56480138D01*
X104843804Y-56481560D01*
X104838823Y-56483882D01*
X104838822Y-56483883D01*
X104647311Y-56573186D01*
X104647306Y-56573189D01*
X104642324Y-56575512D01*
X104637817Y-56578668D01*
X104637815Y-56578669D01*
X104464730Y-56699864D01*
X104464727Y-56699866D01*
X104460219Y-56703023D01*
X104303023Y-56860219D01*
X104299866Y-56864727D01*
X104299864Y-56864730D01*
X104183428Y-57031019D01*
X104175512Y-57042324D01*
X104173189Y-57047306D01*
X104173186Y-57047311D01*
X104092382Y-57220596D01*
X104081560Y-57243804D01*
X104024022Y-57458537D01*
X104004647Y-57680000D01*
X104024022Y-57901463D01*
X104081560Y-58116196D01*
X104083882Y-58121177D01*
X104083883Y-58121178D01*
X104173186Y-58312689D01*
X104173189Y-58312694D01*
X104175512Y-58317676D01*
X104178668Y-58322183D01*
X104178669Y-58322185D01*
X104280434Y-58467520D01*
X104303023Y-58499781D01*
X104460219Y-58656977D01*
X104464727Y-58660134D01*
X104464730Y-58660136D01*
X104516665Y-58696501D01*
X104642323Y-58784488D01*
X104647305Y-58786811D01*
X104647310Y-58786814D01*
X104752373Y-58835805D01*
X104805658Y-58882722D01*
X104825119Y-58950999D01*
X104804577Y-59018959D01*
X104752373Y-59064195D01*
X104647311Y-59113186D01*
X104647306Y-59113189D01*
X104642324Y-59115512D01*
X104637817Y-59118668D01*
X104637815Y-59118669D01*
X104464730Y-59239864D01*
X104464727Y-59239866D01*
X104460219Y-59243023D01*
X104303023Y-59400219D01*
X104175512Y-59582324D01*
X104173189Y-59587306D01*
X104173186Y-59587311D01*
X104084921Y-59776597D01*
X104081560Y-59783804D01*
X104024022Y-59998537D01*
X104004647Y-60220000D01*
X104024022Y-60441463D01*
X104081560Y-60656196D01*
X104083882Y-60661177D01*
X104083883Y-60661178D01*
X104173186Y-60852689D01*
X104173189Y-60852694D01*
X104175512Y-60857676D01*
X104178668Y-60862183D01*
X104178669Y-60862185D01*
X104284131Y-61012800D01*
X104303023Y-61039781D01*
X104460219Y-61196977D01*
X104464727Y-61200134D01*
X104464730Y-61200136D01*
X104527779Y-61244283D01*
X104642323Y-61324488D01*
X104647305Y-61326811D01*
X104647310Y-61326814D01*
X104752373Y-61375805D01*
X104805658Y-61422722D01*
X104825119Y-61490999D01*
X104804577Y-61558959D01*
X104752373Y-61604195D01*
X104647311Y-61653186D01*
X104647306Y-61653189D01*
X104642324Y-61655512D01*
X104637817Y-61658668D01*
X104637815Y-61658669D01*
X104464730Y-61779864D01*
X104464727Y-61779866D01*
X104460219Y-61783023D01*
X104303023Y-61940219D01*
X104299866Y-61944727D01*
X104299864Y-61944730D01*
X104182954Y-62111695D01*
X104175512Y-62122324D01*
X104173189Y-62127306D01*
X104173186Y-62127311D01*
X104097470Y-62289684D01*
X104081560Y-62323804D01*
X104024022Y-62538537D01*
X104004647Y-62760000D01*
X104024022Y-62981463D01*
X104025446Y-62986776D01*
X104079678Y-63189171D01*
X104081560Y-63196196D01*
X104083882Y-63201177D01*
X104083883Y-63201178D01*
X104173186Y-63392689D01*
X104173189Y-63392694D01*
X104175512Y-63397676D01*
X104178668Y-63402183D01*
X104178669Y-63402185D01*
X104283781Y-63552300D01*
X104303023Y-63579781D01*
X104460219Y-63736977D01*
X104464727Y-63740134D01*
X104464730Y-63740136D01*
X104527779Y-63784283D01*
X104642323Y-63864488D01*
X104647305Y-63866811D01*
X104647310Y-63866814D01*
X104752373Y-63915805D01*
X104805658Y-63962722D01*
X104825119Y-64030999D01*
X104804577Y-64098959D01*
X104752373Y-64144195D01*
X104647311Y-64193186D01*
X104647306Y-64193189D01*
X104642324Y-64195512D01*
X104637817Y-64198668D01*
X104637815Y-64198669D01*
X104464730Y-64319864D01*
X104464727Y-64319866D01*
X104460219Y-64323023D01*
X104303023Y-64480219D01*
X104299866Y-64484727D01*
X104299864Y-64484730D01*
X104213200Y-64608500D01*
X104175512Y-64662324D01*
X104173189Y-64667306D01*
X104173186Y-64667311D01*
X104123862Y-64773087D01*
X104081560Y-64863804D01*
X104024022Y-65078537D01*
X104004647Y-65300000D01*
X104024022Y-65521463D01*
X104081560Y-65736196D01*
X104083882Y-65741177D01*
X104083883Y-65741178D01*
X104173186Y-65932689D01*
X104173189Y-65932694D01*
X104175512Y-65937676D01*
X104178668Y-65942183D01*
X104178669Y-65942185D01*
X104283781Y-66092300D01*
X104303023Y-66119781D01*
X104460219Y-66276977D01*
X104464727Y-66280134D01*
X104464730Y-66280136D01*
X104485304Y-66294542D01*
X104642323Y-66404488D01*
X104647305Y-66406811D01*
X104647310Y-66406814D01*
X104752373Y-66455805D01*
X104805658Y-66502722D01*
X104825119Y-66570999D01*
X104804577Y-66638959D01*
X104752373Y-66684195D01*
X104647311Y-66733186D01*
X104647306Y-66733189D01*
X104642324Y-66735512D01*
X104637817Y-66738668D01*
X104637815Y-66738669D01*
X104464730Y-66859864D01*
X104464727Y-66859866D01*
X104460219Y-66863023D01*
X104303023Y-67020219D01*
X104299866Y-67024727D01*
X104299864Y-67024730D01*
X104277342Y-67056895D01*
X104175512Y-67202324D01*
X104173189Y-67207306D01*
X104173186Y-67207311D01*
X104147496Y-67262404D01*
X104081560Y-67403804D01*
X104024022Y-67618537D01*
X104004647Y-67840000D01*
X104024022Y-68061463D01*
X104081560Y-68276196D01*
X104083882Y-68281177D01*
X104083883Y-68281178D01*
X104173186Y-68472689D01*
X104173189Y-68472694D01*
X104175512Y-68477676D01*
X104178668Y-68482183D01*
X104178669Y-68482185D01*
X104283781Y-68632300D01*
X104303023Y-68659781D01*
X104460219Y-68816977D01*
X104464727Y-68820134D01*
X104464730Y-68820136D01*
X104527779Y-68864283D01*
X104642323Y-68944488D01*
X104647305Y-68946811D01*
X104647310Y-68946814D01*
X104752373Y-68995805D01*
X104805658Y-69042722D01*
X104825119Y-69110999D01*
X104804577Y-69178959D01*
X104752373Y-69224195D01*
X104647311Y-69273186D01*
X104647306Y-69273189D01*
X104642324Y-69275512D01*
X104637817Y-69278668D01*
X104637815Y-69278669D01*
X104464730Y-69399864D01*
X104464727Y-69399866D01*
X104460219Y-69403023D01*
X104303023Y-69560219D01*
X104175512Y-69742324D01*
X104173189Y-69747306D01*
X104173186Y-69747311D01*
X104084921Y-69936597D01*
X104081560Y-69943804D01*
X104024022Y-70158537D01*
X104004647Y-70380000D01*
X104024022Y-70601463D01*
X104049416Y-70696233D01*
X104079423Y-70808219D01*
X104081560Y-70816196D01*
X104083882Y-70821177D01*
X104083883Y-70821178D01*
X104173186Y-71012689D01*
X104173189Y-71012694D01*
X104175512Y-71017676D01*
X104178668Y-71022183D01*
X104178669Y-71022185D01*
X104283781Y-71172300D01*
X104303023Y-71199781D01*
X104460219Y-71356977D01*
X104464727Y-71360134D01*
X104464730Y-71360136D01*
X104527779Y-71404283D01*
X104642323Y-71484488D01*
X104647305Y-71486811D01*
X104647310Y-71486814D01*
X104752373Y-71535805D01*
X104805658Y-71582722D01*
X104825119Y-71650999D01*
X104804577Y-71718959D01*
X104752373Y-71764195D01*
X104647311Y-71813186D01*
X104647306Y-71813189D01*
X104642324Y-71815512D01*
X104637817Y-71818668D01*
X104637815Y-71818669D01*
X104464730Y-71939864D01*
X104464727Y-71939866D01*
X104460219Y-71943023D01*
X104303023Y-72100219D01*
X104299866Y-72104727D01*
X104299864Y-72104730D01*
X104178669Y-72277815D01*
X104175512Y-72282324D01*
X104173189Y-72287306D01*
X104173186Y-72287311D01*
X104088427Y-72469077D01*
X104081560Y-72483804D01*
X104024022Y-72698537D01*
X104004647Y-72920000D01*
X104024022Y-73141463D01*
X104055680Y-73259612D01*
X104079423Y-73348219D01*
X104081560Y-73356196D01*
X104083882Y-73361177D01*
X104083883Y-73361178D01*
X104173186Y-73552689D01*
X104173189Y-73552694D01*
X104175512Y-73557676D01*
X104178668Y-73562183D01*
X104178669Y-73562185D01*
X104284003Y-73712617D01*
X104303023Y-73739781D01*
X104460219Y-73896977D01*
X104464727Y-73900134D01*
X104464730Y-73900136D01*
X104527779Y-73944283D01*
X104642323Y-74024488D01*
X104647305Y-74026811D01*
X104647310Y-74026814D01*
X104752373Y-74075805D01*
X104805658Y-74122722D01*
X104825119Y-74190999D01*
X104804577Y-74258959D01*
X104752373Y-74304195D01*
X104647311Y-74353186D01*
X104647306Y-74353189D01*
X104642324Y-74355512D01*
X104637817Y-74358668D01*
X104637815Y-74358669D01*
X104464730Y-74479864D01*
X104464727Y-74479866D01*
X104460219Y-74483023D01*
X104303023Y-74640219D01*
X104175512Y-74822324D01*
X104173189Y-74827306D01*
X104173186Y-74827311D01*
X104084921Y-75016597D01*
X104081560Y-75023804D01*
X104024022Y-75238537D01*
X104004647Y-75460000D01*
X104024022Y-75681463D01*
X104081560Y-75896196D01*
X104083882Y-75901177D01*
X104083883Y-75901178D01*
X104173186Y-76092689D01*
X104173189Y-76092694D01*
X104175512Y-76097676D01*
X104178668Y-76102183D01*
X104178669Y-76102185D01*
X104283781Y-76252300D01*
X104303023Y-76279781D01*
X104460219Y-76436977D01*
X104464727Y-76440134D01*
X104464730Y-76440136D01*
X104527779Y-76484283D01*
X104642323Y-76564488D01*
X104647305Y-76566811D01*
X104647310Y-76566814D01*
X104752373Y-76615805D01*
X104805658Y-76662722D01*
X104825119Y-76730999D01*
X104804577Y-76798959D01*
X104752373Y-76844195D01*
X104647311Y-76893186D01*
X104647306Y-76893189D01*
X104642324Y-76895512D01*
X104637817Y-76898668D01*
X104637815Y-76898669D01*
X104464730Y-77019864D01*
X104464727Y-77019866D01*
X104460219Y-77023023D01*
X104303023Y-77180219D01*
X104175512Y-77362324D01*
X104173189Y-77367306D01*
X104173186Y-77367311D01*
X104084921Y-77556597D01*
X104081560Y-77563804D01*
X104024022Y-77778537D01*
X104004647Y-78000000D01*
X102008000Y-78000000D01*
X102008000Y-41029893D01*
X102028002Y-40961772D01*
X102081658Y-40915279D01*
X102151932Y-40905175D01*
X102216512Y-40934669D01*
X102251631Y-40984739D01*
X102357468Y-41260453D01*
X102533938Y-41606794D01*
X102745643Y-41932793D01*
X102990266Y-42234876D01*
X103265124Y-42509734D01*
X103567207Y-42754357D01*
X103893205Y-42966062D01*
X103896139Y-42967557D01*
X103896146Y-42967561D01*
X104236607Y-43141034D01*
X104239547Y-43142532D01*
X104602438Y-43281833D01*
X104977901Y-43382438D01*
X105181793Y-43414732D01*
X105358576Y-43442732D01*
X105358584Y-43442733D01*
X105361824Y-43443246D01*
X105750000Y-43463589D01*
X106138176Y-43443246D01*
X106141416Y-43442733D01*
X106141424Y-43442732D01*
X106318207Y-43414732D01*
X106522099Y-43382438D01*
X106897562Y-43281833D01*
X107260453Y-43142532D01*
X107263393Y-43141034D01*
X107603854Y-42967561D01*
X107603861Y-42967557D01*
X107606795Y-42966062D01*
X107932793Y-42754357D01*
X108234876Y-42509734D01*
X108509734Y-42234876D01*
X108754357Y-41932793D01*
X108966062Y-41606794D01*
X109142532Y-41260453D01*
X109281833Y-40897562D01*
X109382438Y-40522099D01*
X109443246Y-40138176D01*
X109463589Y-39750000D01*
X109443246Y-39361824D01*
X109382438Y-38977901D01*
X109281833Y-38602438D01*
X109142532Y-38239547D01*
X108966062Y-37893206D01*
X108754357Y-37567207D01*
X108509734Y-37265124D01*
X108234876Y-36990266D01*
X107932793Y-36745643D01*
X107606795Y-36533938D01*
X107603861Y-36532443D01*
X107603854Y-36532439D01*
X107263393Y-36358966D01*
X107260453Y-36357468D01*
X106984739Y-36251631D01*
X106928310Y-36208545D01*
X106904134Y-36141792D01*
X106919885Y-36072564D01*
X106970563Y-36022843D01*
X107029893Y-36008000D01*
X195970107Y-36008000D01*
X196038228Y-36028002D01*
G37*
%TD.AperFunction*%
%TD*%
M02*
